<svg width="20" height="19" viewBox="0 0 20 19" fill="none" xmlns="http://www.w3.org/2000/svg">
<path opacity="0.5" d="M10 18.6667C5.67887 18.6667 3.51829 18.6667 2.17537 17.3238C0.833374 15.9827 0.833374 13.8212 0.833374 9.50004C0.833374 5.17887 0.833374 3.01829 2.17537 1.67537C3.51921 0.333374 5.67887 0.333374 10 0.333374C14.3212 0.333374 16.4818 0.333374 17.8238 1.67537C19.1667 3.01921 19.1667 5.17887 19.1667 9.50004C19.1667 13.8212 19.1667 15.9818 17.8238 17.3238C16.4827 18.6667 14.3212 18.6667 10 18.6667Z" fill="white"/>
<path d="M10 14.7708C10.1824 14.7708 10.3572 14.6984 10.4862 14.5694C10.6151 14.4405 10.6875 14.2656 10.6875 14.0833V8.58329C10.6875 8.40096 10.6151 8.22609 10.4862 8.09716C10.3572 7.96823 10.1824 7.89579 10 7.89579C9.8177 7.89579 9.64284 7.96823 9.51391 8.09716C9.38497 8.22609 9.31254 8.40096 9.31254 8.58329V14.0833C9.31254 14.4628 9.62054 14.7708 10 14.7708ZM10 4.91663C10.2432 4.91663 10.4763 5.0132 10.6482 5.18511C10.8201 5.35702 10.9167 5.59018 10.9167 5.83329C10.9167 6.07641 10.8201 6.30957 10.6482 6.48147C10.4763 6.65338 10.2432 6.74996 10 6.74996C9.75693 6.74996 9.52377 6.65338 9.35186 6.48147C9.17995 6.30957 9.08337 6.07641 9.08337 5.83329C9.08337 5.59018 9.17995 5.35702 9.35186 5.18511C9.52377 5.0132 9.75693 4.91663 10 4.91663Z" fill="white"/>
</svg>
