<svg width="24" height="24" viewBox="0 0 24 24" fill="none" xmlns="http://www.w3.org/2000/svg">
<path d="M9.37847 1.39062C7.92736 2.21319 6.70518 2.79673 5.60184 2.90797C5.22262 2.94617 4.85747 2.91673 4.51237 2.81947C3.84065 3.73728 3.76509 4.97591 4.09495 6.19522C4.36007 7.17537 4.89665 8.11475 5.53214 8.78295C5.55717 8.44817 5.59683 8.12398 5.65214 7.8192C5.81292 6.9342 6.06122 6.18336 6.65254 5.78877C6.94818 5.59142 7.35661 5.54183 7.71614 5.678C7.98529 5.78 8.23354 5.96005 8.48076 6.21509L11.2365 4.619L9.37842 1.39062H9.37847ZM14.6421 1.39062L12.7839 4.61905L15.5397 6.21505C15.7869 5.96005 16.0352 5.77995 16.3043 5.678C16.6639 5.54187 17.0723 5.59152 17.368 5.78881C17.9593 6.18341 18.2076 6.9343 18.3683 7.8193C18.4237 8.12408 18.4633 8.44827 18.4882 8.78305C19.1238 8.11475 19.6604 7.17537 19.9255 6.19527C20.2554 4.97595 20.1798 3.73733 19.5082 2.81952C19.163 2.91678 18.7979 2.94622 18.4187 2.90797C17.3153 2.79678 16.0931 2.21328 14.642 1.39062H14.6421ZM2.86007 1.60213C1.82015 2.30366 1.25193 3.18913 1.01503 4.17969C0.752669 5.27684 0.90895 6.51706 1.38234 7.72231C2.2064 9.82016 3.99984 11.7693 5.94478 12.6226C5.67665 11.7993 5.5357 10.8588 5.50743 9.93772C4.45575 9.14562 3.6315 7.83669 3.24928 6.42397C2.88576 5.08039 2.93568 3.60369 3.70715 2.44241C3.39745 2.23194 3.11292 1.95233 2.86007 1.60213ZM21.1604 1.60213C20.9075 1.95228 20.623 2.23189 20.3133 2.44241C21.0849 3.60364 21.1347 5.08034 20.7712 6.42397C20.3889 7.83669 19.5646 9.14562 18.5129 9.93772C18.4847 10.8588 18.3437 11.7993 18.0756 12.6226C20.0205 11.7694 21.814 9.8202 22.638 7.72236C23.1115 6.51711 23.2677 5.27689 23.0054 4.17973C22.7685 3.18917 22.2003 2.30366 21.1604 1.60213ZM11.0615 5.73275L9.69384 6.52494C12.174 11.2218 13.6102 16.3599 16.8532 20.3852L18.4232 19.2044C16.4183 16.9854 15.2684 14.8344 14.2734 12.6195C13.2975 10.447 12.4523 8.21427 11.0615 5.7327L11.0615 5.73275ZM12.959 5.73289C12.8047 6.00839 12.654 6.28591 12.507 6.56539C12.828 7.19567 13.1184 7.80912 13.3908 8.40912C13.689 7.77584 13.999 7.14664 14.3271 6.52512L12.959 5.73289ZM10.6329 10.5854C10.3369 11.2726 10.048 11.9494 9.74695 12.6195C8.75198 14.8344 7.60195 16.9855 5.5972 19.2044L7.16723 20.3853C9.03473 18.0674 10.3027 15.3803 11.5162 12.6212C11.2207 11.9418 10.9286 11.2619 10.6329 10.5854ZM4.6395 19.5802L3.822 20.6621L6.19209 22.4445L7.00959 21.3628L4.63959 19.5802L4.6395 19.5802ZM19.381 19.5802L17.0109 21.3628L17.8284 22.4446L20.1985 20.6621L19.381 19.5802L19.381 19.5802Z" fill="url(#paint0_linear_4_411)"/>
<defs>
<linearGradient id="paint0_linear_4_411" x1="12.0102" y1="1.39062" x2="12.0102" y2="22.4446" gradientUnits="userSpaceOnUse">
<stop stop-color="#7D86F4"/>
<stop offset="1" stop-color="#515ACC"/>
</linearGradient>
</defs>
</svg>
