<svg width="24" height="20" viewBox="0 0 24 20" fill="none" xmlns="http://www.w3.org/2000/svg">
<path d="M8.8743 0.541072C8.82045 0.541035 8.76631 0.542749 8.71188 0.546212C7.84153 0.60172 6.95937 1.17698 6.64579 2.01933C4.78248 7.02499 3.85208 9.06664 3.28251 14.2079C4.08275 14.9456 5.01227 15.6543 6.03055 16.2928L9.66213 5.54853L10.6294 5.87491L6.9294 16.8243C7.99635 17.4191 9.14041 17.9308 10.32 18.3162L14.4438 7.29498L15.4009 7.65209L11.3028 18.605C12.3666 18.8837 13.4468 19.0534 14.5173 19.0904L18.8548 9.33209L19.7897 9.74738L15.6402 19.0801C16.8335 19.0125 18.003 18.7647 19.1095 18.2992C21.4784 15.3546 23.0816 12.2954 23.7305 8.85521C24.009 7.37909 22.9233 5.94999 20.7654 5.85779L20.4288 5.84237L20.3091 5.52792C19.847 4.30357 19.2291 3.8822 18.5865 3.75221C17.9439 3.62222 17.2047 3.83616 16.6468 4.15559L15.9324 4.5641L15.8828 3.74379C15.8287 2.84713 15.3172 2.1252 14.5532 1.79549C13.7892 1.46573 12.745 1.50937 11.5557 2.33723L10.9849 2.73371L10.7764 2.07063C10.42 0.934986 9.68226 0.540197 8.87436 0.541017L8.8743 0.541072ZM3.64815 7.30012C1.89066 9.76674 0.610148 13.3822 0.811343 16.6687C2.31744 17.8631 3.79783 18.5113 5.18979 18.6068C5.96389 18.6598 6.71776 18.5474 7.45412 18.2547C5.51573 17.3121 3.77037 16.0927 2.39039 14.7804L2.20757 14.6077L2.23491 14.3564C2.55177 11.3684 2.99758 9.35254 3.64826 7.30012H3.64815Z" fill="url(#paint0_linear_1622_3541)"/>
<defs>
<linearGradient id="paint0_linear_1622_3541" x1="12.282" y1="0.541016" x2="12.282" y2="19.0904" gradientUnits="userSpaceOnUse">
<stop stop-color="#61C8A9"/>
<stop offset="1" stop-color="#1F6550"/>
</linearGradient>
</defs>
</svg>
