<svg width="34" height="69" viewBox="0 0 34 69" fill="none" xmlns="http://www.w3.org/2000/svg">
<path d="M30.463 0.326754C28.9903 0.347208 27.8131 1.55758 27.8336 3.0302C27.854 4.50281 29.0644 5.68003 30.537 5.65957C32.0097 5.63912 33.1869 4.42875 33.1664 2.95613C33.146 1.48351 31.9356 0.306301 30.463 0.326754ZM0.697059 65.6707L5.6852 68.5779L5.70883 62.8044L0.697059 65.6707ZM30.6667 55.7207L31.1667 55.7191L30.6667 55.7207ZM30.5 2.99316L30 2.99474L30.1667 55.7223L30.6667 55.7207L31.1667 55.7191L31 2.99158L30.5 2.99316ZM20.6258 65.7522L20.6279 65.2522L5.19907 65.1891L5.19702 65.6891L5.19498 66.1891L20.6238 66.2522L20.6258 65.7522ZM30.6667 55.7207L30.1667 55.7223C30.1834 60.9959 25.9014 65.2738 20.6279 65.2522L20.6258 65.7522L20.6238 66.2522C26.4525 66.2761 31.1851 61.5479 31.1667 55.7191L30.6667 55.7207Z" fill="#3565A8"/>
</svg>
