<svg width="253" height="413" viewBox="0 0 253 413" fill="none" xmlns="http://www.w3.org/2000/svg">
<path d="M12.7765 298.16C4.53756 307.619 -0.00912912 319.836 2.29776e-05 332.491V413H50.6V332.465L126.5 245.348L202.4 332.465V413H253V332.465C253.003 319.819 248.457 307.613 240.223 298.16L160.351 206.5L240.223 114.814C248.451 105.368 252.997 93.1716 253 80.535V-1.16825e-05H202.4V80.535L126.5 167.652L50.6 80.535V-1.16825e-05H2.29776e-05V80.535C0.00326614 93.1716 4.54914 105.368 12.7765 114.814L92.6486 206.5L12.7765 298.16Z" fill="url(#paint0_linear_192_1408)"/>
<defs>
<linearGradient id="paint0_linear_192_1408" x1="126.213" y1="348.86" x2="93.3239" y2="3.12873" gradientUnits="userSpaceOnUse">
<stop stop-color="#15202B"/>
<stop offset="1" stop-color="#E58220"/>
</linearGradient>
</defs>
</svg>
