<svg width="10" height="6" viewBox="0 0 10 6" fill="none" xmlns="http://www.w3.org/2000/svg">
<path d="M5 5.7459C4.90146 5.74637 4.80382 5.72715 4.71281 5.68937C4.62179 5.65159 4.53924 5.59601 4.47 5.5259L0.999999 2.0259C0.908609 1.88494 0.867188 1.71738 0.882375 1.55008C0.897563 1.38278 0.968479 1.22542 1.08376 1.10322C1.19904 0.981024 1.352 0.901069 1.51814 0.87617C1.68428 0.85127 1.85396 0.882869 2 0.965901L5 3.9659L8 0.965901C8.14604 0.882869 8.31572 0.85127 8.48186 0.87617C8.64799 0.901069 8.80096 0.981024 8.91624 1.10322C9.03152 1.22542 9.10244 1.38278 9.11762 1.55008C9.13281 1.71738 9.09139 1.88494 9 2.0259L5.5 5.5259C5.36749 5.66032 5.18862 5.73902 5 5.7459Z" fill="white"/>
</svg>
