<svg width="28" height="27" viewBox="0 0 28 27" fill="none" xmlns="http://www.w3.org/2000/svg">
<path fill-rule="evenodd" clip-rule="evenodd" d="M13.9973 0.291687C10.589 0.291687 7.77458 2.83327 7.3456 6.12502L6.57259 6.12502C5.41096 6.12498 4.44765 6.12495 3.69164 6.23059C2.89686 6.34164 2.1827 6.58684 1.63959 7.19365C1.09647 7.80045 0.931629 8.53732 0.909027 9.33951C0.887527 10.1026 0.993936 11.06 1.12225 12.2145L1.48146 15.4473C1.74983 17.8628 1.9606 19.7598 2.31859 21.2343C2.68553 22.7456 3.23129 23.9251 4.24448 24.8319C5.25864 25.7396 6.49703 26.1513 8.04798 26.3488C9.56224 26.5417 11.4851 26.5417 13.9349 26.5417H14.0597C16.5096 26.5417 18.4324 26.5417 19.9467 26.3488C21.4976 26.1513 22.736 25.7396 23.7502 24.8319C24.7634 23.9251 25.3091 22.7456 25.6761 21.2343C26.0341 19.7598 26.2448 17.8628 26.5132 15.4474L26.8724 12.2145C27.0007 11.06 27.1071 10.1025 27.0856 9.33951C27.063 8.53732 26.8982 7.80045 26.3551 7.19365C25.812 6.58684 25.0978 6.34164 24.303 6.23059C23.547 6.12495 22.5837 6.12498 21.4221 6.12502L20.6491 6.12502C20.2204 2.83354 17.4057 0.291687 13.9973 0.291687ZM13.9973 2.04169C16.4372 2.04169 18.4654 3.80393 18.8787 6.12502H9.11588C9.52898 3.80417 11.5575 2.04169 13.9973 2.04169ZM2.94356 8.36076C3.09605 8.19038 3.33803 8.04699 3.93381 7.96375C4.5544 7.87704 5.39439 7.87502 6.63716 7.87502H21.3575C22.6003 7.87502 23.4403 7.87704 24.0608 7.96375C24.6566 8.04699 24.8986 8.19038 25.0511 8.36076C25.2036 8.53114 25.3194 8.78747 25.3363 9.3888C25.354 10.0152 25.2632 10.8502 25.126 12.0854L24.7808 15.1918C24.504 17.6831 24.3039 19.4685 23.9755 20.8214C23.6529 22.15 23.231 22.948 22.5831 23.5279C21.9361 24.107 21.0926 24.4387 19.7256 24.6129C18.3346 24.79 16.5232 24.7917 13.9973 24.7917C11.4715 24.7917 9.66001 24.79 8.26911 24.6129C6.90205 24.4387 6.05853 24.107 5.41159 23.5279C4.76369 22.948 4.34177 22.15 4.01918 20.8214C3.69072 19.4685 3.49065 17.6831 3.21383 15.1918L2.86868 12.0854C2.73144 10.8502 2.64068 10.0152 2.65833 9.3888C2.67528 8.78747 2.79106 8.53114 2.94356 8.36076Z" fill="#FAFAFA"/>
<path d="M20.9973 11.6667C20.9973 12.311 20.475 12.8334 19.8306 12.8334C19.1863 12.8334 18.664 12.311 18.664 11.6667C18.664 11.0224 19.1863 10.5 19.8306 10.5C20.475 10.5 20.9973 11.0224 20.9973 11.6667Z" fill="#FAFAFA"/>
<path d="M9.33064 11.6667C9.33064 12.311 8.8083 12.8334 8.16397 12.8334C7.51964 12.8334 6.9973 12.311 6.9973 11.6667C6.9973 11.0224 7.51964 10.5 8.16397 10.5C8.8083 10.5 9.33064 11.0224 9.33064 11.6667Z" fill="#FAFAFA"/>
</svg>
