<svg width="20" height="20" viewBox="0 0 20 20" fill="none" xmlns="http://www.w3.org/2000/svg">
<path d="M7.367 0.25C6.275 0.25 5.409 0.25 4.712 0.307C3.998 0.365 3.395 0.487 2.844 0.767C1.94999 1.22267 1.22324 1.94977 0.768 2.844C0.487 3.394 0.365 3.998 0.307 4.712C0.25 5.409 0.25 6.275 0.25 7.367V12.633C0.25 13.725 0.25 14.591 0.307 15.288C0.365 16.002 0.487 16.605 0.767 17.157C1.22284 18.0506 1.94992 18.777 2.844 19.232C3.394 19.513 3.998 19.635 4.712 19.693C5.409 19.75 6.275 19.75 7.367 19.75H12.633C13.725 19.75 14.591 19.75 15.288 19.693C16.002 19.635 16.605 19.513 17.157 19.233C18.0505 18.7774 18.7768 18.0507 19.232 17.157C19.513 16.605 19.635 16.002 19.693 15.288C19.75 14.591 19.75 13.725 19.75 12.633V7.367C19.75 6.275 19.75 5.409 19.693 4.712C19.635 3.998 19.513 3.395 19.233 2.844C18.7776 1.95014 18.0509 1.22341 17.157 0.768C16.605 0.487 16.002 0.365 15.288 0.307C14.591 0.25 13.725 0.25 12.633 0.25H7.367ZM14.767 10.978C14.9051 11.121 14.9808 11.313 14.9774 11.5117C14.974 11.7105 14.8919 11.8998 14.749 12.038C14.5775 12.2046 14.3987 12.3634 14.213 12.514L14.431 12.959C14.6839 13.4933 14.7163 14.1057 14.5213 14.6637C14.3263 15.2218 13.9195 15.6806 13.3888 15.9412C12.8582 16.2017 12.2464 16.2429 11.6856 16.0559C11.1248 15.869 10.6601 15.4688 10.392 14.942L10.119 14.385C8.86052 14.6301 7.56394 14.6004 6.318 14.298C6.12759 14.2474 5.96474 14.1239 5.86464 13.9542C5.76453 13.7845 5.73522 13.5823 5.78304 13.3911C5.83085 13.2 5.95195 13.0354 6.12017 12.9328C6.28838 12.8302 6.4902 12.798 6.682 12.843C7.812 13.126 9.111 13.13 10.428 12.777C11.745 12.424 12.868 11.772 13.706 10.961C13.8489 10.8228 14.0408 10.7469 14.2395 10.7501C14.4383 10.7533 14.6286 10.8353 14.767 10.978ZM11.738 14.281L11.591 13.982C12.0717 13.8087 12.527 13.602 12.957 13.362L13.084 13.62C13.1635 13.7974 13.171 13.9988 13.1049 14.1816C13.0389 14.3645 12.9044 14.5145 12.7298 14.6001C12.5552 14.6857 12.3542 14.7002 12.1692 14.6405C11.9842 14.5808 11.8296 14.4525 11.738 14.281ZM7.329 8L7.432 8.489C7.45497 8.58627 7.45827 8.68715 7.4417 8.78571C7.42513 8.88427 7.38903 8.97852 7.33552 9.06293C7.28201 9.14734 7.21217 9.22021 7.1301 9.27724C7.04803 9.33428 6.95539 9.37434 6.85762 9.39507C6.75985 9.41579 6.65892 9.41677 6.56077 9.39794C6.46262 9.37911 6.36922 9.34085 6.28606 9.28541C6.2029 9.22998 6.13166 9.15848 6.07653 9.07512C6.02139 8.99176 5.98347 8.89822 5.965 8.8L5.861 8.311C5.83803 8.21373 5.83473 8.11285 5.8513 8.01429C5.86787 7.91573 5.90397 7.82148 5.95748 7.73707C6.01099 7.65266 6.08083 7.57979 6.1629 7.52276C6.24497 7.46572 6.33761 7.42566 6.43538 7.40493C6.53315 7.38421 6.63408 7.38323 6.73223 7.40206C6.83039 7.42089 6.92378 7.45915 7.00694 7.51459C7.0901 7.57002 7.16134 7.64152 7.21647 7.72488C7.27161 7.80824 7.30953 7.90178 7.328 8M11.328 6.382C11.4244 6.36146 11.5239 6.36012 11.6208 6.37806C11.7177 6.39599 11.8101 6.43286 11.8928 6.48654C11.9755 6.54022 12.0467 6.60966 12.1025 6.6909C12.1583 6.77214 12.1976 6.86358 12.218 6.96L12.322 7.449C12.3442 7.54598 12.347 7.64641 12.33 7.74445C12.3131 7.84248 12.2768 7.93617 12.2232 8.02005C12.1697 8.10392 12.1001 8.17631 12.0183 8.233C11.9365 8.28969 11.8443 8.32954 11.747 8.35024C11.6497 8.37094 11.5492 8.37206 11.4515 8.35355C11.3537 8.33505 11.2606 8.29727 11.1776 8.24243C11.0946 8.1876 11.0233 8.11679 10.9679 8.03413C10.9125 7.95148 10.8741 7.85863 10.855 7.761L10.751 7.271C10.7098 7.07647 10.7476 6.87354 10.856 6.70684C10.9643 6.54013 11.1345 6.42329 11.329 6.382" fill="url(#paint0_linear_1622_3635)"/>
<defs>
<linearGradient id="paint0_linear_1622_3635" x1="10" y1="0.25" x2="10" y2="19.75" gradientUnits="userSpaceOnUse">
<stop stop-color="#C434DB"/>
<stop offset="1" stop-color="#691C75"/>
</linearGradient>
</defs>
</svg>
