<svg width="15" height="16" viewBox="0 0 15 16" fill="none" xmlns="http://www.w3.org/2000/svg">
<g clip-path="url(#clip0_427_3076)">
<path opacity="0.2" fill-rule="evenodd" clip-rule="evenodd" d="M7.78966 15.5C11.7727 15.5 15.0012 12.2715 15.0012 8.28844C15.0012 4.30537 11.7727 1.0769 7.78966 1.0769C3.80659 1.0769 0.578125 4.30537 0.578125 8.28844C0.578125 12.2715 3.80659 15.5 7.78966 15.5ZM7.78966 14.3461C11.1352 14.3461 13.8474 11.634 13.8474 8.28844C13.8474 4.94287 11.1352 2.23075 7.78966 2.23075C4.44409 2.23075 1.73197 4.94287 1.73197 8.28844C1.73197 11.634 4.44409 14.3461 7.78966 14.3461Z" fill="white"/>
<g opacity="0.2">
<path fill-rule="evenodd" clip-rule="evenodd" d="M8.65317 5.03C8.59026 4.98775 8.51963 4.9583 8.44534 4.94334C8.37104 4.92839 8.29452 4.92822 8.22016 4.94284C8.14579 4.95747 8.07504 4.98661 8.01194 5.02859C7.94884 5.07056 7.89463 5.12457 7.8524 5.1875L6.4049 7.34289L5.44721 6.69962L6.89471 4.54423C7.15062 4.16317 7.54743 3.89937 7.99784 3.81086C8.44825 3.72236 8.91537 3.81641 9.29644 4.07231L11.2118 5.35885C11.4006 5.48552 11.5625 5.64812 11.6884 5.83738C11.8143 6.02663 11.9016 6.23883 11.9455 6.46185C11.9894 6.68487 11.9889 6.91436 11.9441 7.13719C11.8993 7.36003 11.811 7.57186 11.6843 7.76058L10.2362 9.91539L9.27856 9.27269L10.7255 7.11731C10.7677 7.0544 10.7972 6.98377 10.8121 6.90947C10.8271 6.83518 10.8273 6.75866 10.8126 6.68429C10.798 6.60993 10.7689 6.53918 10.7269 6.47608C10.6849 6.41298 10.6309 6.35876 10.568 6.31654L8.65317 5.03ZM3.36336 7.73289C3.40559 7.66995 3.4598 7.61595 3.5229 7.57397C3.586 7.53199 3.65675 7.50286 3.73112 7.48823C3.80548 7.4736 3.882 7.47377 3.9563 7.48873C4.03059 7.50368 4.10122 7.53313 4.16413 7.57539L9.91202 11.435C9.97632 11.4766 10.0317 11.5306 10.0749 11.5939C10.1181 11.6571 10.1483 11.7283 10.1637 11.8033C10.1791 11.8784 10.1794 11.9557 10.1646 12.0309C10.1498 12.106 10.1202 12.1775 10.0775 12.241C10.0348 12.3046 9.97986 12.3591 9.91589 12.4012C9.85192 12.4433 9.7802 12.4723 9.70492 12.4864C9.62964 12.5005 9.55229 12.4995 9.47741 12.4834C9.40252 12.4673 9.33159 12.4365 9.26875 12.3927L3.52086 8.53308C3.39392 8.44781 3.30602 8.31563 3.27649 8.16558C3.24695 8.01554 3.2782 7.8599 3.36336 7.73289Z" fill="white"/>
<path fill-rule="evenodd" clip-rule="evenodd" d="M5.55955 7.63078C5.32301 7.66136 5.10609 7.71155 4.98551 7.77213C4.8684 7.83155 4.70282 7.97175 4.54128 8.13732C4.46036 8.2207 4.38261 8.30711 4.30821 8.39636L4.29609 8.41136L4.29378 8.41425C4.19838 8.5339 4.05936 8.61075 3.90729 8.6279C3.75522 8.64505 3.60257 8.60109 3.48292 8.50569C3.36326 8.41029 3.28641 8.27126 3.26926 8.11919C3.25211 7.96713 3.29607 7.81448 3.39148 7.69482L3.39263 7.69367L3.39436 7.69136L3.40013 7.68444L3.41859 7.66136L3.48551 7.58232C3.55948 7.49617 3.63625 7.41248 3.71571 7.33136C3.89109 7.15136 4.16744 6.8929 4.46455 6.7429C4.77032 6.58713 5.15398 6.51963 5.41128 6.48617C5.56242 6.4667 5.71427 6.45323 5.86648 6.44578L5.89705 6.44521H5.90628L5.90917 6.44463H5.91032L5.92532 6.99386L5.9109 6.44463C6.06391 6.44058 6.21226 6.49747 6.32332 6.6028C6.43438 6.70812 6.49906 6.85326 6.50311 7.00627C6.50717 7.15927 6.45027 7.30763 6.34494 7.41869C6.23962 7.52975 6.09449 7.59442 5.94148 7.59848H5.91725L5.83648 7.60367C5.74392 7.60992 5.65157 7.61896 5.55955 7.63078ZM9.33494 10.1652C9.39551 10.396 9.43186 10.6158 9.4209 10.7502C9.41051 10.8812 9.34301 11.0871 9.25071 11.3C9.20429 11.4065 9.15387 11.5112 9.09955 11.6139L9.09032 11.6306L9.08859 11.6335C9.01392 11.7671 8.99538 11.9248 9.03703 12.0721C9.07869 12.2193 9.17713 12.344 9.31071 12.4187C9.44428 12.4933 9.60205 12.5119 9.74931 12.4702C9.89656 12.4286 10.0212 12.3301 10.0959 12.1966L10.0965 12.1954L10.0982 12.1925L10.1022 12.185L10.1167 12.1585C10.1866 12.0282 10.2508 11.895 10.3094 11.7592C10.4097 11.5285 10.5442 11.1748 10.5713 10.8425C10.5984 10.501 10.5165 10.1202 10.4501 9.86982C10.4107 9.72251 10.3655 9.57682 10.3146 9.43309L10.3042 9.40425L10.3013 9.39559L10.3001 9.39271L10.2996 9.39155C10.2431 9.25164 10.1341 9.13939 9.99593 9.07887C9.85773 9.01835 9.70132 9.01438 9.56023 9.0678C9.41913 9.12122 9.30458 9.22778 9.24111 9.36465C9.17765 9.50152 9.17032 9.65781 9.22071 9.80002L9.76013 9.59578C9.22071 9.80001 9.22013 9.79944 9.22013 9.79944L9.22186 9.80348L9.22821 9.82194C9.23475 9.83963 9.24359 9.86521 9.25475 9.89867C9.27725 9.96559 9.30667 10.0591 9.33494 10.1652ZM6.71628 9.98405C6.77922 10.0263 6.83322 10.0805 6.8752 10.1436C6.91718 10.2067 6.94632 10.2774 6.96094 10.3518C6.97557 10.4262 6.9754 10.5027 6.96044 10.577C6.94549 10.6513 6.91604 10.7219 6.87378 10.7848L5.90859 12.2214C5.82209 12.3455 5.69029 12.4307 5.54158 12.4586C5.39288 12.4864 5.23917 12.4548 5.11358 12.3704C4.98798 12.2861 4.90055 12.1558 4.87012 12.0075C4.8397 11.8593 4.8687 11.7051 4.9509 11.5781L5.91551 10.1416C5.95774 10.0786 6.01195 10.0246 6.07505 9.98264C6.13815 9.94066 6.2089 9.91152 6.28327 9.8969C6.35763 9.88227 6.43415 9.88244 6.50845 9.89739C6.58275 9.91235 6.65337 9.9418 6.71628 9.98405Z" fill="white"/>
<path fill-rule="evenodd" clip-rule="evenodd" d="M11.5255 6.9598L7.69358 4.38672L5.76377 7.26153L5.28493 6.9396L4.32031 8.37614L4.79916 8.69807L8.63108 11.2711L9.10993 11.5925L10.0745 10.1559L9.5957 9.83403L11.5255 6.9598Z" fill="white"/>
</g>
<path fill-rule="evenodd" clip-rule="evenodd" d="M7.94301 3.92231C7.84862 3.85893 7.74267 3.81478 7.63121 3.79237C7.51975 3.76996 7.40497 3.76973 7.29342 3.7917C7.18188 3.81366 7.07575 3.85739 6.98111 3.92039C6.88647 3.98339 6.80517 4.06442 6.74186 4.15884L5.29493 6.31307L4.81609 5.99173L6.26301 3.83634C6.36859 3.67902 6.50414 3.54405 6.6619 3.43913C6.81966 3.33421 6.99655 3.2614 7.18246 3.22486C7.36836 3.18832 7.55965 3.18877 7.74538 3.22618C7.93112 3.26359 8.10766 3.33722 8.26493 3.44288L10.1803 4.72942C10.3376 4.835 10.4726 4.97055 10.5775 5.12831C10.6825 5.28607 10.7553 5.46296 10.7918 5.64887C10.8283 5.83477 10.8279 6.02606 10.7905 6.2118C10.7531 6.39753 10.6794 6.57408 10.5738 6.73134L9.12686 8.88615L8.64801 8.56481L10.0949 6.40942C10.1583 6.31503 10.2025 6.20908 10.2249 6.09762C10.2473 5.98616 10.2475 5.87138 10.2255 5.75983C10.2036 5.64829 10.1598 5.54216 10.0968 5.44752C10.0339 5.35288 9.95282 5.27158 9.85839 5.20827L7.94301 3.92231ZM2.73224 7.025C2.75337 6.99355 2.7805 6.96658 2.81206 6.94562C2.84362 6.92465 2.879 6.91011 2.91618 6.90283C2.95336 6.89554 2.99161 6.89565 3.02875 6.90315C3.06589 6.91065 3.10119 6.92539 3.13263 6.94654L8.88051 10.8062C8.94401 10.8488 8.98795 10.915 9.00266 10.9901C9.01738 11.0652 9.00166 11.143 8.95897 11.2065C8.91628 11.27 8.85012 11.314 8.77503 11.3287C8.69994 11.3434 8.62209 11.3277 8.55859 11.285L2.81128 7.42538C2.74784 7.3828 2.70389 7.31678 2.68907 7.24182C2.67425 7.16687 2.68978 7.08852 2.73224 7.025Z" fill="white"/>
<path fill-rule="evenodd" clip-rule="evenodd" d="M4.65558 6.47633C4.41327 6.50748 4.15481 6.56229 3.98808 6.64652C3.82596 6.72844 3.63269 6.89806 3.46769 7.06767C3.38092 7.15659 3.29778 7.24897 3.21846 7.3446L3.20462 7.36133L3.20115 7.36537V7.36594L2.975 7.18594M2.975 7.18594L2.75 7.00652V7.00537L2.75173 7.00364L2.75635 6.99787L2.77365 6.97652L2.83654 6.90267C2.88962 6.84094 2.96519 6.75671 3.05462 6.66498C3.22712 6.48787 3.47577 6.25941 3.72788 6.13191C3.9875 6.00037 4.32904 5.93691 4.58115 5.90402C4.72422 5.88535 4.86799 5.87264 5.01212 5.86594L5.03981 5.86479H5.05019C5.05077 5.86479 5.05135 5.86479 5.05885 6.15325L5.05077 5.86479C5.08865 5.86377 5.12636 5.87022 5.16175 5.88377C5.19714 5.89732 5.22951 5.91771 5.25702 5.94377C5.28453 5.96983 5.30664 6.00106 5.32208 6.03567C5.33752 6.07027 5.346 6.10758 5.34702 6.14546C5.34804 6.18334 5.34159 6.22106 5.32804 6.25645C5.31449 6.29183 5.2941 6.32421 5.26804 6.35172C5.24198 6.37923 5.21075 6.40133 5.17614 6.41678C5.14154 6.43222 5.10423 6.44069 5.06635 6.44171H5.06L5.03692 6.44229L4.95038 6.44748C4.87538 6.4521 4.77154 6.46133 4.65558 6.47633M8.74654 9.22306C8.80885 9.45902 8.85615 9.71921 8.84115 9.90498C8.82673 10.0861 8.74308 10.329 8.64846 10.5465C8.59913 10.6602 8.54524 10.7718 8.48692 10.8811L8.47596 10.9008L8.47365 10.9054V10.9065L8.72519 11.0473M8.72519 11.0473L8.97673 11.1875L8.97731 11.1869L8.97846 11.1846L8.98192 11.1783L8.99519 11.154L9.04019 11.0681C9.07712 10.9954 9.12673 10.8938 9.1775 10.7761C9.27558 10.5494 9.39385 10.2333 9.41635 9.95114C9.43942 9.66152 9.36904 9.32114 9.30385 9.07537C9.26691 8.93596 9.22418 8.79814 9.17577 8.66229L9.16654 8.63575L9.16365 8.62825L9.16308 8.62652V8.62594C9.16308 8.62594 9.1625 8.62537 8.8925 8.72748L9.16308 8.62594C9.13428 8.55691 9.07922 8.50176 9.01054 8.47213C8.94186 8.44249 8.86436 8.4407 8.79438 8.46712C8.7244 8.49354 8.66742 8.54611 8.63546 8.61373C8.6035 8.68136 8.59906 8.75876 8.62308 8.8296V8.83075L8.62538 8.83537L8.63289 8.85671L8.66173 8.93921C8.68481 9.01018 8.71712 9.10998 8.74654 9.22306M6.00962 8.87633C6.04111 8.89742 6.06813 8.92451 6.08915 8.95605C6.11017 8.98759 6.12476 9.02296 6.1321 9.06014C6.13944 9.09733 6.13939 9.13559 6.13193 9.17275C6.12447 9.20991 6.10977 9.24524 6.08865 9.27671L4.80212 11.1921C4.7585 11.2532 4.69279 11.2948 4.61896 11.3083C4.54512 11.3217 4.46896 11.3058 4.40664 11.264C4.34432 11.2221 4.30076 11.1577 4.28519 11.0843C4.26963 11.0109 4.28329 10.9343 4.32327 10.8708L5.60981 8.95537C5.65239 8.89193 5.71841 8.84798 5.79337 8.83316C5.86832 8.81834 5.94609 8.83387 6.00962 8.87633Z" fill="white"/>
<path fill-rule="evenodd" clip-rule="evenodd" d="M7.5006 14.6346C11.1646 14.6346 14.1352 11.664 14.1352 7.99999C14.1352 4.33595 11.1646 1.36538 7.5006 1.36538C3.83656 1.36538 0.865986 4.33595 0.865986 7.99999C0.865986 11.664 3.83656 14.6346 7.5006 14.6346ZM7.5006 15.2115C11.4837 15.2115 14.7121 11.9831 14.7121 7.99999C14.7121 4.01691 11.4837 0.788452 7.5006 0.788452C3.51752 0.788452 0.289062 4.01691 0.289062 7.99999C0.289062 11.9831 3.51752 15.2115 7.5006 15.2115Z" fill="white"/>
</g>
<defs>
<clipPath id="clip0_427_3076">
<rect width="15" height="15" fill="white" transform="translate(0 0.5)"/>
</clipPath>
</defs>
</svg>
