<svg width="20" height="20" viewBox="0 0 20 20" fill="none" xmlns="http://www.w3.org/2000/svg">
<path d="M11.3199 10L19.5999 0.400024L6.3999 10H8.7999L0.399902 19.6L13.5999 10H11.3199ZM6.1599 11.2H2.6799L5.6799 9.04002L14.6799 2.44002L9.9999 0.400024L1.5999 4.00002V7.60002C1.5999 10 2.1999 12.28 3.3999 14.32L6.1599 11.2ZM13.8399 8.80002H17.1999L14.3199 10.96L5.7999 17.2C6.9999 18.28 8.4399 19.12 9.9999 19.6C15.0399 17.8 18.5199 13 18.3999 7.60002V4.00002L18.1599 3.88002L13.8399 8.80002Z" fill="url(#paint0_linear_1622_3545)"/>
<defs>
<linearGradient id="paint0_linear_1622_3545" x1="9.9999" y1="0.400024" x2="9.9999" y2="19.6" gradientUnits="userSpaceOnUse">
<stop stop-color="#FF0004"/>
<stop offset="1" stop-color="#990003"/>
</linearGradient>
</defs>
</svg>
