<svg width="7" height="12" viewBox="0 0 7 12" fill="none" xmlns="http://www.w3.org/2000/svg">
<path fill-rule="evenodd" clip-rule="evenodd" d="M0.565224 6.55978C0.416809 6.41132 0.333435 6.20999 0.333435 6.00007C0.333435 5.79015 0.416809 5.58882 0.565224 5.44036L5.04368 0.961902C5.11671 0.886289 5.20407 0.825978 5.30065 0.784488C5.39724 0.742997 5.50112 0.721158 5.60624 0.720245C5.71136 0.719331 5.8156 0.739362 5.9129 0.779168C6.01019 0.818973 6.09858 0.877757 6.17291 0.952089C6.24724 1.02642 6.30603 1.11481 6.34583 1.2121C6.38564 1.3094 6.40567 1.41364 6.40476 1.51876C6.40384 1.62388 6.382 1.72776 6.34051 1.82435C6.29902 1.92093 6.23871 2.00829 6.1631 2.08132L2.24435 6.00007L6.1631 9.91882C6.30731 10.0681 6.3871 10.2681 6.3853 10.4757C6.3835 10.6832 6.30024 10.8818 6.15346 11.0286C6.00667 11.1754 5.80811 11.2586 5.60054 11.2604C5.39297 11.2622 5.19299 11.1824 5.04368 11.0382L0.565224 6.55978Z" fill="white"/>
</svg>
