<svg width="13" height="14" viewBox="0 0 13 14" fill="none" xmlns="http://www.w3.org/2000/svg">
<path d="M12.0906 2.74263C12.4933 2.3277 12.4933 1.65496 12.0906 1.24003C11.6879 0.8251 11.0349 0.8251 10.6322 1.24003L6.50004 5.4974L2.36789 1.24003C1.96516 0.825101 1.31221 0.8251 0.909481 1.24003C0.506753 1.65496 0.506753 2.3277 0.909481 2.74263L5.04163 7L0.909468 11.2574C0.50674 11.6723 0.50674 12.345 0.909468 12.76C1.3122 13.1749 1.96515 13.1749 2.36788 12.76L6.50004 8.5026L10.6322 12.76C11.0349 13.1749 11.6879 13.1749 12.0906 12.76C12.4933 12.3451 12.4933 11.6723 12.0906 11.2574L7.95844 7L12.0906 2.74263Z" fill="white"/>
</svg>
