<svg width="441" height="720" viewBox="0 0 441 720" fill="none" xmlns="http://www.w3.org/2000/svg">
<path d="M418.729 200.205C433.091 183.714 441.016 162.416 441 140.355V0H352.8V140.4L220.5 292.275L88.2 140.4V0H2.50402e-06V140.4C-0.00514282 162.445 7.91945 183.726 22.2705 200.205L161.494 360L22.2705 519.84C7.92954 536.307 0.0056556 557.57 2.50402e-06 579.6V720H88.2V579.6L220.5 427.725L352.8 579.6V720H441V579.6C440.994 557.57 433.07 536.307 418.729 519.84L279.506 360L418.729 200.205Z" fill="url(#paint0_linear_378_4303)"/>
<defs>
<linearGradient id="paint0_linear_378_4303" x1="207.5" y1="122.682" x2="220.15" y2="579.55" gradientUnits="userSpaceOnUse">
<stop stop-color="#15202B"/>
<stop offset="1" stop-color="#264FB5"/>
</linearGradient>
</defs>
</svg>
