<svg width="112" height="169" viewBox="0 0 112 169" fill="none" xmlns="http://www.w3.org/2000/svg">
<path d="M106.344 46.9926C109.991 43.1219 112.004 38.1226 112 32.9444V0H89.6V32.955L56 68.6034L22.4 32.955V0H6.35941e-07V32.955C-0.00130611 38.1296 2.01129 43.1246 5.656 46.9926L41.0144 84.5L5.656 122.018C2.01385 125.883 0.00143634 130.874 6.35941e-07 136.045V169H22.4V136.045L56 100.397L89.6 136.045V169H112V136.045C111.999 130.874 109.986 125.883 106.344 122.018L70.9856 84.5L106.344 46.9926Z" fill="url(#paint0_linear_377_2400)"/>
<defs>
<linearGradient id="paint0_linear_377_2400" x1="52.6984" y1="28.7961" x2="55.4429" y2="136.045" gradientUnits="userSpaceOnUse">
<stop stop-color="#15202B"/>
<stop offset="1" stop-color="#0544AA"/>
</linearGradient>
</defs>
</svg>
