<svg width="22" height="23" viewBox="0 0 22 23" fill="none" xmlns="http://www.w3.org/2000/svg">
<path d="M2.08718 5.30975C2.11133 5.22269 2.1524 5.14125 2.20805 5.07007C2.2637 4.99889 2.33284 4.93939 2.4115 4.89495C2.49016 4.85051 2.57681 4.82201 2.6665 4.81108C2.75618 4.80015 2.84714 4.80701 2.93418 4.83125L4.49526 5.26392C4.90887 5.37653 5.2863 5.59425 5.59085 5.89591C5.8954 6.19757 6.11671 6.57291 6.23326 6.98542L8.20501 14.1226L8.34984 14.624C8.93445 14.8395 9.42709 15.2496 9.74501 15.7854L10.0292 15.6974L18.16 13.5845C18.2474 13.5618 18.3384 13.5564 18.4279 13.5689C18.5173 13.5813 18.6035 13.6112 18.6813 13.6569C18.7592 13.7026 18.8273 13.7632 18.8818 13.8353C18.9363 13.9073 18.976 13.9894 18.9988 14.0768C19.0215 14.1641 19.0268 14.2552 19.0144 14.3446C19.002 14.4341 18.9721 14.5202 18.9263 14.5981C18.8806 14.676 18.82 14.7441 18.748 14.7985C18.676 14.853 18.5939 14.8928 18.5065 14.9155L10.4059 17.0202L10.1034 17.1137C10.0979 18.2778 9.29401 19.343 8.0776 19.6583C6.6201 20.0378 5.12134 19.1982 4.73084 17.7847C4.34034 16.3712 5.20568 14.9164 6.66318 14.5378C6.7359 14.5195 6.80832 14.5036 6.88043 14.4902L4.90776 7.35117C4.85442 7.16788 4.75467 7.00147 4.61817 6.86802C4.48167 6.73457 4.31304 6.63861 4.12859 6.58942L2.56659 6.15584C2.47955 6.13178 2.3981 6.09081 2.3269 6.03526C2.25569 5.97972 2.19613 5.91069 2.15161 5.83211C2.10709 5.75354 2.07848 5.66697 2.06743 5.57734C2.05637 5.48772 2.06308 5.39679 2.08718 5.30975Z" fill="white"/>
<path opacity="0.5" d="M8.76705 8.50246L9.23914 10.2102C9.68372 11.819 9.90555 12.6238 10.5591 12.9895C11.2127 13.3562 12.0423 13.1399 13.7015 12.709L15.4615 12.2507C17.1206 11.8199 17.9502 11.6045 18.3279 10.971C18.7056 10.3367 18.4837 9.53187 18.0382 7.92312L17.5671 6.21629C17.1225 4.60662 16.8997 3.80179 16.2471 3.43604C15.5926 3.06937 14.763 3.28571 13.1038 3.71746L11.3438 4.17396C9.68464 4.60479 8.85505 4.82112 8.4783 5.45546C8.10064 6.08887 8.32247 6.89371 8.76705 8.50246Z" fill="white"/>
</svg>
