<svg width="14" height="14" viewBox="0 0 14 14" fill="none" xmlns="http://www.w3.org/2000/svg">
<g id="flowbite:download-solid">
<g id="Group">
<path id="Vector" fill-rule="evenodd" clip-rule="evenodd" d="M7.58335 6.50417V2.33333C7.58335 2.17862 7.52189 2.03025 7.4125 1.92085C7.3031 1.81146 7.15473 1.75 7.00002 1.75C6.84531 1.75 6.69693 1.81146 6.58754 1.92085C6.47814 2.03025 6.41668 2.17862 6.41668 2.33333V6.50417L5.12168 4.88483C5.07475 4.82236 5.01575 4.76995 4.94817 4.73072C4.8806 4.69149 4.80583 4.66624 4.7283 4.65646C4.65078 4.64668 4.57208 4.65257 4.49688 4.67379C4.42168 4.69501 4.35151 4.73112 4.29053 4.77998C4.22956 4.82884 4.17902 4.88945 4.14191 4.95822C4.10481 5.02699 4.0819 5.10251 4.07455 5.1803C4.0672 5.25809 4.07554 5.33656 4.0991 5.41107C4.12266 5.48557 4.16094 5.55458 4.21168 5.614L6.54502 8.53067C6.59968 8.5988 6.66894 8.65378 6.74769 8.69156C6.82644 8.72935 6.91267 8.74896 7.00002 8.74896C7.08736 8.74896 7.17359 8.72935 7.25234 8.69156C7.3311 8.65378 7.40036 8.5988 7.45502 8.53067L9.78835 5.614C9.83909 5.55458 9.87738 5.48557 9.90093 5.41107C9.92449 5.33656 9.93284 5.25809 9.92548 5.1803C9.91813 5.10251 9.89522 5.02699 9.85812 4.95822C9.82102 4.88945 9.77048 4.82884 9.7095 4.77998C9.64852 4.73112 9.57835 4.69501 9.50315 4.67379C9.42795 4.65257 9.34925 4.64668 9.27173 4.65646C9.19421 4.66624 9.11944 4.69149 9.05186 4.73072C8.98429 4.76995 8.92528 4.82236 8.87835 4.88483L7.58335 6.50417Z" fill="white"/>
<path id="Vector_2" fill-rule="evenodd" clip-rule="evenodd" d="M5.63325 9.25984L4.29217 7.58334H2.91667C2.60725 7.58334 2.3105 7.70626 2.09171 7.92505C1.87292 8.14384 1.75 8.44059 1.75 8.75001V11.0833C1.75 11.3928 1.87292 11.6895 2.09171 11.9083C2.3105 12.1271 2.60725 12.25 2.91667 12.25H11.0833C11.3928 12.25 11.6895 12.1271 11.9083 11.9083C12.1271 11.6895 12.25 11.3928 12.25 11.0833V8.75001C12.25 8.44059 12.1271 8.14384 11.9083 7.92505C11.6895 7.70626 11.3928 7.58334 11.0833 7.58334H9.70783L8.36617 9.25984C8.20222 9.46476 7.99428 9.63018 7.75774 9.74385C7.52121 9.85753 7.26214 9.91655 6.99971 9.91655C6.73728 9.91655 6.47821 9.85753 6.24167 9.74385C6.00514 9.63018 5.7972 9.46476 5.63325 9.25984ZM9.91667 9.33334C9.76196 9.33334 9.61358 9.3948 9.50419 9.5042C9.39479 9.61359 9.33333 9.76197 9.33333 9.91668C9.33333 10.0714 9.39479 10.2198 9.50419 10.3292C9.61358 10.4386 9.76196 10.5 9.91667 10.5H9.9225C10.0772 10.5 10.2256 10.4386 10.335 10.3292C10.4444 10.2198 10.5058 10.0714 10.5058 9.91668C10.5058 9.76197 10.4444 9.61359 10.335 9.5042C10.2256 9.3948 10.0772 9.33334 9.9225 9.33334H9.91667Z" fill="white"/>
</g>
</g>
</svg>
