<svg width="22" height="23" viewBox="0 0 22 23" fill="none" xmlns="http://www.w3.org/2000/svg">
<path d="M2.75 17C2.75 17.4862 2.94315 17.9525 3.28697 18.2963C3.63079 18.6401 4.0971 18.8333 4.58333 18.8333C5.06956 18.8333 5.53588 18.6401 5.8797 18.2963C6.22351 17.9525 6.41667 17.4862 6.41667 17C6.41667 16.5137 6.22351 16.0474 5.8797 15.7036C5.53588 15.3598 5.06956 15.1666 4.58333 15.1666C4.0971 15.1666 3.63079 15.3598 3.28697 15.7036C2.94315 16.0474 2.75 16.5137 2.75 17ZM15.5833 5.99996C15.5833 6.48619 15.7765 6.95251 16.1203 7.29632C16.4641 7.64014 16.9304 7.83329 17.4167 7.83329C17.9029 7.83329 18.3692 7.64014 18.713 7.29632C19.0568 6.95251 19.25 6.48619 19.25 5.99996C19.25 5.51373 19.0568 5.04741 18.713 4.7036C18.3692 4.35978 17.9029 4.16663 17.4167 4.16663C16.9304 4.16663 16.4641 4.35978 16.1203 4.7036C15.7765 5.04741 15.5833 5.51373 15.5833 5.99996Z" stroke="white" stroke-width="1.83333" stroke-linecap="round" stroke-linejoin="round"/>
<path d="M17.4166 7.83333V12.4167C17.4166 13.6322 16.9337 14.798 16.0742 15.6576C15.2146 16.5171 14.0488 17 12.8333 17H10.0833M10.0833 17L12.8333 14.25M10.0833 17L12.8333 19.75M4.58325 15.1667V10.5833C4.58325 9.36776 5.06614 8.20197 5.92568 7.34243C6.78522 6.48289 7.95101 6 9.16659 6H11.9166M11.9166 6L9.16659 3.25M11.9166 6L9.16659 8.75" stroke="white" stroke-width="1.83333" stroke-linecap="round" stroke-linejoin="round"/>
</svg>
