<svg width="17" height="13" viewBox="0 0 17 13" fill="none" xmlns="http://www.w3.org/2000/svg">
<path d="M6.37435 1.15912C7.06146 0.940821 7.77839 0.830891 8.49935 0.83329C11.4616 0.83329 13.4775 2.60412 14.6796 4.16529C15.2816 4.94871 15.5827 5.339 15.5827 6.49996C15.5827 7.66162 15.2816 8.05191 14.6796 8.83462C13.4775 10.3958 11.4616 12.1666 8.49935 12.1666C5.5371 12.1666 3.52118 10.3958 2.31914 8.83462C1.71706 8.05262 1.41602 7.66092 1.41602 6.49996C1.41602 5.33829 1.71706 4.948 2.31914 4.16529C2.68641 3.68562 3.09529 3.2393 3.54102 2.8315" stroke="white" stroke-width="1.0625" stroke-linecap="round"/>
<path d="M10.625 6.5C10.625 7.06358 10.4011 7.60409 10.0026 8.0026C9.60409 8.40112 9.06358 8.625 8.5 8.625C7.93641 8.625 7.39591 8.40112 6.9974 8.0026C6.59888 7.60409 6.375 7.06358 6.375 6.5C6.375 5.93641 6.59888 5.39591 6.9974 4.9974C7.39591 4.59888 7.93641 4.375 8.5 4.375C9.06358 4.375 9.60409 4.59888 10.0026 4.9974C10.4011 5.39591 10.625 5.93641 10.625 6.5Z" stroke="white" stroke-width="1.0625"/>
</svg>
