<svg width="24" height="24" viewBox="0 0 24 24" fill="none" xmlns="http://www.w3.org/2000/svg">
<path d="M20.4409 11.6235C21.2996 10.9575 22.0222 10.0459 22.2034 8.9775C22.7108 8.89538 23.25 8.55975 23.25 7.5075C23.25 6.57675 22.9147 6.29887 22.6327 6.231C22.6031 2.41725 21.7028 0.790875 17.6681 0.7515C13.5983 0.711375 12.5269 2.40788 12.4882 6.27675C12.2422 6.39713 12 6.7155 12 7.5075C12 8.56013 12.5389 8.89538 13.0459 8.97787C13.2251 10.0339 13.9331 10.9361 14.7787 11.6003C13.098 11.8279 12 12.1399 12 13.0406V6.252C12 1.60275 8.95463 1.68975 8.95463 1.68975C8.95463 1.68975 8.72588 0.75 6.37575 0.75C2.736 0.75 0.75 3.1245 0.75 6.252V23.25H23.25V13.0406C23.25 12.3428 22.0564 11.8706 20.4409 11.6235ZM13.3845 8.78475L13.3661 8.63287L13.2176 8.62125C12.6341 8.57662 12.3626 8.22263 12.3626 7.5075C12.3626 6.89513 12.5051 6.58538 12.786 6.58538C12.8028 6.58538 12.8199 6.58612 12.8374 6.58762C12.8741 6.81037 12.918 6.97163 12.9713 7.07925C13.1018 7.341 13.3489 7.48425 13.377 7.5L13.6909 7.67512L13.6429 7.3095C13.606 6.96845 13.5939 6.62518 13.6065 6.28238C13.7257 4.39875 13.8405 4.14713 14.232 4.14713C14.4113 4.14713 14.6572 4.19925 14.9692 4.2645C15.5794 4.39237 16.4145 4.56787 17.6246 4.56787C18.8348 4.56787 19.6699 4.39237 20.2796 4.2645C20.5916 4.19887 20.838 4.14713 21.0173 4.14713C21.4088 4.14713 21.5231 4.39912 21.6424 6.28162C21.663 6.87413 21.6064 7.305 21.6056 7.30912L21.5565 7.67625L21.8719 7.49963C21.8996 7.48425 22.1456 7.341 22.2772 7.07888C22.3301 6.97275 22.374 6.81112 22.4111 6.58762C22.7302 6.55312 22.8866 6.85913 22.8866 7.5075C22.8866 8.22225 22.6147 8.57662 22.0309 8.62125L21.8824 8.63287L21.864 8.78475C21.5933 11.0115 18.7515 12.4234 17.6243 12.4234C16.497 12.4234 13.6553 11.0111 13.3845 8.78475ZM11.9467 14.1866C14.3621 14.1866 15.8501 15.3818 15.8501 16.8664V17.31C15.8501 15.825 14.3621 14.6302 11.9467 14.6302C9.61125 14.6302 8.04413 15.825 8.04413 17.31V16.8664C8.04413 15.3818 9.61162 14.1866 11.9467 14.1866ZM2.0595 6.45487C4.10063 6.432 7.14675 4.1985 7.911 3.61313C8.271 4.236 9.45825 6.14213 10.6676 6.45187C10.6725 6.45262 11.1649 6.55312 11.1649 7.41525C11.1649 8.47988 10.4678 8.67638 10.4396 8.68425L10.2975 8.71912L10.2968 8.86538C10.2863 10.665 7.80787 12.423 6.37537 12.423C4.95825 12.423 2.42175 10.6305 2.42175 8.8665L2.41988 8.72325L2.28225 8.685C2.25412 8.67712 1.5855 8.48025 1.5855 7.41525C1.5855 6.68288 1.97137 6.48937 2.0595 6.45487ZM7.51688 22.218C7.53525 22.251 7.57237 22.2923 7.6215 22.3372C7.50112 22.5019 7.41638 22.6822 7.36538 22.875H1.13137V13.0402C1.13137 12.6075 2.24513 12.1545 4.05638 11.9333C4.83375 12.4654 5.69738 12.798 6.37575 12.798C7.0545 12.798 7.92337 12.4579 8.70225 11.913C10.6189 12.1252 11.8065 12.5936 11.8065 13.0406V13.5056C9.28612 13.5645 7.60388 15.1826 7.60388 17.1889V18.594C7.45688 18.7114 7.3575 18.8944 7.3575 19.1632C7.3575 19.5356 7.506 19.7572 7.7055 19.8743C7.33612 20.5815 7.14 21.555 7.51688 22.218ZM8.15625 18.7946L8.2545 18.8021L8.30662 18.7721C8.32125 18.7639 9.633 17.991 9.681 16.3864C11.1427 17.7592 14.6561 18.0742 15.5014 18.1305V18.6097L15.5258 18.7965H15.7129C15.8805 18.7965 16.1617 18.8441 16.1617 19.1632C16.1617 19.4648 16.0448 19.6054 15.7931 19.6054C15.7545 19.6054 15.7275 19.6012 15.7234 19.6005L15.501 19.5581V19.7846C15.501 20.9959 13.6324 21.9356 12.0248 21.9356C10.3309 21.9356 8.4 20.79 8.4 19.7846L8.3985 19.5626L8.1795 19.6005C8.15548 19.6046 8.13111 19.6064 8.10675 19.6058C7.85063 19.6058 7.73138 19.4651 7.73138 19.1636C7.73213 18.9179 7.87375 18.7949 8.15625 18.7946ZM7.75012 22.8754C7.94887 22.3031 8.60738 21.8813 9.4695 21.6097C10.2019 22.0305 11.1251 22.3102 12.0251 22.3102C12.9105 22.3102 13.8454 22.0526 14.5736 21.6229C15.4144 21.8944 16.0538 22.3121 16.2499 22.8754H7.75012ZM22.8686 22.875H16.635C16.5844 22.6791 16.4966 22.4947 16.3762 22.332C16.4224 22.2892 16.4584 22.2495 16.476 22.218C16.8611 21.5396 16.647 20.5354 16.2623 19.8251C16.4228 19.6991 16.5367 19.4891 16.5367 19.1629C16.5367 18.9064 16.4377 18.7301 16.2919 18.6127V17.1885C16.2919 15.2085 14.7352 13.608 12.1939 13.509V13.1254C12.1939 12.5708 13.3504 12.1339 15.2231 11.9205C16.0718 12.477 16.9867 12.798 17.625 12.798C18.2569 12.798 19.1591 12.4845 19.9999 11.9389C21.7792 12.1624 22.8686 12.612 22.8686 13.0406V22.875Z" fill="url(#paint0_linear_1622_3556)"/>
<defs>
<linearGradient id="paint0_linear_1622_3556" x1="12" y1="0.75" x2="12" y2="23.25" gradientUnits="userSpaceOnUse">
<stop stop-color="white"/>
<stop offset="1" stop-color="#999999"/>
</linearGradient>
</defs>
</svg>
