<svg width="23" height="23" viewBox="0 0 23 23" fill="none" xmlns="http://www.w3.org/2000/svg">
<path d="M11.6151 0.878129C6.46716 0.824786 0.931555 4.54404 0.924805 11.4623L1.92807 9.05318C1.48346 12.4413 1.56479 15.9549 3.74635 18.5455L1.79059 17.6885C3.62996 20.9591 7.71245 21.953 11.2057 22.0249C5.81762 20.1515 3.18137 16.0442 2.99584 11.5543C2.68074 1.6271 15.2142 1.34988 18.9699 8.00257C18.8097 7.08888 18.5657 6.20135 18.2378 5.37241C21.8662 9.55155 21.0172 15.4447 17.2398 17.2335C16.1031 17.4186 14.9462 17.7988 14.3826 18.1241C11.6382 19.7086 14.0887 24.0555 16.8775 22.4454C17.32 22.1899 17.9746 21.6343 18.5882 20.9758C21.6051 18.1858 23.1866 15.4333 22.9526 12.1192C22.647 13.4833 22.0538 14.8335 21.2828 16.0887C24.2433 9.20646 21.6557 3.7189 14.4935 1.96277C15.0606 2.23629 15.5952 2.60168 16.0813 3.05777C13.39 1.9444 9.93493 1.99746 7.32113 3.22207C8.63673 1.99394 10.3575 1.17222 12.1118 0.895098C11.9467 0.885504 11.7811 0.879848 11.615 0.878129H11.6151ZM10.6898 8.3876L9.75966 13.1016C9.62101 13.2802 9.49529 13.4228 9.33624 13.5676L8.13212 11.2662L7.06782 11.8254L8.53829 14.6822C8.74829 15.2201 9.00798 15.6516 9.24901 16.0193C10.5645 18.0257 12.2746 17.6717 13.7163 16.4672L17.8076 14.196L17.2118 13.1414L14.1117 14.8729C14.0406 14.7251 13.9586 14.5658 13.8747 14.4272L17.0536 11.3822L16.2315 10.5058L13.1157 13.4947C13.0052 13.386 12.917 13.2825 12.7986 13.1881L14.9119 9.52788L13.8463 8.91255L11.6964 12.5827C11.5187 12.5213 11.3345 12.4796 11.1529 12.4541L11.8868 8.61518L10.6899 8.38764L10.6898 8.3876Z" fill="url(#paint0_linear_1622_3547)"/>
<defs>
<linearGradient id="paint0_linear_1622_3547" x1="11.9501" y1="0.877563" x2="11.9501" y2="22.7973" gradientUnits="userSpaceOnUse">
<stop stop-color="#FFFF2A"/>
<stop offset="1" stop-color="#999919"/>
</linearGradient>
</defs>
</svg>
