<svg width="14" height="14" viewBox="0 0 14 14" fill="none" xmlns="http://www.w3.org/2000/svg">
<path d="M8.75002 4.25249V1.74999C8.75002 1.42916 8.48752 1.16666 8.16669 1.16666H5.83335C5.51252 1.16666 5.25002 1.42916 5.25002 1.74999V4.25249C5.25002 4.32832 5.27919 4.40416 5.33752 4.45666L6.79585 5.91499C6.91252 6.03166 7.09335 6.03166 7.21002 5.91499L8.66835 4.45666C8.72085 4.40416 8.75002 4.33416 8.75002 4.25249ZM4.25252 5.24999H1.75002C1.42919 5.24999 1.16669 5.51249 1.16669 5.83332V8.16666C1.16669 8.48749 1.42919 8.74999 1.75002 8.74999H4.25252C4.32835 8.74999 4.40419 8.72082 4.45669 8.66249L5.91502 7.20416C6.03169 7.08749 6.03169 6.90666 5.91502 6.78999L4.45669 5.33166C4.42993 5.30497 4.39804 5.28398 4.36296 5.26994C4.32787 5.25591 4.2903 5.24912 4.25252 5.24999ZM5.25002 9.74749V12.25C5.25002 12.5708 5.51252 12.8333 5.83335 12.8333H8.16669C8.48752 12.8333 8.75002 12.5708 8.75002 12.25V9.74749C8.75049 9.70924 8.74294 9.67131 8.72787 9.63615C8.7128 9.60099 8.69054 9.56937 8.66252 9.54332L7.20419 8.08499C7.08752 7.96832 6.90669 7.96832 6.79002 8.08499L5.33169 9.54332C5.27919 9.59582 5.25002 9.66582 5.25002 9.74749ZM9.53752 5.33749L8.07919 6.79582C7.96252 6.91249 7.96252 7.09332 8.07919 7.20999L9.53752 8.66832C9.59002 8.72082 9.66585 8.75582 9.74169 8.75582H12.25C12.5709 8.75582 12.8334 8.49332 12.8334 8.17249V5.83916C12.8334 5.51832 12.5709 5.25582 12.25 5.25582H9.74752C9.70865 5.25299 9.66964 5.25885 9.63331 5.27298C9.59699 5.2871 9.56427 5.30914 9.53752 5.33749Z" fill="white"/>
</svg>
