<svg width="20" height="19" viewBox="0 0 20 19" fill="none" xmlns="http://www.w3.org/2000/svg">
<path opacity="0.5" d="M11.4932 17.266L10.9963 18.1057C10.5536 18.8537 9.44717 18.8537 9.0035 18.1057L8.50667 17.266C8.12167 16.6152 7.92917 16.2889 7.61934 16.1092C7.3095 15.9286 6.91992 15.9222 6.14075 15.9085C4.98942 15.8892 4.268 15.8186 3.663 15.5675C3.10692 15.3371 2.60165 14.9995 2.17605 14.5739C1.75044 14.1483 1.41284 13.643 1.1825 13.087C0.833252 12.2455 0.833252 11.1775 0.833252 9.04171V8.12504C0.833252 5.12479 0.833252 3.62421 1.50884 2.52237C1.88654 1.90564 2.40483 1.38704 3.02134 1.00896C4.12409 0.333374 5.62559 0.333374 8.62492 0.333374H11.3749C14.3752 0.333374 15.8758 0.333374 16.9785 1.00896C17.5949 1.38678 18.1132 1.90506 18.491 2.52146C19.1666 3.62421 19.1666 5.12571 19.1666 8.12504V9.04171C19.1666 11.1775 19.1666 12.2455 18.8183 13.087C18.5878 13.6431 18.2501 14.1484 17.8243 14.5741C17.3985 14.9997 16.8931 15.3372 16.3368 15.5675C15.7318 15.8186 15.0104 15.8883 13.8591 15.9085C13.0799 15.9222 12.6903 15.9286 12.3805 16.1092C12.0707 16.2889 11.8782 16.6143 11.4932 17.266Z" fill="white"/>
<path d="M14.5834 8.58329C14.5834 8.82641 14.4868 9.05957 14.3149 9.23147C14.143 9.40338 13.9099 9.49996 13.6667 9.49996C13.4236 9.49996 13.1905 9.40338 13.0186 9.23147C12.8467 9.05957 12.7501 8.82641 12.7501 8.58329C12.7501 8.34018 12.8467 8.10702 13.0186 7.93511C13.1905 7.7632 13.4236 7.66663 13.6667 7.66663C13.9099 7.66663 14.143 7.7632 14.3149 7.93511C14.4868 8.10702 14.5834 8.34018 14.5834 8.58329ZM10.9167 8.58329C10.9167 8.82641 10.8202 9.05957 10.6483 9.23147C10.4764 9.40338 10.2432 9.49996 10.0001 9.49996C9.75697 9.49996 9.52381 9.40338 9.3519 9.23147C9.17999 9.05957 9.08341 8.82641 9.08341 8.58329C9.08341 8.34018 9.17999 8.10702 9.3519 7.93511C9.52381 7.7632 9.75697 7.66663 10.0001 7.66663C10.2432 7.66663 10.4764 7.7632 10.6483 7.93511C10.8202 8.10702 10.9167 8.34018 10.9167 8.58329ZM7.25008 8.58329C7.25008 8.82641 7.1535 9.05957 6.9816 9.23147C6.80969 9.40338 6.57653 9.49996 6.33341 9.49996C6.0903 9.49996 5.85714 9.40338 5.68523 9.23147C5.51333 9.05957 5.41675 8.82641 5.41675 8.58329C5.41675 8.34018 5.51333 8.10702 5.68523 7.93511C5.85714 7.7632 6.0903 7.66663 6.33341 7.66663C6.57653 7.66663 6.80969 7.7632 6.9816 7.93511C7.1535 8.10702 7.25008 8.34018 7.25008 8.58329Z" fill="white"/>
</svg>
