<svg width="22" height="23" viewBox="0 0 22 23" fill="none" xmlns="http://www.w3.org/2000/svg">
<path fill-rule="evenodd" clip-rule="evenodd" d="M14.0506 7.41345H7.94931C4.85648 7.41345 3.30914 7.41345 2.44014 8.3182C1.57114 9.22295 1.77556 10.62 2.18531 13.4149L2.57214 16.0659C2.89298 18.2576 3.05339 19.354 3.87564 20.0103C4.69881 20.6666 5.91064 20.6666 8.33706 20.6666H13.6629C16.0884 20.6666 17.3021 20.6666 18.1243 20.0103C18.9466 19.354 19.107 18.2576 19.4278 16.0659L19.8146 13.4149C20.2244 10.62 20.4288 9.22295 19.5598 8.3182C18.6908 7.41345 17.1435 7.41345 14.0506 7.41345ZM13.3659 14.9778C13.8783 14.6606 13.8783 13.8393 13.3659 13.5221L10.2758 11.6063C9.77806 11.2974 9.16664 11.6989 9.16664 12.3341V16.1658C9.16664 16.801 9.77806 17.2016 10.2758 16.8936L13.3659 14.9778Z" fill="white"/>
<path opacity="0.4" d="M7.8008 2.33337H14.1991C14.4118 2.33337 14.575 2.33337 14.718 2.34712C15.7336 2.44704 16.5651 3.05754 16.918 3.87979H5.08105C5.43305 3.05754 6.26447 2.44704 7.28014 2.34712C7.42405 2.33337 7.58722 2.33337 7.8008 2.33337Z" fill="white"/>
<path opacity="0.7" d="M5.78423 4.82947C4.51006 4.82947 3.46506 5.59947 3.11581 6.61972L3.09473 6.68388C3.45956 6.57388 3.83906 6.50147 4.22406 6.45197C5.21406 6.32547 6.46623 6.32547 7.92006 6.32547H14.2377C15.6916 6.32547 16.9428 6.32547 17.9337 6.45197C18.3157 6.49952 18.6933 6.57706 19.0631 6.68388L19.042 6.61972C18.6936 5.59855 17.6477 4.82947 16.3726 4.82947H5.78423Z" fill="white"/>
</svg>
