<svg width="22" height="23" viewBox="0 0 22 23" fill="none" xmlns="http://www.w3.org/2000/svg">
<path d="M20.7595 11.0437C19.8481 6.92345 18.4765 4.72431 16.442 4.12361C16.0143 3.99814 15.5707 3.93547 15.125 3.93755C14.5359 3.93755 14.0228 4.08107 13.4801 4.23318C12.8262 4.41665 12.0832 4.62505 11 4.62505C9.91674 4.62505 9.17338 4.41708 8.51811 4.2336C7.97499 4.08107 7.46237 3.93755 6.87499 3.93755C6.41411 3.93593 5.95525 3.9984 5.51159 4.12318C3.48776 4.7213 2.11706 6.91958 1.19237 11.0411C0.198072 15.4764 0.687487 18.2767 2.56479 18.9263C2.82212 19.0171 3.09288 19.0638 3.36573 19.0647C4.65178 19.0647 5.68303 17.9935 6.38772 17.1165C7.18393 16.1239 8.11592 15.6203 11 15.6203C13.576 15.6203 14.642 15.9697 15.5628 17.1165C16.1416 17.8375 16.6886 18.342 17.2343 18.6595C17.9601 19.0815 18.6854 19.1751 19.3896 18.9332C20.4991 18.5547 21.135 17.5539 21.2803 15.9581C21.3907 14.7343 21.2205 13.1268 20.7595 11.0437ZM8.93749 10.8126H7.56249V12.1876C7.56249 12.3699 7.49005 12.5448 7.36112 12.6737C7.23219 12.8026 7.05732 12.8751 6.87499 12.8751C6.69265 12.8751 6.51778 12.8026 6.38885 12.6737C6.25992 12.5448 6.18749 12.3699 6.18749 12.1876V10.8126H4.81249C4.63015 10.8126 4.45528 10.7401 4.32635 10.6112C4.19742 10.4823 4.12499 10.3074 4.12499 10.1251C4.12499 9.94271 4.19742 9.76785 4.32635 9.63891C4.45528 9.50998 4.63015 9.43755 4.81249 9.43755H6.18749V8.06255C6.18749 7.88021 6.25992 7.70535 6.38885 7.57641C6.51778 7.44748 6.69265 7.37505 6.87499 7.37505C7.05732 7.37505 7.23219 7.44748 7.36112 7.57641C7.49005 7.70535 7.56249 7.88021 7.56249 8.06255V9.43755H8.93749C9.11982 9.43755 9.29469 9.50998 9.42362 9.63891C9.55255 9.76785 9.62499 9.94271 9.62499 10.1251C9.62499 10.3074 9.55255 10.4823 9.42362 10.6112C9.29469 10.7401 9.11982 10.8126 8.93749 10.8126ZM12.5469 10.9844C12.3769 10.9844 12.2107 10.934 12.0694 10.8396C11.9281 10.7452 11.8179 10.6109 11.7529 10.4539C11.6879 10.2969 11.6708 10.1241 11.704 9.95739C11.7372 9.79069 11.819 9.63757 11.9392 9.51738C12.0594 9.39719 12.2125 9.31535 12.3792 9.28219C12.5459 9.24903 12.7187 9.26605 12.8757 9.33109C13.0328 9.39614 13.167 9.50628 13.2614 9.64761C13.3558 9.78893 13.4062 9.95508 13.4062 10.1251C13.4062 10.353 13.3157 10.5716 13.1545 10.7327C12.9934 10.8939 12.7748 10.9844 12.5469 10.9844ZM14.4375 12.8751C14.2674 12.875 14.1012 12.8246 13.9598 12.7301C13.8185 12.6355 13.7083 12.5012 13.6433 12.344C13.5783 12.1869 13.5615 12.014 13.5948 11.8472C13.6281 11.6805 13.7102 11.5273 13.8306 11.4072C13.951 11.2871 14.1043 11.2055 14.2712 11.1726C14.438 11.1396 14.6109 11.157 14.7678 11.2223C14.9248 11.2877 15.0589 11.3982 15.1531 11.5398C15.2472 11.6814 15.2973 11.8478 15.2969 12.0178C15.2963 12.2454 15.2055 12.4634 15.0444 12.6241C14.8833 12.7848 14.665 12.8751 14.4375 12.8751ZM14.4375 9.0938C14.2675 9.0938 14.1014 9.0434 13.96 8.94897C13.8187 8.85454 13.7086 8.72032 13.6435 8.56329C13.5785 8.40626 13.5615 8.23347 13.5946 8.06677C13.6278 7.90007 13.7096 7.74694 13.8298 7.62676C13.95 7.50657 14.1031 7.42472 14.2698 7.39156C14.4365 7.3584 14.6093 7.37542 14.7664 7.44047C14.9234 7.50551 15.0576 7.61566 15.152 7.75698C15.2465 7.89831 15.2969 8.06446 15.2969 8.23443C15.2969 8.46235 15.2063 8.68093 15.0452 8.84209C14.884 9.00326 14.6654 9.0938 14.4375 9.0938ZM16.3281 10.9844C16.1581 10.9844 15.992 10.934 15.8507 10.8396C15.7093 10.7452 15.5992 10.6109 15.5342 10.4539C15.4691 10.2969 15.4521 10.1241 15.4853 9.95739C15.5184 9.79069 15.6003 9.63757 15.7204 9.51738C15.8406 9.39719 15.9938 9.31535 16.1605 9.28219C16.3272 9.24903 16.4999 9.26605 16.657 9.33109C16.814 9.39614 16.9482 9.50628 17.0427 9.64761C17.1371 9.78893 17.1875 9.95508 17.1875 10.1251C17.1875 10.353 17.0969 10.5716 16.9358 10.7327C16.7746 10.8939 16.556 10.9844 16.3281 10.9844Z" fill="white"/>
</svg>
