<svg width="34" height="32" viewBox="0 0 34 32" fill="none" xmlns="http://www.w3.org/2000/svg">
<g filter="url(#filter0_d_196_1602)">
<path d="M25.1864 6.06042L17.0862 12.3819L8.80078 6.06042V6.06213L8.81079 6.07068V14.9225L16.9928 21.3807L25.1864 15.1719V6.06042Z" fill="#EA4335"/>
<path d="M27.3138 4.52276L25.1865 6.06042V15.1719L31.8802 10.0327V6.93689C31.8802 6.93689 31.0677 2.51525 27.3138 4.52276Z" fill="#FBBC05"/>
<path d="M25.1865 15.1722V26.99H30.3169C30.3169 26.99 31.7768 26.8396 31.8819 25.1755V10.033L25.1865 15.1722Z" fill="#34A853"/>
<path d="M8.81117 26.9999V14.9224L8.80078 14.9138L8.81117 26.9999Z" fill="#C5221F"/>
<path d="M8.8009 6.06229L6.68534 4.53316C2.93138 2.52566 2.11719 6.94559 2.11719 6.94559V10.0414L8.8009 14.9141V6.06229Z" fill="#C5221F"/>
<path d="M8.80078 6.06213V14.914L8.81117 14.9225V6.07068L8.80078 6.06213Z" fill="#C5221F"/>
<path d="M2.11719 10.043V25.1856C2.22063 26.8514 3.68217 27 3.68217 27H8.81258L8.8009 14.9139L2.11719 10.043Z" fill="#4285F4"/>
</g>
<defs>
<filter id="filter0_d_196_1602" x="-1" y="-1" width="36" height="36" filterUnits="userSpaceOnUse" color-interpolation-filters="sRGB">
<feFlood flood-opacity="0" result="BackgroundImageFix"/>
<feColorMatrix in="SourceAlpha" type="matrix" values="0 0 0 0 0 0 0 0 0 0 0 0 0 0 0 0 0 0 127 0" result="hardAlpha"/>
<feOffset dy="1"/>
<feGaussianBlur stdDeviation="1"/>
<feComposite in2="hardAlpha" operator="out"/>
<feColorMatrix type="matrix" values="0 0 0 0 0.0627451 0 0 0 0 0.0941176 0 0 0 0 0.156863 0 0 0 0.05 0"/>
<feBlend mode="normal" in2="BackgroundImageFix" result="effect1_dropShadow_196_1602"/>
<feBlend mode="normal" in="SourceGraphic" in2="effect1_dropShadow_196_1602" result="shape"/>
</filter>
</defs>
</svg>
