<svg width="24" height="24" viewBox="0 0 24 24" fill="none" xmlns="http://www.w3.org/2000/svg">
<path fill-rule="evenodd" clip-rule="evenodd" d="M8.03966 0.458265C10.6445 -0.152755 13.3555 -0.152755 15.9603 0.458265C19.7221 1.34066 22.6593 4.27789 23.5417 8.03967C24.1528 10.6445 24.1528 13.3555 23.5417 15.9603C22.6593 19.7221 19.7221 22.6593 15.9603 23.5417C13.3555 24.1528 10.6445 24.1528 8.03967 23.5417C4.27789 22.6593 1.34066 19.7221 0.458266 15.9603C-0.152756 13.3555 -0.152755 10.6445 0.458266 8.03966C1.34066 4.27788 4.27789 1.34066 8.03966 0.458265ZM13.8179 9.35053C14.1169 9.05146 14.1169 8.56656 13.8179 8.26749C13.5188 7.96841 13.0339 7.96841 12.7348 8.26749L9.54387 11.4584C9.40025 11.6021 9.31956 11.7969 9.31956 12C9.31956 12.2031 9.40025 12.3979 9.54387 12.5415L12.7348 15.7324C13.0339 16.0315 13.5188 16.0315 13.8179 15.7324C14.1169 15.4334 14.1169 14.9485 13.8179 14.6494L11.1684 12L13.8179 9.35053Z" fill="white"/>
</svg>
