<svg width="22" height="20" viewBox="0 0 22 20" fill="none" xmlns="http://www.w3.org/2000/svg">
<path d="M11 0C14.5 0 17 3 18 6C21 7 22 9.73 22 12L19.225 12.793C19.0162 12.8527 18.8325 12.9788 18.7017 13.1522C18.5709 13.3256 18.5001 13.5368 18.5 13.754V15.25C18.5 15.7141 18.3156 16.1592 17.9874 16.4874C17.6592 16.8156 17.2141 17 16.75 17H16.154C15.8236 16.9999 15.4983 17.0818 15.2073 17.2381C14.9162 17.3945 14.6684 17.6205 14.486 17.896C13.558 19.2987 12.396 20 11 20C9.604 20 8.442 19.2987 7.514 17.896C7.33162 17.6205 7.08382 17.3945 6.79275 17.2381C6.50168 17.0818 6.17641 16.9999 5.846 17H5.25C4.78587 17 4.34075 16.8156 4.01256 16.4874C3.68437 16.1592 3.5 15.7141 3.5 15.25V13.754C3.4999 13.5368 3.4291 13.3256 3.2983 13.1522C3.1675 12.9788 2.98381 12.8527 2.775 12.793L0 12C0 9.734 1 7 4 6C5 3 7.5 0 11 0ZM11 10C10.172 10 9.5 11.12 9.5 12.5C9.5 13.88 10.172 15 11 15C11.828 15 12.5 13.88 12.5 12.5C12.5 11.12 11.828 10 11 10ZM8.5 6C8.10218 6 7.72064 6.15804 7.43934 6.43934C7.15804 6.72064 7 7.10218 7 7.5C7 7.89782 7.15804 8.27936 7.43934 8.56066C7.72064 8.84196 8.10218 9 8.5 9C8.89782 9 9.27936 8.84196 9.56066 8.56066C9.84196 8.27936 10 7.89782 10 7.5C10 7.10218 9.84196 6.72064 9.56066 6.43934C9.27936 6.15804 8.89782 6 8.5 6ZM13.5 6C13.1022 6 12.7206 6.15804 12.4393 6.43934C12.158 6.72064 12 7.10218 12 7.5C12 7.89782 12.158 8.27936 12.4393 8.56066C12.7206 8.84196 13.1022 9 13.5 9C13.8978 9 14.2794 8.84196 14.5607 8.56066C14.842 8.27936 15 7.89782 15 7.5C15 7.10218 14.842 6.72064 14.5607 6.43934C14.2794 6.15804 13.8978 6 13.5 6Z" fill="url(#paint0_linear_4_419)"/>
<defs>
<linearGradient id="paint0_linear_4_419" x1="11" y1="0" x2="11" y2="20" gradientUnits="userSpaceOnUse">
<stop stop-color="#98C32D"/>
<stop offset="1" stop-color="#495D16"/>
</linearGradient>
</defs>
</svg>
