<svg width="30" height="23" viewBox="0 0 30 23" fill="none" xmlns="http://www.w3.org/2000/svg">
<path d="M28.3346 11.5C28.3346 6.62913 28.3346 4.19305 26.772 2.6805C25.2093 1.16796 22.696 1.16667 17.668 1.16667H12.3346C7.30664 1.16667 4.79197 1.16667 3.23064 2.6805C1.6693 4.19434 1.66797 6.62913 1.66797 11.5C1.66797 16.3709 1.66797 18.807 3.23064 20.3195C4.7933 21.832 7.30664 21.8333 12.3346 21.8333H17.668C22.696 21.8333 25.2106 21.8333 26.772 20.3195C27.644 19.476 28.0293 18.3458 28.1986 16.6667M12.3346 16.6667H7.0013M17.668 16.6667H15.668M1.66797 8.91667H8.33464M28.3346 8.91667H13.668" stroke="#A5C7F4" stroke-width="1.5" stroke-linecap="round"/>
</svg>
