<svg width="26" height="30" viewBox="0 0 26 30" fill="none" xmlns="http://www.w3.org/2000/svg">
<path d="M1 13.7973V20.4547C1 24.5827 1 26.648 1.97867 27.5493C2.44533 27.98 3.03467 28.2507 3.66267 28.3227C4.97867 28.4733 6.516 27.1133 9.58933 24.3947C10.9493 23.1933 11.628 22.592 12.4133 22.4347C12.8 22.3547 13.2 22.3547 13.5867 22.4347C14.3733 22.592 15.052 23.1933 16.4107 24.3947C19.484 27.1133 21.0213 28.4733 22.3373 28.3213C22.964 28.2507 23.5547 27.98 24.0213 27.5493C25 26.648 25 24.584 25 20.4547V13.796C25 8.07866 25 5.21999 23.2427 3.44266C21.4853 1.66532 18.656 1.66666 13 1.66666C7.344 1.66666 4.51467 1.66666 2.75733 3.44266C1.68133 4.53066 1.264 6.02666 1.10267 8.33332M17 6.99999H9" stroke="#A5C7F4" stroke-width="1.5" stroke-linecap="round"/>
</svg>
