<svg width="24" height="27" viewBox="0 0 24 27" fill="none" xmlns="http://www.w3.org/2000/svg">
<path d="M7.33333 17.7917C6.85008 17.7917 6.45833 18.1834 6.45833 18.6667C6.45833 19.1499 6.85008 19.5417 7.33333 19.5417H16.6667C17.1499 19.5417 17.5417 19.1499 17.5417 18.6667C17.5417 18.1834 17.1499 17.7917 16.6667 17.7917H7.33333Z" fill="#A5C7F4"/>
<path fill-rule="evenodd" clip-rule="evenodd" d="M11.8113 0.291645C9.82059 0.291332 8.60585 0.291141 7.59374 0.619994C5.55147 1.28357 3.9503 2.88474 3.28673 4.92701C3.25606 5.02138 3.22837 5.11679 3.20335 5.2137C2.71076 5.59854 2.27406 6.0506 1.90618 6.55694C1.22271 7.49765 0.916674 8.59943 0.76935 9.95922C0.624983 11.2917 0.624991 12.9712 0.625 15.1139V15.2195C0.624991 17.3621 0.624983 19.0416 0.76935 20.3741C0.916674 21.7339 1.22271 22.8357 1.90618 23.7764C2.31995 24.3459 2.82077 24.8467 3.39027 25.2605C4.33099 25.944 5.43276 26.25 6.79256 26.3973C8.12502 26.5417 9.80453 26.5417 11.9471 26.5417H12.0528C14.1954 26.5417 15.875 26.5417 17.2074 26.3973C18.5672 26.25 19.669 25.944 20.6097 25.2605C21.1792 24.8467 21.6801 24.3459 22.0938 23.7764C22.7773 22.8357 23.0833 21.7339 23.2307 20.3741C23.375 19.0416 23.375 17.3621 23.375 15.2196V15.1138C23.375 12.9713 23.375 11.2917 23.2307 9.95922C23.0833 8.59943 22.7773 7.49765 22.0938 6.55694C21.726 6.05065 21.2893 5.59864 20.7968 5.21382C20.7718 5.11687 20.7441 5.02142 20.7134 4.92701C20.0498 2.88474 18.4487 1.28357 16.4064 0.619994C15.3943 0.291141 14.1795 0.291332 12.1889 0.291645H11.8113ZM6.86454 3.92839C6.42846 3.97355 6.01856 4.03446 5.63178 4.11822C6.24094 3.26542 7.11309 2.61623 8.13452 2.28434C8.84818 2.05246 9.76046 2.04166 12.0001 2.04166C14.2397 2.04166 15.1519 2.05246 15.8656 2.28434C16.887 2.61623 17.7592 3.26543 18.3684 4.11825C17.9816 4.03448 17.5717 3.97357 17.1356 3.9284C15.8154 3.79165 14.1568 3.79166 12.05 3.79166H11.95C9.84324 3.79166 8.18475 3.79165 6.86454 3.92839ZM4.4831 6.44313C5.07607 6.03352 5.83879 5.79399 7.04483 5.66908C8.26443 5.54276 9.83252 5.54166 12 5.54166C14.1676 5.54166 15.7357 5.54276 16.9553 5.66909C18.1613 5.79401 18.924 6.03357 19.517 6.44321C19.5197 6.44507 19.5224 6.44693 19.5251 6.4488C19.5439 6.46186 19.5625 6.47513 19.5811 6.48862C20.002 6.79445 20.3722 7.16463 20.678 7.58556C21.1086 8.17823 21.3596 8.93682 21.4908 10.1477C21.6238 11.375 21.625 12.9598 21.625 15.1667C21.625 17.3735 21.6238 18.9583 21.4908 20.1856C21.3596 21.3965 21.1086 22.1551 20.678 22.7478C20.3722 23.1687 20.002 23.5389 19.5811 23.8447C18.9884 24.2753 18.2298 24.5263 17.0189 24.6575C15.7917 24.7905 14.2068 24.7917 12 24.7917C9.79317 24.7917 8.20832 24.7905 6.98105 24.6575C5.77016 24.5263 5.01157 24.2753 4.4189 23.8447C3.99796 23.5389 3.62779 23.1687 3.32196 22.7478C2.89136 22.1551 2.64036 21.3965 2.50917 20.1856C2.3762 18.9583 2.375 17.3735 2.375 15.1667C2.375 12.9598 2.3762 11.375 2.50917 10.1477C2.64036 8.93682 2.89136 8.17823 3.32196 7.58556C3.62779 7.16463 3.99796 6.79445 4.4189 6.48862C4.44015 6.47318 4.46155 6.45802 4.4831 6.44313Z" fill="#A5C7F4"/>
</svg>
