<svg width="30" height="28" viewBox="0 0 30 28" fill="none" xmlns="http://www.w3.org/2000/svg">
<path d="M7.00368 8C5.83568 8.19067 4.97701 8.54 4.27968 9.18267C2.75301 10.5907 2.53968 12.9187 2.11434 17.5733L1.67834 22.3293C1.51301 24.6733 3.34501 26.6667 5.66634 26.6667H6.66234C7.46503 26.6638 8.2483 26.4196 8.91031 25.9656C9.57231 25.5117 10.0824 24.8691 10.3743 24.1213L11.3637 21.616C11.689 20.7947 11.8517 20.3827 12.1903 20.1507C12.529 19.9187 12.9663 19.9187 13.841 19.9187H16.161C17.0357 19.9187 17.473 19.9187 17.8117 20.1507C18.1503 20.3827 18.313 20.7947 18.6383 21.6173L19.6277 24.1213C19.9196 24.8691 20.4297 25.5117 21.0917 25.9656C21.7537 26.4196 22.537 26.6638 23.3397 26.6667H24.3357C26.6557 26.6667 28.489 24.6733 28.3237 22.3293L27.893 17.58C27.469 12.9227 27.257 10.5933 25.7303 9.184C25.033 8.54 24.173 8.19067 23.0037 8M21.6677 14.6667H21.6797M8.33434 14.6667H8.34634" stroke="#A5C7F4" stroke-width="1.5" stroke-linecap="round" stroke-linejoin="round"/>
<path d="M14.9987 1.33333L15.3427 2.26267C15.7934 3.48133 16.0187 4.09067 16.4627 4.53467C16.908 4.98 17.5174 5.20533 18.736 5.656L19.6654 6L18.736 6.344C17.5174 6.79466 16.908 7.02 16.464 7.464C16.0187 7.90933 15.7934 8.51867 15.3427 9.73733L14.9987 10.6667L14.6547 9.73733C14.204 8.51867 13.9787 7.90933 13.5347 7.46533C13.0894 7.02 12.4814 6.79466 11.2614 6.344L10.332 6L11.2614 5.656C12.48 5.20533 13.0894 4.98 13.5334 4.536C13.9787 4.09067 14.204 3.48133 14.6547 2.26267L14.9987 1.33333Z" stroke="#A5C7F4" stroke-width="1.5" stroke-linecap="round" stroke-linejoin="round"/>
</svg>
