<svg width="26" height="30" viewBox="0 0 26 30" fill="none" xmlns="http://www.w3.org/2000/svg">
<path d="M13.0007 17.6667H13.0127M6.33407 28.3334H19.6674M1.6914 12.7414C1.17407 11.3094 0.9154 10.5934 1.02473 10.1347C1.14607 9.63202 1.5034 9.24135 1.9594 9.11069C2.37673 8.99069 3.02607 9.28002 4.3234 9.85735C5.47007 10.3667 6.0434 10.6214 6.5834 10.608C7.17807 10.592 7.74873 10.3547 8.2034 9.93202C8.61673 9.54935 8.89273 8.94002 9.44607 7.72135L10.6661 5.03335C11.6847 2.78935 12.1941 1.66669 13.0007 1.66669C13.8074 1.66669 14.3167 2.78935 15.3354 5.03335L16.5554 7.72135C17.1087 8.94002 17.3861 9.54935 17.7981 9.93202C18.2527 10.3534 18.8247 10.592 19.4181 10.608C19.9567 10.6214 20.5314 10.3667 21.6781 9.85602C22.9767 9.28002 23.6247 8.99069 24.0421 9.11069C24.4981 9.24135 24.8554 9.63202 24.9754 10.1347C25.0861 10.5934 24.8274 11.308 24.3087 12.7414L22.0861 18.896C21.1341 21.5294 20.6594 22.8454 19.6634 23.5894C18.6674 24.3334 17.3807 24.3334 14.8087 24.3334H11.1927C8.6194 24.3334 7.33407 24.3334 6.3394 23.5894C5.3434 22.8454 4.8674 21.5294 3.9154 18.896L1.6914 12.7414Z" stroke="#A5C7F4" stroke-width="2" stroke-linecap="round" stroke-linejoin="round"/>
</svg>
