<svg width="32" height="26" viewBox="0 0 32 26" fill="none" xmlns="http://www.w3.org/2000/svg">
<path fill-rule="evenodd" clip-rule="evenodd" d="M1.14762 6.19999C0.804479 6.36138 0.514348 6.61709 0.311131 6.93725C0.107913 7.2574 0 7.62878 0 8.00799C0 8.38719 0.107913 8.75857 0.311131 9.07872C0.514348 9.39888 0.804479 9.65459 1.14762 9.81599L4.00762 11.166V19.006C4.00762 20.49 4.48962 22.146 5.89562 23.166C7.66762 24.446 10.8956 26.006 16.0156 26.006C21.1356 26.006 24.3556 24.436 26.1356 23.166C27.5416 22.15 28.0236 20.506 28.0236 19.006V11.166L30.0236 10.22V19C30.0236 19.2652 30.129 19.5196 30.3165 19.7071C30.5041 19.8946 30.7584 20 31.0236 20C31.2888 20 31.5432 19.8946 31.7307 19.7071C31.9183 19.5196 32.0236 19.2652 32.0236 19V7.99999C32.0237 7.62122 31.9162 7.25022 31.7137 6.93015C31.5112 6.61008 31.2219 6.3541 30.8796 6.19199L19.4396 0.791986C18.3704 0.286362 17.2024 0.0241089 16.0196 0.0241089C14.8369 0.0241089 13.6688 0.286362 12.5996 0.791986L1.15962 6.19199L1.14762 6.19999ZM6.00762 19V12.1L12.5876 15.22C13.6568 15.7256 14.8249 15.9879 16.0076 15.9879C17.1904 15.9879 18.3584 15.7256 19.4276 15.22L26.0076 12.1V19C26.0076 20.112 25.6476 21.02 24.9476 21.52C23.4996 22.566 20.6876 24 16.0076 24C11.3276 24 8.50762 22.576 7.06762 21.52C6.36962 21.016 6.00762 20.102 6.00762 19ZM13.4476 2.59999C14.2478 2.22094 15.1222 2.02432 16.0076 2.02432C16.8931 2.02432 17.7674 2.22094 18.5676 2.59999L30.0076 7.99999L18.5676 13.4C17.7674 13.779 16.8931 13.9757 16.0076 13.9757C15.1222 13.9757 14.2478 13.779 13.4476 13.4L2.00762 7.99999L13.4476 2.59999Z" fill="#A5C7F4"/>
</svg>
