<svg width="30" height="25" viewBox="0 0 30 25" fill="none" xmlns="http://www.w3.org/2000/svg">
<path d="M28 3.75H25V1.8125C25 1.55557 24.8946 1.30917 24.7071 1.12749C24.5196 0.945815 24.2652 0.84375 24 0.84375H6C5.73478 0.84375 5.48043 0.945815 5.29289 1.12749C5.10536 1.30917 5 1.55557 5 1.8125V3.75H2C1.46957 3.75 0.960859 3.95413 0.585786 4.31748C0.210714 4.68083 0 5.17364 0 5.6875V7.625C0 8.90964 0.526784 10.1417 1.46447 11.05C1.92876 11.4998 2.47995 11.8566 3.08658 12.1C3.69321 12.3435 4.34339 12.4688 5 12.4688H5.45625C6.04531 14.2772 7.16846 15.8788 8.68688 17.0756C10.2053 18.2724 12.0524 19.0119 14 19.2028V22.1562H11C10.7348 22.1562 10.4804 22.2583 10.2929 22.44C10.1054 22.6217 10 22.8681 10 23.125C10 23.3819 10.1054 23.6283 10.2929 23.81C10.4804 23.9917 10.7348 24.0938 11 24.0938H19C19.2652 24.0938 19.5196 23.9917 19.7071 23.81C19.8946 23.6283 20 23.3819 20 23.125C20 22.8681 19.8946 22.6217 19.7071 22.44C19.5196 22.2583 19.2652 22.1562 19 22.1562H16V19.1991C19.9925 18.808 23.305 16.0943 24.51 12.4688H25C26.3261 12.4688 27.5979 11.9584 28.5355 11.05C29.4732 10.1417 30 8.90964 30 7.625V5.6875C30 5.17364 29.7893 4.68083 29.4142 4.31748C29.0391 3.95413 28.5304 3.75 28 3.75ZM5 10.5312C4.20435 10.5312 3.44129 10.2251 2.87868 9.68003C2.31607 9.135 2 8.39579 2 7.625V5.6875H5V9.5625C5 9.88542 5.01625 10.2083 5.04875 10.5312H5ZM23 9.45352C23 13.7548 19.375 17.281 15 17.3125C12.8783 17.3125 10.8434 16.496 9.34315 15.0426C7.84285 13.5892 7 11.6179 7 9.5625V2.78125H23V9.45352ZM28 7.625C28 8.39579 27.6839 9.135 27.1213 9.68003C26.5587 10.2251 25.7956 10.5312 25 10.5312H24.9375C24.9785 10.1734 24.9994 9.81359 25 9.45352V5.6875H28V7.625Z" fill="#A5C7F4"/>
</svg>
