<svg width="24" height="28" viewBox="0 0 24 28" fill="none" xmlns="http://www.w3.org/2000/svg">
<path d="M19.9989 16.2857C20.9082 16.2857 21.7803 16.6469 22.4233 17.2899C23.0662 17.9329 23.4275 18.805 23.4275 19.7143V20.5314C23.4275 24.6194 18.616 27.7143 11.9989 27.7143C5.38174 27.7143 0.570312 24.7806 0.570312 20.5314V19.7143C0.570312 18.805 0.931536 17.9329 1.57452 17.2899C2.2175 16.6469 3.08957 16.2857 3.99888 16.2857H19.9989ZM19.9989 18H3.99888C3.57291 18 3.16219 18.1586 2.84676 18.4449C2.53133 18.7311 2.33378 19.1246 2.2926 19.5486L2.2846 19.7143V20.5314C2.2846 23.5874 6.15774 26 11.9989 26C17.6286 26 21.5475 23.5943 21.7086 20.7154L21.7132 20.5314V19.7143C21.7132 19.2883 21.5546 18.8776 21.2683 18.5622C20.982 18.2467 20.5886 18.0492 20.1646 18.008L19.9989 18ZM11.9989 0.285713C12.8994 0.285713 13.7911 0.463078 14.623 0.807682C15.4549 1.15229 16.2109 1.65738 16.8476 2.29412C17.4844 2.93087 17.9895 3.68679 18.3341 4.51874C18.6787 5.35069 18.856 6.24236 18.856 7.14286C18.856 8.04335 18.6787 8.93502 18.3341 9.76697C17.9895 10.5989 17.4844 11.3548 16.8476 11.9916C16.2109 12.6283 15.4549 13.1334 14.623 13.478C13.7911 13.8226 12.8994 14 11.9989 14C10.1803 14 8.43612 13.2776 7.15015 11.9916C5.86419 10.7056 5.14174 8.96148 5.14174 7.14286C5.14174 5.32423 5.86419 3.58009 7.15015 2.29412C8.43612 1.00816 10.1803 0.285713 11.9989 0.285713ZM11.9989 2C10.6349 2 9.32681 2.54183 8.36234 3.50631C7.39786 4.47078 6.85603 5.77889 6.85603 7.14286C6.85603 8.50683 7.39786 9.81493 8.36234 10.7794C9.32681 11.7439 10.6349 12.2857 11.9989 12.2857C13.3629 12.2857 14.671 11.7439 15.6354 10.7794C16.5999 9.81493 17.1417 8.50683 17.1417 7.14286C17.1417 5.77889 16.5999 4.47078 15.6354 3.50631C14.671 2.54183 13.3629 2 11.9989 2Z" fill="#A5C7F4"/>
</svg>
