<svg width="32" height="34" viewBox="0 0 32 34" fill="none" xmlns="http://www.w3.org/2000/svg">
<path d="M8.69828 8.89999C8.45958 8.89999 8.23066 8.99482 8.06188 9.1636C7.8931 9.33238 7.79828 9.5613 7.79828 9.79999C7.79828 10.0387 7.8931 10.2676 8.06188 10.4364C8.23066 10.6052 8.45958 10.7 8.69828 10.7H14.0983C14.337 10.7 14.5659 10.6052 14.7347 10.4364C14.9035 10.2676 14.9983 10.0387 14.9983 9.79999C14.9983 9.5613 14.9035 9.33238 14.7347 9.1636C14.5659 8.99482 14.337 8.89999 14.0983 8.89999H8.69828ZM7.79828 13.4C7.79828 13.1613 7.8931 12.9324 8.06188 12.7636C8.23066 12.5948 8.45958 12.5 8.69828 12.5H12.2983C12.537 12.5 12.7659 12.5948 12.9347 12.7636C13.1035 12.9324 13.1983 13.1613 13.1983 13.4C13.1983 13.6387 13.1035 13.8676 12.9347 14.0364C12.7659 14.2052 12.537 14.3 12.2983 14.3H8.69828C8.45958 14.3 8.23066 14.2052 8.06188 14.0364C7.8931 13.8676 7.79828 13.6387 7.79828 13.4ZM0.598278 11.6C0.599597 10.0056 0.953925 8.43124 1.63582 6.99C2.31772 5.54876 3.31027 4.27638 4.5422 3.26421C5.77414 2.25204 7.21491 1.5252 8.76105 1.13587C10.3072 0.746531 11.9204 0.704363 13.4847 1.01239C15.0491 1.32042 16.5259 1.971 17.809 2.91743C19.0922 3.86385 20.1498 5.08264 20.9061 6.48629C21.6623 7.88993 22.0984 9.44361 22.1831 11.0358C22.2677 12.6279 21.9987 14.2191 21.3955 15.695C21.3084 15.74 21.2226 15.7875 21.1381 15.8372L20.9131 15.9722C20.7733 16.0559 20.6134 16.1001 20.4505 16.1H19.1941C19.9855 14.7278 20.4008 13.171 20.3979 11.5869C20.395 10.0028 19.974 8.44753 19.1776 7.07822C18.3811 5.70892 17.2373 4.57409 15.8618 3.7884C14.4863 3.0027 12.9278 2.59398 11.3437 2.60352C9.75962 2.61306 8.20613 3.04053 6.84018 3.84274C5.47423 4.64495 4.34421 5.79348 3.56429 7.17228C2.78437 8.55108 2.38219 10.1113 2.39838 11.6953C2.41456 13.2793 2.84855 14.831 3.65648 16.1936C3.71918 16.299 3.75967 16.4162 3.77545 16.5378C3.79124 16.6595 3.78199 16.783 3.74828 16.901L2.83208 20.105L5.81648 19.1114C5.94322 19.0691 6.0778 19.0556 6.21043 19.0717C6.34306 19.0879 6.47043 19.1334 6.58328 19.205C7.22288 19.6106 7.90868 19.9322 8.64068 20.1698L7.86308 21.8078C7.21322 21.5825 6.58637 21.2956 5.99108 20.951L1.78268 22.355C1.6272 22.4069 1.46049 22.4154 1.30056 22.3795C1.14062 22.3436 0.993521 22.2647 0.87514 22.1513C0.756759 22.0379 0.671591 21.8944 0.628826 21.7361C0.586061 21.5779 0.587323 21.411 0.632478 21.2534L1.91408 16.7696C1.05011 15.1835 0.597715 13.4061 0.598278 11.6ZM20.8483 22.85C20.8483 23.0273 20.8134 23.2028 20.7455 23.3666C20.6777 23.5304 20.5782 23.6792 20.4529 23.8046C20.3275 23.9299 20.1787 24.0294 20.0149 24.0972C19.8511 24.1651 19.6756 24.2 19.4983 24.2C19.321 24.2 19.1454 24.1651 18.9817 24.0972C18.8179 24.0294 18.669 23.9299 18.5437 23.8046C18.4183 23.6792 18.3189 23.5304 18.251 23.3666C18.1832 23.2028 18.1483 23.0273 18.1483 22.85C18.1483 22.492 18.2905 22.1486 18.5437 21.8954C18.7969 21.6422 19.1402 21.5 19.4983 21.5C19.8563 21.5 20.1997 21.6422 20.4529 21.8954C20.706 22.1486 20.8483 22.492 20.8483 22.85ZM22.0633 17.3816C22.6177 17.049 23.273 16.9264 23.9101 17.036L25.3015 17.2754C25.8701 17.3735 26.4068 17.6069 26.8664 17.9559C27.3259 18.3049 27.6949 18.7592 27.9421 19.2806L30.1021 23.8292C31.1101 25.9712 31.3387 27.7622 31.1245 29.231C30.9556 30.433 30.443 31.5606 29.6485 32.4782C29.4277 32.7377 29.1462 32.9388 28.8291 33.0634C28.5119 33.1881 28.1689 33.2325 27.8305 33.1928C27.1961 33.1131 26.6157 32.7952 26.2069 32.3036L24.7345 30.5576C24.481 30.2575 24.1651 30.0164 23.8088 29.851C23.4525 29.6856 23.0645 29.6 22.6717 29.6H16.3249C15.9319 29.6002 15.5438 29.6861 15.1875 29.8518C14.8312 30.0175 14.5154 30.259 14.2621 30.5594L12.7897 32.3036C12.3757 32.7932 11.7943 33.1244 11.1661 33.1928C10.8276 33.2325 10.4846 33.1881 10.1675 33.0634C9.85034 32.9388 9.56888 32.7377 9.34808 32.4782C8.55354 31.5606 8.04099 30.433 7.87208 29.231C7.65608 27.7622 7.88648 25.9694 8.89628 23.831L11.0545 19.2806C11.3017 18.7592 11.6706 18.3049 12.1302 17.9559C12.5897 17.6069 13.1264 17.3735 13.6951 17.2754L15.0865 17.036C15.7236 16.9264 16.3789 17.049 16.9333 17.3816L17.1583 17.5166C17.5777 17.7686 18.0583 17.9 18.5443 17.9H20.4523C20.9404 17.8998 21.4194 17.7673 21.8383 17.5166L22.0633 17.3816ZM23.6041 18.8108C23.3919 18.7737 23.1735 18.814 22.9885 18.9242L22.7653 19.0592C22.066 19.4786 21.2659 19.7001 20.4505 19.7H18.5461C17.7313 19.6997 16.9318 19.4783 16.2331 19.0592L16.0081 18.9242C15.8231 18.814 15.6046 18.7737 15.3925 18.8108L14.0011 19.0502C13.7166 19.0991 13.4481 19.2158 13.2181 19.3903C12.9882 19.5647 12.8036 19.792 12.6799 20.0528L10.5235 24.596C9.63788 26.4734 9.49748 27.908 9.65228 28.97C9.77145 29.8329 10.1385 30.6426 10.7089 31.301C10.7392 31.3403 10.7797 31.3706 10.8261 31.3883C10.8725 31.4061 10.9228 31.4108 10.9717 31.4018C11.1464 31.3722 11.304 31.2793 11.4145 31.1408L12.8869 29.3966C13.3091 28.8961 13.8355 28.4937 14.4293 28.2176C15.0231 27.9416 15.67 27.7984 16.3249 27.7982H22.6717C23.3265 27.7984 23.9734 27.9416 24.5672 28.2176C25.161 28.4937 25.6874 28.8961 26.1097 29.3966L27.5821 31.1426C27.6928 31.2804 27.8505 31.3727 28.0249 31.4018C28.1329 31.4144 28.2139 31.3838 28.2877 31.301C28.7269 30.7916 29.1877 30.032 29.3443 28.97C29.5009 27.908 29.3587 26.4752 28.4731 24.596L26.3167 20.051C26.193 19.7902 26.0084 19.563 25.7784 19.3885C25.5485 19.214 25.28 19.0973 24.9955 19.0484L23.6041 18.8108Z" fill="#A5C7F4"/>
</svg>
