<svg width="78" height="76" viewBox="0 0 78 76" fill="none" xmlns="http://www.w3.org/2000/svg">
<path d="M26.1806 27.5172L35.3792 37.9973L26.1806 48.4827H12.439C10.5364 48.4827 9.17236 42.012 9.17236 37.9999C9.17236 33.9852 10.5364 27.5172 12.439 27.5172H26.1806Z" fill="#AFC1D1"/>
<path d="M18.2282 35.7902L15.3546 37.9999L18.2282 40.2096L21.1005 42.4193V37.9999V33.5779L18.2282 35.7902Z" fill="#1C1F2A"/>
<path d="M49.7929 51.131L39.3155 41.931L28.8274 51.131V64.8712C28.8274 66.7765 35.2981 68.1379 39.3128 68.1379C43.3249 68.1379 49.7929 66.7765 49.7929 64.8726V51.131Z" fill="#4D5D6D"/>
<path d="M37.1003 59.0834L39.3127 61.9544L41.5224 59.0834L43.7321 56.2098H39.3127H34.8906L37.1003 59.0834Z" fill="#1C1F2A"/>
<path d="M52.4382 27.5172L43.2396 37.9973L52.4382 48.4827H66.1811C68.0824 48.4827 69.4465 42.012 69.4465 37.9999C69.4465 33.9852 68.0824 27.5172 66.1811 27.5172H52.4382Z" fill="#4D5D6D"/>
<path d="M60.392 40.2096L63.2656 37.9999L60.392 35.7876L57.5184 33.5779V37.9999V42.4193L60.392 40.2096Z" fill="#1C1F2A"/>
<path d="M49.7929 24.8703L39.3141 34.069L28.8274 24.8703V11.1274C28.8274 9.22613 35.2981 7.86206 39.3128 7.86206C43.3249 7.86206 49.7929 9.22613 49.7929 11.1274V24.8703Z" fill="#4D5D6D"/>
<path d="M41.2753 17.3634L39.3106 14.4138L37.3437 17.3634L35.379 20.3103H39.3106H43.2411L41.2753 17.3634Z" fill="#1C1F2A"/>
</svg>
