<svg width="441" height="584" viewBox="0 0 441 584" fill="none" xmlns="http://www.w3.org/2000/svg">
<path d="M418.73 162.85C433.091 149.491 441.016 132.237 441 114.366V0.664112H352.8V114.402L220.5 237.436L88.2 114.402V0.664112H2.50402e-06V114.402C-0.00514282 132.261 7.91945 149.5 22.2705 162.85L161.494 292.3L22.2705 421.786C7.92954 435.126 0.0056556 452.351 2.50402e-06 470.197V583.935H88.2V470.197L220.5 347.164L352.8 470.197V583.935H441V470.197C440.994 452.351 433.07 435.126 418.73 421.786L279.506 292.3L418.73 162.85Z" fill="url(#paint0_linear_199_1208)"/>
<defs>
<linearGradient id="paint0_linear_199_1208" x1="216" y1="-2.66411" x2="196.279" y2="556.23" gradientUnits="userSpaceOnUse">
<stop stop-color="#FFAE23"/>
<stop offset="1" stop-color="#15202B"/>
</linearGradient>
</defs>
</svg>
