<svg width="22" height="23" viewBox="0 0 22 23" fill="none" xmlns="http://www.w3.org/2000/svg">
<path d="M11 11.5L2.794 8.22195L3.3 20.3H1.1L1.628 7.74895L0 7.09995L11 2.69995L22 7.09995L11 11.5ZM11 5.99995C10.395 5.99995 9.9 6.24195 9.9 6.54995C9.9 6.85795 10.395 7.09995 11 7.09995C11.605 7.09995 12.1 6.85795 12.1 6.54995C12.1 6.24195 11.605 5.99995 11 5.99995ZM11 12.6L17.127 10.147C17.908 11.181 18.447 12.424 18.623 13.777C18.293 13.733 17.952 13.7 17.6 13.7C14.795 13.7 12.342 15.207 11 17.451C10.3185 16.3081 9.35206 15.3616 8.1952 14.7041C7.03834 14.0466 5.73065 13.7006 4.4 13.7C4.048 13.7 3.707 13.733 3.377 13.777C3.553 12.424 4.092 11.181 4.873 10.147L11 12.6Z" fill="white"/>
</svg>
