<svg width="6" height="10" viewBox="0 0 6 10" fill="none" xmlns="http://www.w3.org/2000/svg">
<path d="M0.50089 5C0.500424 4.90146 0.519645 4.80382 0.557423 4.71281C0.595202 4.62179 0.650778 4.53924 0.72089 4.47L4.22089 0.999999C4.36185 0.908609 4.52941 0.867188 4.69671 0.882375C4.86401 0.897563 5.02137 0.968479 5.14357 1.08376C5.26577 1.19904 5.34572 1.352 5.37062 1.51814C5.39552 1.68428 5.36392 1.85396 5.28089 2L2.28089 5L5.28089 8C5.36392 8.14604 5.39552 8.31572 5.37062 8.48186C5.34572 8.648 5.26577 8.80096 5.14357 8.91624C5.02137 9.03152 4.86401 9.10244 4.69671 9.11762C4.52941 9.13281 4.36185 9.09139 4.22089 9L0.72089 5.5C0.586473 5.36749 0.507772 5.18862 0.50089 5Z" fill="white"/>
</svg>
