<svg width="17" height="18" viewBox="0 0 17 18" fill="none" xmlns="http://www.w3.org/2000/svg">
<path d="M8.50546 1.21803C6.99124 1.21803 5.62091 1.31272 4.61339 1.46914C4.1097 1.54733 3.69851 1.63881 3.38906 1.75236C3.23433 1.80914 3.10458 1.86907 2.99169 1.9547C2.88417 2.03628 2.77089 2.16588 2.76026 2.34484H2.73536C2.73536 2.67953 2.74738 3.00963 2.77069 3.33472H1.91046C1.90648 3.07069 1.91056 2.80606 1.92294 2.542L1.0327 2.33348C0.749014 5.87533 2.1286 9.32261 4.66745 11.7776L5.18724 10.795C5.04888 10.6804 4.91426 10.5614 4.78359 10.4381C4.97989 10.233 5.19413 10.0458 5.42375 9.87883C5.87093 10.3162 6.35948 10.6613 6.87848 10.8967C7.61273 11.4858 7.14586 11.8718 6.0982 12.1003C8.05264 12.4522 7.3914 14.1677 5.62921 15.1654C5.55815 15.1743 5.4879 15.1827 5.42069 15.1923C5.0207 15.2494 4.69434 15.3155 4.44432 15.3998C4.31931 15.442 4.2133 15.4862 4.11541 15.5544C4.01746 15.6227 3.89541 15.7439 3.89541 15.9332C3.89541 16.1224 4.0175 16.2426 4.11541 16.3108C4.2133 16.3791 4.31928 16.4233 4.44432 16.4655C4.69434 16.5498 5.02073 16.6159 5.42069 16.673C6.22069 16.7871 7.3061 16.8566 8.50546 16.8566C9.70483 16.8566 10.7902 16.7871 11.5902 16.673C11.9903 16.6159 12.3166 16.5498 12.5666 16.4655C12.6916 16.4233 12.7976 16.3791 12.8955 16.3109C12.9934 16.2426 13.1155 16.1225 13.1155 15.9332C13.1155 15.7439 12.9934 15.6227 12.8955 15.5544C12.7976 15.4862 12.6916 15.442 12.5666 15.3998C12.3166 15.3155 11.9902 15.2494 11.5902 15.1923C11.5233 15.1828 11.4534 15.1743 11.3826 15.1653C9.62036 14.1677 8.95915 12.4523 10.9137 12.1003C9.8655 11.8716 9.39859 11.4853 10.1344 10.8957C10.6571 10.6583 11.1487 10.3095 11.5984 9.86737C11.8192 10.0259 12.0248 10.2007 12.2117 10.3893C12.0749 10.5286 11.9341 10.6639 11.7894 10.795L12.3268 11.7776C14.9538 9.38845 16.1849 5.81663 15.9802 2.31469L15.0723 2.57932C15.0873 2.832 15.0936 3.08368 15.091 3.33469H14.2412C14.2648 3.00525 14.2765 2.67506 14.2765 2.34477H14.2516C14.2409 2.16581 14.1267 2.03622 14.0192 1.95464C13.9062 1.86897 13.7765 1.80911 13.6217 1.75233C13.3123 1.63871 12.9011 1.54723 12.3974 1.46904C11.3899 1.31265 10.0196 1.21793 8.5053 1.21793L8.50546 1.21803ZM8.50546 1.83853C9.99369 1.83853 11.3419 1.93329 12.302 2.08234C12.7822 2.15688 13.1673 2.24609 13.4081 2.33448C13.4427 2.34716 13.4671 2.35938 13.4953 2.37183C13.4671 2.38429 13.4428 2.39647 13.4081 2.40919C13.1673 2.49757 12.7821 2.58782 12.302 2.66236C11.3419 2.81144 9.99369 2.90621 8.50546 2.90621C7.0173 2.90621 5.66909 2.81141 4.70889 2.66233C4.22877 2.58779 3.84361 2.49754 3.60282 2.40915C3.56796 2.39634 3.54405 2.38432 3.51566 2.3718C3.54399 2.35932 3.56803 2.34723 3.60282 2.33445C3.84361 2.24606 4.2288 2.15681 4.70892 2.0823C5.66909 1.93322 7.01727 1.83853 8.50546 1.83853ZM1.95615 4.22497H2.86405C3.13157 6.1467 3.80138 7.83846 4.72967 9.08092C4.49811 9.27151 4.28452 9.4783 4.09257 9.70142C2.80933 8.15894 2.13219 6.22682 1.95615 4.22497ZM14.1479 4.22497H15.0444C14.859 6.20497 14.1228 8.08161 12.8841 9.63087C12.7015 9.42797 12.5035 9.23958 12.2917 9.06741C13.2151 7.82628 13.8812 6.13972 14.1479 4.225V4.22497Z" fill="white"/>
</svg>
