<svg width="17" height="18" viewBox="0 0 17 18" fill="none" xmlns="http://www.w3.org/2000/svg">
<g clip-path="url(#clip0_231_1720)">
<path d="M15.9471 6.73223L16.0865 7.66191V8.5916L15.2531 10.0559L13.9316 12.659L12.0689 14.9002L9.44258 16.1553L8.85488 16.9688L8.59922 17.3672L8.28047 17.5C8.28047 17.5 8.85488 15.3883 8.92461 15.3883C8.99434 15.3883 9.59863 15.4115 9.59863 15.4115L11.8133 14.1299L8.74199 14.9965L6.88594 16.2184L6.12891 17.148L5.90977 17.1945L6.60039 14.7508L6.82949 14.5682L7.5168 14.9965L10.4486 13.4957L12.3346 11.7857L12.826 9.51465L8.6623 10.2883L9.16699 9.68398L3.40957 7.91426L6.12891 7.56563L0.617188 3.48496L4.43223 4.08594L1.06875 0.5L9.46582 4.70352L8.41992 3.4418L12.5504 5.91211L7.79238 2.625L8.41328 3.9L6.76641 3.29902L5.25566 0.5L11.717 4.55078L10.2926 2.69805L13.8785 5.89883L14.277 5.60332L13.5797 5.05879L13.7191 3.80371L14.9742 3.4584L15.9438 4.27852L16.3256 4.41797L16.0932 4.62383L16.3754 5.02227L15.9404 5.26797L15.5984 5.93867L15.9471 6.73223Z" fill="white"/>
</g>
<defs>
<clipPath id="clip0_231_1720">
<rect width="17" height="17" fill="white" transform="translate(0 0.5)"/>
</clipPath>
</defs>
</svg>
