<svg width="17" height="18" viewBox="0 0 17 18" fill="none" xmlns="http://www.w3.org/2000/svg">
<g clip-path="url(#clip0_231_1734)">
<path d="M15.1862 9.76974C14.9504 9.38862 14.6208 9.07434 14.2289 8.8569C13.8371 8.63947 13.396 8.52616 12.9478 8.52779H4.75004C4.40519 8.5281 4.06578 8.44179 3.76297 8.27677C3.46016 8.11175 3.20365 7.87332 3.01699 7.58335C2.82919 7.29592 2.72183 6.96343 2.70605 6.62045C2.69027 6.27747 2.76665 5.93653 2.92726 5.63307L4.63671 2.32751L5.30726 3.09724L4.01338 5.60001L8.18782 2.92724C8.28363 2.86462 8.40039 2.84262 8.51242 2.86609C8.62444 2.88956 8.72256 2.95657 8.78518 3.05238C8.8478 3.14819 8.8698 3.26495 8.84633 3.37697C8.82286 3.489 8.75585 3.58712 8.66004 3.64974L3.70171 6.81835C3.72751 6.90521 3.76568 6.98791 3.81504 7.0639C3.9025 7.19479 4.01759 7.3049 4.15221 7.38649C4.28683 7.46808 4.43771 7.51916 4.59421 7.53613L8.55143 4.98613C8.6466 4.92681 8.76119 4.90705 8.87073 4.93106C8.98027 4.95507 9.07608 5.02095 9.13772 5.11464C9.19935 5.20832 9.22192 5.32239 9.20061 5.43248C9.1793 5.54258 9.11579 5.63999 9.02365 5.7039L6.13838 7.55501H9.82171L10.9598 5.2789C11.1629 4.87577 11.2595 4.42734 11.2402 3.97633C11.221 3.52532 11.0867 3.08673 10.85 2.70234C10.6133 2.31794 10.2821 2.00054 9.88805 1.78036C9.49396 1.56017 9.05008 1.44454 8.59865 1.44446H4.24949C4.16098 1.44428 4.07421 1.46898 3.99907 1.51574C3.92392 1.56249 3.86343 1.62943 3.82449 1.7089L1.83171 5.64251C1.62857 6.04565 1.53201 6.49407 1.55123 6.94509C1.57044 7.3961 1.7048 7.83469 1.94149 8.21908C2.17819 8.60347 2.50934 8.92087 2.90343 9.14106C3.29751 9.36124 3.7414 9.47688 4.19282 9.47696H7.80532L6.1856 12.7211C5.98246 13.1243 5.8859 13.5727 5.90511 14.0237C5.92433 14.4747 6.05868 14.9133 6.29538 15.2977C6.53207 15.6821 6.86323 15.9995 7.25731 16.2197C7.6514 16.4399 8.09529 16.5555 8.54671 16.5556H12.9289C13.0246 16.5549 13.1178 16.5252 13.1963 16.4704C13.2747 16.4156 13.3346 16.3383 13.3681 16.2486L15.3231 12.3575C15.5252 11.9509 15.6187 11.499 15.5947 11.0456C15.5707 10.5922 15.43 10.1527 15.1862 9.76974ZM8.38143 12.5747C8.31839 12.4801 8.29542 12.3644 8.31755 12.2528C8.33968 12.1413 8.4051 12.0431 8.49949 11.9797L11.3328 10.1475C11.3815 10.1165 11.4358 10.0954 11.4927 10.0854C11.5495 10.0754 11.6077 10.0766 11.6641 10.0891C11.7204 10.1016 11.7738 10.1251 11.8211 10.1582C11.8683 10.1913 11.9086 10.2334 11.9396 10.2821C11.9706 10.3308 11.9917 10.3851 12.0018 10.4419C12.0118 10.4988 12.0105 10.557 11.998 10.6134C11.9855 10.6697 11.962 10.7231 11.9289 10.7703C11.8958 10.8176 11.8537 10.8579 11.805 10.8889L8.97171 12.7211C8.92429 12.7519 8.87127 12.773 8.81568 12.7833C8.76009 12.7935 8.70302 12.7927 8.64775 12.7808C8.59248 12.769 8.54009 12.7464 8.49358 12.7142C8.44707 12.6821 8.40735 12.6411 8.37671 12.5936L8.38143 12.5747ZM13.6939 11.9939L9.44393 14.7233C9.39649 14.7544 9.34341 14.7757 9.28771 14.7862C9.23202 14.7967 9.1748 14.7961 9.11933 14.7845C9.06386 14.7729 9.01122 14.7504 8.96442 14.7185C8.91762 14.6865 8.87758 14.6456 8.84657 14.5982C8.81556 14.5508 8.7942 14.4977 8.78371 14.442C8.77322 14.3863 8.7738 14.3291 8.78542 14.2736C8.79704 14.2181 8.81947 14.1655 8.85144 14.1187C8.8834 14.0719 8.92427 14.0319 8.97171 14.0008L13.2217 11.2714C13.2691 11.2404 13.3222 11.219 13.3779 11.2085C13.4336 11.1981 13.4908 11.1986 13.5463 11.2103C13.6018 11.2219 13.6544 11.2443 13.7012 11.2763C13.748 11.3082 13.7881 11.3491 13.8191 11.3965C13.8501 11.444 13.8714 11.4971 13.8819 11.5528C13.8924 11.6085 13.8918 11.6657 13.8802 11.7211C13.8686 11.7766 13.8462 11.8292 13.8142 11.876C13.7822 11.9228 13.7414 11.9629 13.6939 11.9939Z" fill="white"/>
</g>
<defs>
<clipPath id="clip0_231_1734">
<rect width="17" height="17" fill="white" transform="translate(0 0.5)"/>
</clipPath>
</defs>
</svg>
