<svg width="17" height="18" viewBox="0 0 17 18" fill="none" xmlns="http://www.w3.org/2000/svg">
<path d="M7.9681 1.91669C4.97964 1.91952 3.43406 1.97335 2.45302 2.95369C1.47268 3.93544 1.41885 5.48031 1.41602 8.46877H4.89677C4.64231 8.15073 4.45942 7.78156 4.36056 7.38644C3.98018 5.8621 5.36143 4.48085 6.88577 4.86123C7.29093 4.96252 7.65785 5.14881 7.9681 5.39744V1.91669ZM1.41602 9.53127C1.41885 12.519 1.47268 14.0646 2.45302 15.0456C3.43477 16.0267 4.97964 16.0798 7.9681 16.0834V10.5038C7.68871 11.063 7.25905 11.5333 6.72732 11.862C6.19558 12.1907 5.5828 12.3647 4.95768 12.3646C4.81679 12.3646 4.68166 12.3086 4.58203 12.209C4.4824 12.1094 4.42643 11.9742 4.42643 11.8334C4.42643 11.6925 4.4824 11.5573 4.58203 11.4577C4.68166 11.3581 4.81679 11.3021 4.95768 11.3021C5.47595 11.3022 5.97909 11.1275 6.38568 10.8061C6.79228 10.4847 7.07854 10.0355 7.19814 9.53127H1.41602ZM9.0306 16.0834C12.0183 16.0798 13.5639 16.0267 14.545 15.0456C15.526 14.0653 15.5791 12.519 15.5827 9.53127H9.80056C9.92016 10.0355 10.2064 10.4847 10.613 10.8061C11.0196 11.1275 11.5228 11.3022 12.041 11.3021C12.1819 11.3021 12.317 11.3581 12.4167 11.4577C12.5163 11.5573 12.5723 11.6925 12.5723 11.8334C12.5723 11.9742 12.5163 12.1094 12.4167 12.209C12.317 12.3086 12.1819 12.3646 12.041 12.3646C11.4159 12.3647 10.8031 12.1907 10.2714 11.862C9.73965 11.5333 9.30999 11.063 9.0306 10.5038V16.0834ZM15.5827 8.46877C15.5791 5.48031 15.526 3.93473 14.545 2.95369C13.5646 1.97335 12.0183 1.91952 9.0306 1.91669V5.39744C9.34843 5.14307 9.71735 4.96019 10.1122 4.86123C11.6373 4.48015 13.0192 5.8614 12.6374 7.38644C12.5388 7.7815 12.3561 8.15066 12.1019 8.46877H15.5827Z" fill="white"/>
<path d="M6.62948 5.89253C7.012 5.98844 7.35156 6.20928 7.59433 6.52006C7.8371 6.83084 7.96918 7.21376 7.96965 7.60811V8.46874H7.10902C6.71467 8.46827 6.33175 8.33619 6.02097 8.09342C5.7102 7.85065 5.48935 7.51109 5.39344 7.12857C5.35097 6.95784 5.35339 6.77903 5.40046 6.60951C5.44752 6.43999 5.53763 6.28552 5.66203 6.16112C5.78644 6.03672 5.9409 5.94661 6.11042 5.89954C6.27994 5.85248 6.45875 5.85006 6.62948 5.89253ZM9.03215 7.60811V8.46874H9.89277C10.7038 8.46874 11.4114 7.91624 11.6084 7.12857C11.6509 6.95777 11.6485 6.77887 11.6014 6.60927C11.5543 6.43968 11.4641 6.28515 11.3396 6.16073C11.2151 6.0363 11.0605 5.94621 10.8909 5.89921C10.7213 5.85222 10.5424 5.84991 10.3716 5.89253C9.98922 5.98857 9.64982 6.20948 9.40719 6.52024C9.16456 6.831 9.03257 7.21385 9.03215 7.60811Z" fill="white"/>
</svg>
