<svg width="17" height="18" viewBox="0 0 17 18" fill="none" xmlns="http://www.w3.org/2000/svg">
<g clip-path="url(#clip0_231_1704)">
<path d="M8.49973 1.826C10.4728 1.826 12.2461 2.50706 13.4404 3.73213C14.4227 3.86114 15.3494 4.26228 16.1157 4.89025C14.7759 2.07462 12.0007 0.5 8.49973 0.5C5.04661 0.5 2.25223 2.0725 0.896484 4.87963C1.59904 4.30748 2.43626 3.92454 3.32855 3.76719C4.50048 2.489 6.34711 1.826 8.49973 1.826Z" fill="white"/>
<path d="M12.7502 13.25C11.645 13.2499 10.5832 12.8193 9.79012 12.0494L9.788 12.0472C9.69648 11.9784 9.59823 11.9189 9.49475 11.8698C9.18294 11.7265 8.84341 11.6536 8.50025 11.6562C8.06037 11.6562 7.72569 11.7657 7.50681 11.8698C7.40297 11.9189 7.30436 11.9783 7.2125 12.0472L7.21037 12.0494C6.7108 12.5344 6.09973 12.8892 5.43088 13.0826C4.76203 13.2761 4.0559 13.3023 3.37456 13.1589C2.69323 13.0154 2.05757 12.7068 1.52347 12.2601C0.989368 11.8135 0.573192 11.2424 0.311532 10.5972C0.0498717 9.95194 -0.0492575 9.25231 0.0228606 8.55979C0.0949786 7.86727 0.336135 7.20308 0.725125 6.62561C1.11411 6.04814 1.63902 5.57508 2.2537 5.24803C2.86837 4.92098 3.55398 4.74996 4.25025 4.75H12.7502C13.8774 4.75 14.9584 5.19777 15.7555 5.9948C16.5525 6.79183 17.0002 7.87283 17.0002 9C17.0002 10.1272 16.5525 11.2082 15.7555 12.0052C14.9584 12.8022 13.8774 13.25 12.7502 13.25Z" fill="white"/>
</g>
<defs>
<clipPath id="clip0_231_1704">
<rect width="17" height="17" fill="white" transform="translate(0 0.5)"/>
</clipPath>
</defs>
</svg>
