<svg width="17" height="18" viewBox="0 0 17 18" fill="none" xmlns="http://www.w3.org/2000/svg">
<path fill-rule="evenodd" clip-rule="evenodd" d="M8.49935 1.91669C7.18432 1.91669 5.92315 2.43908 4.99328 3.36895C4.06341 4.29882 3.54102 5.55999 3.54102 6.87502C2.97743 6.87502 2.43693 7.0989 2.03841 7.49742C1.6399 7.89593 1.41602 8.43644 1.41602 9.00002V10.4167C1.41602 10.9803 1.6399 11.5208 2.03841 11.9193C2.43693 12.3178 2.97743 12.5417 3.54102 12.5417H4.24935C4.43721 12.5417 4.61738 12.4671 4.75022 12.3342C4.88305 12.2014 4.95768 12.0212 4.95768 11.8334V6.87502C4.95768 5.93571 5.33082 5.03488 5.99501 4.37068C6.6592 3.70649 7.56004 3.33335 8.49935 3.33335C9.43866 3.33335 10.3395 3.70649 11.0037 4.37068C11.6679 5.03488 12.041 5.93571 12.041 6.87502V11.8921C12.0405 12.44 11.8226 12.9652 11.4352 13.3526C11.0478 13.7399 10.5226 13.9578 9.97481 13.9584H9.91602C9.91602 13.5826 9.76676 13.2223 9.50108 12.9566C9.23541 12.6909 8.87507 12.5417 8.49935 12.5417H7.79102C7.41529 12.5417 7.05496 12.6909 6.78928 12.9566C6.5236 13.2223 6.37435 13.5826 6.37435 13.9584V14.6667C6.37435 15.0424 6.5236 15.4027 6.78928 15.6684C7.05496 15.9341 7.41529 16.0834 7.79102 16.0834H8.49935C8.74802 16.0833 8.99231 16.0179 9.20766 15.8935C9.42302 15.7692 9.60185 15.5904 9.72618 15.375H9.97481C10.7856 15.3745 11.5709 15.0913 12.1954 14.5741C12.8198 14.0569 13.2444 13.3382 13.3961 12.5417H13.4577C14.0213 12.5417 14.5618 12.3178 14.9603 11.9193C15.3588 11.5208 15.5827 10.9803 15.5827 10.4167V9.00002C15.5827 8.43644 15.3588 7.89593 14.9603 7.49742C14.5618 7.0989 14.0213 6.87502 13.4577 6.87502C13.4577 5.55999 12.9353 4.29882 12.0054 3.36895C11.0756 2.43908 9.81438 1.91669 8.49935 1.91669ZM9.52643 4.23648C9.00203 4.03262 8.4288 3.9895 7.8798 4.11262C7.3308 4.23574 6.83089 4.51953 6.44377 4.92781C6.31452 5.0642 6.24474 5.24634 6.24979 5.43418C6.25484 5.62201 6.33429 5.80015 6.47068 5.9294C6.60707 6.05864 6.78922 6.12842 6.97705 6.12337C7.16488 6.11832 7.34302 6.03887 7.47227 5.90248C7.60076 5.76697 7.75478 5.6582 7.92546 5.58242C8.09614 5.50665 8.28012 5.46537 8.46681 5.46096C8.6535 5.45655 8.83923 5.4891 9.0133 5.55672C9.18737 5.62435 9.34635 5.72573 9.4811 5.85502C9.54817 5.91948 9.62727 5.9701 9.7139 6.00399C9.80054 6.03788 9.89299 6.05438 9.986 6.05254C10.079 6.0507 10.1707 6.03055 10.256 5.99326C10.3412 5.95597 10.4182 5.90225 10.4827 5.83519C10.5471 5.76812 10.5978 5.68901 10.6317 5.60238C10.6655 5.51575 10.682 5.42329 10.6802 5.33029C10.6784 5.23728 10.6582 5.14555 10.6209 5.06033C10.5836 4.97511 10.5299 4.89807 10.4628 4.8336C10.1934 4.57481 9.87536 4.37188 9.52714 4.23648H9.52643Z" fill="white"/>
</svg>
