<svg width="17" height="18" viewBox="0 0 17 18" fill="none" xmlns="http://www.w3.org/2000/svg">
<path d="M7.70183 1.34668C4.97619 1.36993 2.29404 2.5996 0.619141 4.78736C1.48508 4.04998 2.51345 3.51551 3.60951 3.21021C1.54295 4.99335 0.469063 7.82843 0.965682 10.6902C1.00156 9.76423 1.21906 8.85432 1.60584 8.01221C1.64415 9.72177 2.21983 11.4037 3.33971 12.7717C2.07789 10.2481 2.58413 6.36281 4.66265 4.79254C5.05589 4.59147 5.46855 4.43087 5.89425 4.31322C9.44921 3.33123 13.0972 5.51799 14.0498 9.18262C14.5997 11.2984 14.1267 13.444 12.9458 15.07C12.7904 15.2254 12.6187 15.3669 12.4322 15.4975C12.2347 15.4377 12.0562 15.3584 11.8999 15.2577C11.5012 15.0008 11.2521 14.5954 11.2141 14.1413C11.1445 13.3116 11.6833 12.3811 12.759 11.4675L11.7723 10.7338C11.2398 12.053 10.4789 12.7906 9.64109 12.8982C9.18169 12.9572 8.72309 12.8093 8.34518 12.505C8.06594 12.2802 7.82608 11.9731 7.63131 11.595C7.07715 12.236 6.94334 13.0279 7.10006 13.8289C7.28211 14.7599 7.8804 15.6778 8.6699 16.2279C9.39948 16.7363 10.3166 16.9319 11.1539 16.7716C11.4542 16.7141 11.7433 16.6112 12.012 16.4613C12.6115 16.165 13.1541 15.7931 13.5808 15.2992C15.7447 13.3743 16.777 10.2816 15.9871 7.24223C15.058 3.66808 11.9111 1.32284 8.48211 1.35914C8.42858 1.3597 8.37486 1.36053 8.32124 1.36226C8.11469 1.35008 7.90821 1.34488 7.7018 1.34665L7.70183 1.34668ZM4.69174 6.16529C4.2757 6.1633 4.09176 6.69435 4.49043 6.95074L10.7555 11.3678C10.8979 11.1537 11.035 10.8982 11.1622 10.5979L5.01231 6.26174C4.896 6.19461 4.78773 6.16579 4.69174 6.16529Z" fill="white"/>
</svg>
