<svg width="34" height="34" viewBox="0 0 34 34" fill="none" xmlns="http://www.w3.org/2000/svg">
<path d="M15.4037 1.69335C9.95237 1.73984 4.58808 4.19919 1.23828 8.5747C2.97016 7.09995 5.02689 6.03101 7.21903 5.4204C3.0859 8.98668 0.938125 14.6568 1.93136 20.3804C2.00311 18.5284 2.43813 16.7086 3.21168 15.0244C3.28831 18.4435 4.43966 21.8073 6.67941 24.5433C4.15577 19.4962 5.16827 11.7256 9.3253 8.58506C10.1118 8.18292 10.9371 7.86173 11.7885 7.62642C18.8984 5.66245 26.1945 10.036 28.0997 17.3652C29.1995 21.5968 28.2534 25.888 25.8917 29.1399C25.5809 29.4507 25.2374 29.7337 24.8644 29.9949C24.4694 29.8754 24.1124 29.7169 23.7999 29.5154C23.0023 29.0017 22.5043 28.1908 22.4282 27.2826C22.289 25.6231 23.3665 23.7621 25.5181 21.9349L23.5447 20.4677C22.4796 23.106 20.9579 24.5813 19.2822 24.7964C18.3634 24.9144 17.4462 24.6187 16.6903 24.0099C16.1319 23.5603 15.6522 22.9463 15.2626 22.19C14.1543 23.472 13.8867 25.0557 14.2001 26.6578C14.5642 28.5198 15.7608 30.3555 17.3398 31.4558C18.7989 32.4726 20.6332 32.8637 22.3079 32.5432C22.9084 32.4282 23.4866 32.2223 24.024 31.9227C25.223 31.33 26.3081 30.5862 27.1617 29.5985C31.4894 25.7486 33.554 19.5631 31.9741 13.4844C30.116 6.33615 23.8222 1.64567 16.9642 1.71826C16.8572 1.71938 16.7497 1.72104 16.6425 1.7245C16.2294 1.70015 15.8164 1.68974 15.4036 1.69329L15.4037 1.69335ZM9.38347 11.3306C8.5514 11.3266 8.18351 12.3887 8.98085 12.9015L21.5109 21.7356C21.7958 21.3073 22.0701 20.7963 22.3244 20.1959L10.0246 11.5235C9.792 11.3892 9.57545 11.3316 9.38347 11.3306Z" fill="white"/>
</svg>
