<svg width="34" height="34" viewBox="0 0 34 34" fill="none" xmlns="http://www.w3.org/2000/svg">
<g clip-path="url(#clip0_529_3133)">
<path d="M30.3723 18.5394C29.9007 17.7772 29.2416 17.1486 28.4579 16.7138C27.6741 16.2789 26.7919 16.0523 25.8956 16.0556H9.50008C8.81037 16.0562 8.13156 15.8835 7.52594 15.5535C6.92032 15.2235 6.4073 14.7466 6.03397 14.1667C5.65839 13.5918 5.44365 12.9268 5.41209 12.2409C5.38054 11.5549 5.53331 10.873 5.85453 10.2661L9.27342 3.655L10.6145 5.19444L8.02675 10.2L16.3756 4.85444C16.5673 4.7292 16.8008 4.68521 17.0248 4.73215C17.2489 4.77908 17.4451 4.9131 17.5704 5.10472C17.6956 5.29634 17.7396 5.52986 17.6927 5.75392C17.6457 5.97797 17.5117 6.1742 17.3201 6.29944L7.40342 12.6367C7.45502 12.8104 7.53136 12.9758 7.63008 13.1278C7.805 13.3895 8.03518 13.6098 8.30443 13.773C8.57367 13.9361 8.87542 14.0383 9.18842 14.0722L17.1029 8.97222C17.2932 8.85359 17.5224 8.81407 17.7415 8.86209C17.9605 8.91011 18.1522 9.04187 18.2754 9.22924C18.3987 9.41661 18.4438 9.64474 18.4012 9.86494C18.3586 10.0851 18.2316 10.2799 18.0473 10.4078L12.2768 14.11H19.6434L21.9195 9.55778C22.3258 8.75151 22.5189 7.85466 22.4805 6.95263C22.4421 6.0506 22.1734 5.17343 21.7 4.40465C21.2266 3.63586 20.5643 3.00106 19.7761 2.56069C18.9879 2.12032 18.1002 1.88904 17.1973 1.88889H8.49897C8.32196 1.88853 8.14842 1.93793 7.99813 2.03144C7.84784 2.12496 7.72686 2.25882 7.64897 2.41778L3.66342 10.285C3.25714 11.0913 3.06402 11.9881 3.10245 12.8901C3.14088 13.7922 3.40959 14.6693 3.88298 15.4381C4.35637 16.2069 5.01869 16.8417 5.80685 17.2821C6.59502 17.7225 7.48279 17.9537 8.38564 17.9539H15.6106L12.3712 24.4422C11.9649 25.2485 11.7718 26.1453 11.8102 27.0474C11.8487 27.9494 12.1174 28.8266 12.5908 29.5954C13.0641 30.3641 13.7265 30.9989 14.5146 31.4393C15.3028 31.8797 16.1906 32.111 17.0934 32.1111H25.8579C26.0492 32.1098 26.2357 32.0504 26.3925 31.9408C26.5494 31.8312 26.6692 31.6765 26.7362 31.4972L30.6462 23.715C31.0503 22.9018 31.2374 21.998 31.1894 21.0912C31.1415 20.1844 30.86 19.3054 30.3723 18.5394ZM16.7629 24.1494C16.6368 23.9602 16.5908 23.7287 16.6351 23.5057C16.6794 23.2826 16.8102 23.0862 16.999 22.9594L22.6656 19.295C22.763 19.233 22.8716 19.1908 22.9853 19.1707C23.099 19.1507 23.2155 19.1532 23.3282 19.1782C23.4409 19.2032 23.5476 19.2502 23.6421 19.3164C23.7367 19.3826 23.8172 19.4668 23.8792 19.5642C23.9413 19.6615 23.9835 19.7701 24.0035 19.8838C24.0236 19.9975 24.021 20.114 23.996 20.2267C23.971 20.3394 23.9241 20.4461 23.8579 20.5406C23.7916 20.6352 23.7074 20.7158 23.6101 20.7778L17.9434 24.4422C17.8486 24.5038 17.7425 24.546 17.6314 24.5665C17.5202 24.587 17.406 24.5853 17.2955 24.5616C17.185 24.5379 17.0802 24.4927 16.9872 24.4284C16.8941 24.3642 16.8147 24.2822 16.7534 24.1872L16.7629 24.1494ZM27.3879 22.9878L18.8879 28.4467C18.793 28.5087 18.6868 28.5514 18.5754 28.5724C18.464 28.5934 18.3496 28.5922 18.2387 28.569C18.1277 28.5457 18.0224 28.5009 17.9288 28.4369C17.8352 28.373 17.7552 28.2913 17.6931 28.1964C17.6311 28.1015 17.5884 27.9953 17.5674 27.884C17.5464 27.7726 17.5476 27.6581 17.5708 27.5472C17.5941 27.4363 17.6389 27.331 17.7029 27.2374C17.7668 27.1438 17.8485 27.0637 17.9434 27.0017L26.4434 21.5428C26.5383 21.4808 26.6445 21.438 26.7558 21.4171C26.8672 21.3961 26.9817 21.3972 27.0926 21.4205C27.2036 21.4437 27.3088 21.4886 27.4024 21.5525C27.496 21.6164 27.5761 21.6982 27.6381 21.7931C27.7002 21.8879 27.7429 21.9941 27.7639 22.1055C27.7848 22.2169 27.7837 22.3313 27.7604 22.4422C27.7372 22.5532 27.6923 22.6585 27.6284 22.7521C27.5645 22.8457 27.4827 22.9258 27.3879 22.9878Z" fill="white"/>
</g>
<defs>
<clipPath id="clip0_529_3133">
<rect width="34" height="34" fill="white"/>
</clipPath>
</defs>
</svg>
