<svg width="51" height="39" viewBox="0 0 51 39" fill="none" xmlns="http://www.w3.org/2000/svg">
<path d="M44.625 3.5625C45.4704 3.5625 46.2811 3.89832 46.8789 4.4961C47.4767 5.09387 47.8125 5.90462 47.8125 6.75V32.25C47.8125 33.0954 47.4767 33.9061 46.8789 34.5039C46.2811 35.1017 45.4704 35.4375 44.625 35.4375H6.375C5.52962 35.4375 4.71887 35.1017 4.1211 34.5039C3.52332 33.9061 3.1875 33.0954 3.1875 32.25V6.75C3.1875 5.90462 3.52332 5.09387 4.1211 4.4961C4.71887 3.89832 5.52962 3.5625 6.375 3.5625H44.625ZM6.375 0.375C4.68424 0.375 3.06274 1.04665 1.86719 2.24219C0.67165 3.43774 0 5.05924 0 6.75L0 32.25C0 33.9408 0.67165 35.5623 1.86719 36.7578C3.06274 37.9533 4.68424 38.625 6.375 38.625H44.625C46.3158 38.625 47.9373 37.9533 49.1328 36.7578C50.3283 35.5623 51 33.9408 51 32.25V6.75C51 5.05924 50.3283 3.43774 49.1328 2.24219C47.9373 1.04665 46.3158 0.375 44.625 0.375H6.375Z" fill="#789CE4"/>
<path d="M14.3692 29.0625H18.9242L25.2673 9.94069H21.0694L16.8204 24.9443H16.6387L12.3516 9.94069H7.96875L14.3692 29.0625ZM34.7278 9.94069H27.0938V29.0625H30.8327V21.9321H34.2242L37.5711 29.0625H41.8009L37.9631 21.3583C39.7003 20.6889 41.4375 18.7956 41.4375 15.9938C41.4375 12.3377 38.9736 9.94069 34.7278 9.94069ZM30.8327 19.0888V12.9114H34.1796C36.1877 12.9114 37.5264 14.0175 37.5264 16.0639C37.5264 18.0816 36.2259 19.092 34.1254 19.092L30.8327 19.0888Z" fill="#789CE4"/>
</svg>
