<svg width="30" height="30" viewBox="0 0 30 30" fill="none" xmlns="http://www.w3.org/2000/svg">
<path fill-rule="evenodd" clip-rule="evenodd" d="M14.9987 0.833313C12.3686 0.833313 9.84629 1.8781 7.98656 3.73784C6.12682 5.59757 5.08203 8.11992 5.08203 10.75C3.95486 10.75 2.87386 11.1977 2.07683 11.9948C1.2798 12.7918 0.832031 13.8728 0.832031 15V17.8333C0.832031 18.9605 1.2798 20.0415 2.07683 20.8385C2.87386 21.6355 3.95486 22.0833 5.08203 22.0833H6.4987C6.87442 22.0833 7.23476 21.9341 7.50043 21.6684C7.76611 21.4027 7.91536 21.0424 7.91536 20.6666V10.75C7.91536 8.87136 8.66164 7.06969 9.99002 5.74131C11.3184 4.41292 13.1201 3.66665 14.9987 3.66665C16.8773 3.66665 18.679 4.41292 20.0074 5.74131C21.3358 7.06969 22.082 8.87136 22.082 10.75V20.7842C22.0809 21.8799 21.6452 22.9303 20.8704 23.705C20.0957 24.4798 19.0453 24.9155 17.9496 24.9166H17.832C17.832 24.1652 17.5335 23.4445 17.0022 22.9132C16.4708 22.3818 15.7501 22.0833 14.9987 22.0833H13.582C12.8306 22.0833 12.1099 22.3818 11.5786 22.9132C11.0472 23.4445 10.7487 24.1652 10.7487 24.9166V26.3333C10.7487 27.0848 11.0472 27.8054 11.5786 28.3368C12.1099 28.8681 12.8306 29.1666 13.582 29.1666H14.9987C15.496 29.1666 15.9846 29.0357 16.4153 28.787C16.846 28.5384 17.2037 28.1807 17.4524 27.75H17.9496C19.5713 27.7489 21.1418 27.1825 22.3907 26.1481C23.6397 25.1138 24.4889 23.6763 24.7921 22.0833H24.9154C26.0425 22.0833 27.1235 21.6355 27.9206 20.8385C28.7176 20.0415 29.1654 18.9605 29.1654 17.8333V15C29.1654 13.8728 28.7176 12.7918 27.9206 11.9948C27.1235 11.1977 26.0425 10.75 24.9154 10.75C24.9154 8.11992 23.8706 5.59757 22.0108 3.73784C20.1511 1.8781 17.6288 0.833313 14.9987 0.833313ZM17.0529 5.4729C16.0041 5.06517 14.8576 4.97893 13.7596 5.22518C12.6616 5.47142 11.6618 6.03899 10.8875 6.85556C10.629 7.12834 10.4895 7.49263 10.4996 7.8683C10.5097 8.24396 10.6686 8.60023 10.9414 8.85873C11.2141 9.11723 11.5784 9.25678 11.9541 9.24668C12.3298 9.23659 12.686 9.07767 12.9445 8.8049C13.2015 8.53387 13.5096 8.31633 13.8509 8.16479C14.1923 8.01324 14.5602 7.93069 14.9336 7.92186C15.307 7.91304 15.6785 7.97813 16.0266 8.11339C16.3747 8.24864 16.6927 8.45139 16.9622 8.70998C17.0963 8.8389 17.2545 8.94015 17.4278 9.00793C17.6011 9.07571 17.786 9.1087 17.972 9.10502C18.158 9.10133 18.3415 9.06105 18.5119 8.98646C18.6824 8.91187 18.8364 8.80445 18.9654 8.67031C19.0943 8.53618 19.1955 8.37796 19.2633 8.2047C19.3311 8.03144 19.3641 7.84653 19.3604 7.66051C19.3567 7.4745 19.3164 7.29104 19.2418 7.1206C19.1673 6.95015 19.0598 6.79607 18.9257 6.66715C18.3867 6.14957 17.7507 5.7437 17.0543 5.4729H17.0529Z" fill="white"/>
</svg>
