<svg width="34" height="34" viewBox="0 0 34 34" fill="none" xmlns="http://www.w3.org/2000/svg">
<path d="M15.9362 2.83331C9.95928 2.83898 6.86811 2.94665 4.90603 4.90731C2.94536 6.87081 2.8377 9.96056 2.83203 15.9375H9.79353C9.28462 15.3014 8.91884 14.5631 8.72111 13.7728C7.96036 10.7241 10.7229 7.96165 13.7715 8.7224C14.5819 8.92498 15.3157 9.29756 15.9362 9.79481V2.83331ZM2.83203 18.0625C2.8377 24.038 2.94536 27.1291 4.90603 29.0912C6.86953 31.0533 9.95928 31.1596 15.9362 31.1666V20.0076C15.3774 21.126 14.5181 22.0666 13.4546 22.7239C12.3912 23.3813 11.1656 23.7294 9.91536 23.7291C9.63357 23.7291 9.36332 23.6172 9.16406 23.4179C8.96481 23.2187 8.85286 22.9484 8.85286 22.6666C8.85286 22.3849 8.96481 22.1146 9.16406 21.9153C9.36332 21.7161 9.63357 21.6041 9.91536 21.6041C10.9519 21.6044 11.9582 21.2548 12.7714 20.6121C13.5846 19.9694 14.1571 19.071 14.3963 18.0625H2.83203ZM18.0612 31.1666C24.0367 31.1596 27.1279 31.0533 29.0899 29.0912C31.052 27.1306 31.1583 24.038 31.1654 18.0625H19.6011C19.8403 19.071 20.4128 19.9694 21.226 20.6121C22.0392 21.2548 23.0455 21.6044 24.082 21.6041C24.3638 21.6041 24.6341 21.7161 24.8333 21.9153C25.0326 22.1146 25.1445 22.3849 25.1445 22.6666C25.1445 22.9484 25.0326 23.2187 24.8333 23.4179C24.6341 23.6172 24.3638 23.7291 24.082 23.7291C22.8318 23.7294 21.6062 23.3813 20.5428 22.7239C19.4793 22.0666 18.62 21.126 18.0612 20.0076V31.1666ZM31.1654 15.9375C31.1583 9.96056 31.052 6.8694 29.0899 4.90731C27.1293 2.94665 24.0367 2.83898 18.0612 2.83331V9.79481C18.6969 9.28609 19.4347 8.92031 20.2244 8.7224C23.2745 7.96023 26.0384 10.7227 25.2749 13.7728C25.0776 14.5629 24.7123 15.3013 24.2039 15.9375H31.1654Z" fill="white"/>
<path d="M13.259 10.7851C14.024 10.9769 14.7031 11.4186 15.1887 12.0401C15.6742 12.6617 15.9384 13.4275 15.9393 14.2162V15.9375H14.218C13.4293 15.9365 12.6635 15.6724 12.0419 15.1868C11.4204 14.7013 10.9787 14.0222 10.7869 13.2571C10.7019 12.9157 10.7068 12.5581 10.8009 12.219C10.895 11.88 11.0753 11.571 11.3241 11.3222C11.5729 11.0734 11.8818 10.8932 12.2208 10.7991C12.5599 10.705 12.9175 10.7001 13.259 10.7851ZM18.0643 14.2162V15.9375H19.7855C21.4076 15.9375 22.8229 14.8325 23.2167 13.2571C23.3017 12.9155 23.2969 12.5577 23.2027 12.2185C23.1086 11.8794 22.9282 11.5703 22.6792 11.3215C22.4302 11.0726 22.1211 10.8924 21.7818 10.7984C21.4426 10.7044 21.0848 10.6998 20.7432 10.7851C19.9784 10.9771 19.2996 11.419 18.8144 12.0405C18.3291 12.662 18.0651 13.4277 18.0643 14.2162Z" fill="white"/>
</svg>
