<svg width="68" height="16" viewBox="0 0 68 16" fill="none" xmlns="http://www.w3.org/2000/svg">
<path d="M0.000520838 15.259H2.97552C2.99834 15.2505 3.01783 15.2349 3.0311 15.2145C3.04437 15.1941 3.05071 15.17 3.04919 15.1457V10.839C3.04919 9.45633 3.82835 8.50433 4.96169 8.50433H17.2102C19.9699 8.50433 21.31 6.80149 21.31 4.56883C21.31 2.57133 20.2135 1.00733 17.9667 0.721161H-0.0533125C-0.0608681 0.730605 -0.0655903 0.741939 -0.0674792 0.755161V2.101C-0.0674792 2.169 -0.0334792 2.203 0.0345208 2.203H16.176C17.5474 2.203 18.1905 3.19183 18.1905 4.56883C18.1905 5.94866 17.5474 6.93749 16.176 6.93749H3.40052C1.41719 6.93749 -0.0703125 8.62333 -0.0703125 10.8362V15.1428C-0.0703125 15.2014 -0.0476458 15.2392 -0.0023125 15.2562M34.791 11.3263V4.57166C34.791 3.19466 35.4314 2.20583 36.8027 2.20583H45.2744C45.3006 2.20332 45.3251 2.19176 45.3437 2.17315C45.3623 2.15454 45.3738 2.13003 45.3764 2.10383V0.757996L45.3679 0.723995H35.012C32.768 1.00733 31.6715 2.57416 31.6715 4.57166V11.332C31.6715 12.7118 31.0114 13.7007 29.657 13.7007H20.7122C20.6612 13.7007 20.6102 13.7347 20.6102 13.8027V15.1485C20.6102 15.2052 20.6442 15.2448 20.6867 15.2618H30.8385C33.4849 15.191 34.7882 13.5023 34.7882 11.332M45.3225 13.7007H61.5859C61.634 13.7007 61.668 13.7347 61.668 13.7687V15.1485C61.668 15.2165 61.719 15.2505 61.77 15.2505H64.6997C64.7535 15.2505 64.8017 15.2165 64.8017 15.1485V13.8027C64.8017 13.7517 64.8527 13.7007 64.9037 13.7007H67.8164C67.8844 13.7007 67.9184 13.6497 67.9184 13.5987V12.2358C67.9184 12.1848 67.8844 12.1338 67.8164 12.1338H64.9122C64.886 12.1313 64.8615 12.1198 64.8429 12.1012C64.8243 12.0825 64.8127 12.058 64.8102 12.0318V2.203C64.8102 1.40116 64.5127 0.891161 64.0112 0.721161H63.1612C62.8591 0.805634 62.5702 0.931494 62.3027 1.09516L44.7899 11.91C44.1099 12.335 43.8747 12.811 44.0447 13.168C44.1779 13.4768 44.5689 13.6978 45.331 13.6978M47.8725 11.893L61.4385 3.49783C61.5235 3.42983 61.6935 3.44683 61.6935 3.63383V12.029C61.691 12.0552 61.6795 12.0797 61.6608 12.0983C61.6422 12.1169 61.6177 12.1285 61.5915 12.131H47.9547C47.8385 12.131 47.7847 12.097 47.7705 12.063C47.7516 11.9988 47.7856 11.9421 47.8725 11.893Z" fill="#789CE4"/>
</svg>
