<svg width="31" height="31" viewBox="0 0 31 31" fill="none" xmlns="http://www.w3.org/2000/svg">
<path d="M15.4987 30.9167C8.23128 30.9167 4.59757 30.9167 2.33903 28.6582C0.0820312 26.4027 0.0820312 22.7675 0.0820312 15.5C0.0820312 8.23262 0.0820312 4.59892 2.33903 2.34037C4.59911 0.083374 8.23128 0.083374 15.4987 0.083374C22.7661 0.083374 26.3998 0.083374 28.6568 2.34037C30.9154 4.60046 30.9154 8.23262 30.9154 15.5C30.9154 22.7675 30.9154 26.4012 28.6568 28.6582C26.4014 30.9167 22.7661 30.9167 15.4987 30.9167Z" fill="white" fill-opacity="0.12"/>
<path d="M25.9062 9.33337C25.9062 9.64003 25.7844 9.93413 25.5676 10.151C25.3508 10.3678 25.0567 10.4896 24.75 10.4896H6.25C5.94334 10.4896 5.64925 10.3678 5.43241 10.151C5.21557 9.93413 5.09375 9.64003 5.09375 9.33337C5.09375 9.02672 5.21557 8.73262 5.43241 8.51578C5.64925 8.29894 5.94334 8.17712 6.25 8.17712H24.75C25.0567 8.17712 25.3508 8.29894 25.5676 8.51578C25.7844 8.73262 25.9062 9.02672 25.9062 9.33337ZM25.9062 15.5C25.9062 15.8067 25.7844 16.1008 25.5676 16.3176C25.3508 16.5345 25.0567 16.6563 24.75 16.6563H6.25C5.94334 16.6563 5.64925 16.5345 5.43241 16.3176C5.21557 16.1008 5.09375 15.8067 5.09375 15.5C5.09375 15.1934 5.21557 14.8993 5.43241 14.6824C5.64925 14.4656 5.94334 14.3438 6.25 14.3438H24.75C25.0567 14.3438 25.3508 14.4656 25.5676 14.6824C25.7844 14.8993 25.9062 15.1934 25.9062 15.5ZM25.9062 21.6667C25.9062 21.9734 25.7844 22.2675 25.5676 22.4843C25.3508 22.7011 25.0567 22.823 24.75 22.823H6.25C5.94334 22.823 5.64925 22.7011 5.43241 22.4843C5.21557 22.2675 5.09375 21.9734 5.09375 21.6667C5.09375 21.3601 5.21557 21.066 5.43241 20.8491C5.64925 20.6323 5.94334 20.5105 6.25 20.5105H24.75C25.0567 20.5105 25.3508 20.6323 25.5676 20.8491C25.7844 21.066 25.9062 21.3601 25.9062 21.6667Z" fill="white"/>
</svg>
