<svg width="34" height="34" viewBox="0 0 34 34" fill="none" xmlns="http://www.w3.org/2000/svg">
<path d="M17.0109 1.43602C13.9825 1.43602 11.2418 1.62541 9.22679 1.93825C8.2194 2.09464 7.39703 2.27759 6.77812 2.5047C6.46867 2.61825 6.20915 2.73811 5.98337 2.90938C5.76835 3.07254 5.54177 3.33172 5.52052 3.68965H5.47072C5.47072 4.35902 5.49476 5.01924 5.54137 5.66942H3.82092C3.81295 5.14136 3.82112 4.6121 3.84589 4.08397L2.0654 3.66694C1.49803 10.7506 4.25721 17.6452 9.3349 22.5552L10.3745 20.59C10.0978 20.3608 9.82852 20.1227 9.56718 19.8761C9.95978 19.4659 10.3883 19.0916 10.8475 18.7576C11.7419 19.6323 12.719 20.3225 13.757 20.7933C15.2255 21.9716 14.2917 22.7435 12.1964 23.2005C16.1053 23.9044 14.7828 27.3355 11.2584 29.3307C11.1163 29.3486 10.9758 29.3654 10.8414 29.3846C10.0414 29.4987 9.38868 29.631 8.88865 29.7997C8.63863 29.884 8.42659 29.9723 8.23083 30.1088C8.03493 30.2453 7.79082 30.4877 7.79082 30.8663C7.79082 31.2449 8.03499 31.4852 8.23083 31.6216C8.42659 31.7581 8.63856 31.8466 8.88865 31.9309C9.38868 32.0996 10.0415 32.2319 10.8414 32.3459C12.4414 32.5741 14.6122 32.7132 17.0109 32.7132C19.4097 32.7132 21.5805 32.5741 23.1805 32.3459C23.9805 32.2319 24.6332 32.0996 25.1333 31.9309C25.3832 31.8466 25.5953 31.7581 25.791 31.6217C25.9868 31.4852 26.231 31.2449 26.231 30.8663C26.231 30.4877 25.9868 30.2453 25.791 30.1088C25.5953 29.9724 25.3833 29.8839 25.1332 29.7997C24.6332 29.631 23.9804 29.4987 23.1803 29.3846C23.0467 29.3656 22.9067 29.3485 22.7653 29.3306C19.2407 27.3355 17.9183 23.9046 21.8273 23.2005C19.731 22.7433 18.7972 21.9706 20.2689 20.7913C21.3141 20.3165 22.2974 19.6189 23.1969 18.7347C23.6383 19.0517 24.0495 19.4013 24.4234 19.7786C24.1498 20.0572 23.8681 20.3278 23.5787 20.5899L24.6537 22.5551C29.9076 17.7769 32.3698 10.6332 31.9604 3.62935L30.1447 4.15861C30.1746 4.66396 30.1872 5.16732 30.182 5.66935H28.4824C28.5295 5.01046 28.5531 4.35009 28.553 3.68952H28.5032C28.4817 3.33159 28.2533 3.0724 28.0383 2.90924C27.8124 2.73792 27.5529 2.61818 27.2435 2.50463C26.6246 2.27739 25.8022 2.09444 24.7947 1.93805C22.7798 1.62528 20.0392 1.43582 17.0106 1.43582L17.0109 1.43602ZM17.0109 2.67702C19.9874 2.67702 22.6837 2.86654 24.6041 3.16464C25.5643 3.31372 26.3346 3.49216 26.8163 3.66893C26.8853 3.6943 26.9341 3.71874 26.9906 3.74364C26.9341 3.76854 26.8857 3.79291 26.8163 3.81834C26.3347 3.99512 25.5643 4.17561 24.6041 4.32469C22.6837 4.62286 19.9874 4.81238 17.0109 4.81238C14.0346 4.81238 11.3382 4.62279 9.41777 4.32463C8.45754 4.17554 7.68722 3.99505 7.20565 3.81828C7.13592 3.79265 7.08811 3.76861 7.03133 3.74357C7.08797 3.7186 7.13605 3.69443 7.20565 3.66886C7.68722 3.49209 8.4576 3.31359 9.41784 3.16458C11.3382 2.86641 14.0345 2.67702 17.0109 2.67702ZM3.91229 7.4499H5.72811C6.26314 11.2934 7.60276 14.6769 9.45934 17.1618C8.99622 17.543 8.56903 17.9566 8.18514 18.4028C5.61867 15.3178 4.26438 11.4536 3.91229 7.4499ZM28.2959 7.4499H30.0888C29.718 11.4099 28.2455 15.1632 25.7682 18.2617C25.4031 17.8559 25.0069 17.4791 24.5834 17.1348C26.4301 14.6525 27.7624 11.2794 28.2959 7.44997V7.4499Z" fill="white"/>
</svg>
