<svg width="34" height="34" viewBox="0 0 34 34" fill="none" xmlns="http://www.w3.org/2000/svg">
<path d="M31.8941 12.4645L32.173 14.3238V16.1832L30.5062 19.1117L27.8633 24.318L24.1379 28.8004L18.8852 31.3105L17.7098 32.9375L17.1984 33.7344L16.5609 34C16.5609 34 17.7098 29.7766 17.8492 29.7766C17.9887 29.7766 19.1973 29.823 19.1973 29.823L23.6266 27.2598L17.484 28.993L13.7719 31.4367L12.2578 33.2961L11.8195 33.3891L13.2008 28.5016L13.659 28.1363L15.0336 28.993L20.8973 25.9914L24.6691 22.5715L25.652 18.0293L17.3246 19.5766L18.334 18.368L6.81914 14.8285L12.2578 14.1313L1.23438 5.96992L8.86445 7.17188L2.1375 0L18.9316 8.40703L16.8398 5.88359L25.1008 10.8242L15.5848 4.25L16.8266 6.8L13.5328 5.59805L10.5113 0L23.434 8.10156L20.5852 4.39609L27.757 10.7977L28.5539 10.2066L27.1594 9.11758L27.4383 6.60742L29.9484 5.9168L31.8875 7.55703L32.6512 7.83594L32.1863 8.24766L32.7508 9.04453L31.8809 9.53594L31.1969 10.8773L31.8941 12.4645Z" fill="white"/>
</svg>
