<svg width="67" height="15" viewBox="0 0 67 15" fill="none" xmlns="http://www.w3.org/2000/svg">
<path d="M29.1735 14.6746C29.6808 14.6746 30.1831 14.5746 30.6517 14.3804C31.1203 14.1862 31.546 13.9016 31.9046 13.5428C32.2631 13.184 32.5475 12.758 32.7413 12.2893C32.9352 11.8205 33.0348 11.3182 33.0344 10.8109V4.17234C33.0344 3.86672 33.0947 3.5641 33.2117 3.28178C33.3287 2.99946 33.5003 2.74298 33.7165 2.527C33.9328 2.31103 34.1894 2.13979 34.4719 2.02309C34.7544 1.90639 35.0571 1.84651 35.3627 1.84688H42.8555C42.8691 1.84652 42.8824 1.84349 42.8948 1.83796C42.9072 1.83243 42.9184 1.82452 42.9277 1.81466C42.9371 1.80481 42.9444 1.79322 42.9492 1.78054C42.9541 1.76787 42.9564 1.75436 42.956 1.7408V0.411964C42.956 0.38531 42.9454 0.359746 42.9266 0.340898C42.9077 0.322051 42.8822 0.311463 42.8555 0.311463H33.8273C33.32 0.311097 32.8176 0.41069 32.3489 0.604553C31.8802 0.798415 31.4542 1.08275 31.0954 1.4413C30.7366 1.79985 30.4519 2.22559 30.2577 2.6942C30.0635 3.1628 29.9636 3.66508 29.9636 4.17234V10.8165C29.9636 11.4335 29.7187 12.0253 29.2826 12.4618C28.8466 12.8984 28.2551 13.144 27.6381 13.1448H20.2486C20.2352 13.1448 20.2219 13.1474 20.2095 13.1527C20.1971 13.1579 20.1859 13.1655 20.1765 13.1752C20.1671 13.1848 20.1598 13.1962 20.1549 13.2087C20.15 13.2212 20.1477 13.2346 20.1481 13.248V14.5769C20.1481 14.6035 20.1587 14.6291 20.1775 14.6479C20.1964 14.6668 20.2219 14.6774 20.2486 14.6774L29.1735 14.6746ZM46.0492 5.70496V0.411964C46.0492 0.38531 46.0598 0.359746 46.0786 0.340898C46.0975 0.322051 46.123 0.311463 46.1497 0.311463H66.5512C66.5781 0.311454 66.6039 0.321951 66.6232 0.340723C66.6425 0.359494 66.6537 0.385056 66.6545 0.411964V1.7408C66.6532 1.76804 66.642 1.79387 66.6229 1.81342C66.6039 1.83296 66.5784 1.84487 66.5512 1.84688H49.2149C49.2017 1.84688 49.1887 1.84948 49.1765 1.85453C49.1643 1.85958 49.1532 1.86698 49.1439 1.87632C49.1345 1.88565 49.1271 1.89673 49.1221 1.90892C49.117 1.92111 49.1144 1.93418 49.1144 1.94738V5.39788C49.1137 5.54363 49.1418 5.68808 49.1973 5.82288C49.2527 5.95768 49.3343 6.08015 49.4374 6.18321C49.5404 6.28627 49.6629 6.36788 49.7977 6.42331C49.9325 6.47875 50.077 6.50691 50.2227 6.50617H63.1258C64.1674 6.5671 65.1462 7.02379 65.8621 7.78277C66.578 8.54176 66.9768 9.54565 66.9768 10.589C66.9768 11.6323 66.578 12.6362 65.8621 13.3952C65.1462 14.1542 64.1674 14.6109 63.1258 14.6718H46.1525C46.139 14.6722 46.1257 14.6698 46.1131 14.665C46.1006 14.6601 46.0892 14.6527 46.0796 14.6434C46.07 14.634 46.0623 14.6228 46.0571 14.6104C46.0519 14.598 46.0492 14.5847 46.0492 14.5713V13.248C46.0488 13.2346 46.0511 13.2212 46.056 13.2087C46.0609 13.1962 46.0682 13.1848 46.0776 13.1752C46.087 13.1655 46.0982 13.1579 46.1106 13.1527C46.1229 13.1474 46.1362 13.1448 46.1497 13.1448H61.5876C61.9331 13.1595 62.278 13.1041 62.6015 12.9817C62.925 12.8594 63.2203 12.6727 63.4695 12.433C63.7188 12.1932 63.9168 11.9054 64.0517 11.587C64.1865 11.2685 64.2553 10.926 64.254 10.5801C64.2527 10.2343 64.1812 9.89234 64.044 9.57491C63.9067 9.25749 63.7065 8.9712 63.4554 8.73338C63.2043 8.49556 62.9076 8.31114 62.5832 8.19127C62.2588 8.0714 61.9134 8.01858 61.568 8.03601H48.3746C48.0688 8.03601 47.7659 7.97567 47.4834 7.85846C47.2009 7.74124 46.9443 7.56945 46.7283 7.35292C46.5123 7.13639 46.3411 6.87938 46.2246 6.59659C46.108 6.31381 46.0484 6.01082 46.0492 5.70496ZM15.7708 6.50617C16.389 6.50617 16.9819 6.26058 17.419 5.82342C17.8562 5.38627 18.1018 4.79336 18.1018 4.17513C18.1018 3.5569 17.8562 2.96399 17.419 2.52683C16.9819 2.08968 16.389 1.84409 15.7708 1.84409H0.103921C0.0770027 1.8441 0.0511445 1.8336 0.0318518 1.81483C0.0125592 1.79606 0.00135634 1.7705 0.000628834 1.74359V0.414754C0.00062365 0.401318 0.0033127 0.388018 0.00853697 0.375639C0.0137612 0.36326 0.0214147 0.352054 0.0310447 0.342685C0.0406746 0.333315 0.0520857 0.325971 0.0646029 0.321088C0.0771202 0.316205 0.0904896 0.31388 0.103921 0.314254H17.2783C18.2846 0.341312 19.2407 0.760101 19.9429 1.48147C20.6451 2.20283 21.0381 3.1698 21.0381 4.17652C21.0381 5.18325 20.6451 6.15022 19.9429 6.87159C19.2407 7.59295 18.2846 8.01174 17.2783 8.0388H5.39692C5.0913 8.0388 4.78868 8.09904 4.50636 8.21608C4.22404 8.33312 3.96756 8.50466 3.75159 8.72089C3.53561 8.93713 3.36438 9.19381 3.24768 9.47627C3.13097 9.75873 3.0711 10.0614 3.07146 10.367V14.5908C3.07147 14.6043 3.06878 14.6176 3.06355 14.63C3.05833 14.6423 3.05068 14.6535 3.04105 14.6629C3.03142 14.6723 3.02001 14.6796 3.00749 14.6845C2.99497 14.6894 2.9816 14.6917 2.96817 14.6913H0.103921C0.0894956 14.6918 0.075134 14.6892 0.061813 14.6837C0.0484919 14.6781 0.0365238 14.6697 0.026723 14.6591C0.0169222 14.6485 0.00951856 14.636 0.00501579 14.6222C0.00051302 14.6085 -0.000983229 14.594 0.000628834 14.5797V10.3559C0.00432356 9.33385 0.413107 8.35498 1.13736 7.63386C1.86162 6.91274 2.84226 6.50822 3.8643 6.50896L15.7708 6.50617Z" fill="#789CE4"/>
</svg>
