<svg width="34" height="34" viewBox="0 0 34 34" fill="none" xmlns="http://www.w3.org/2000/svg">
<g clip-path="url(#clip0_529_3119)">
<path d="M16.9995 2.652C20.9456 2.652 24.4922 4.01413 26.8807 6.46425C28.8454 6.72227 30.6988 7.52457 32.2315 8.7805C29.5518 3.14925 24.0013 0 16.9995 0C10.0932 0 4.50447 3.145 1.79297 8.75925C3.19809 7.61497 4.87252 6.84907 6.65709 6.53438C9.00097 3.978 12.6942 2.652 16.9995 2.652Z" fill="white"/>
<path d="M25.5005 25.5C23.2899 25.4999 21.1663 24.6385 19.5802 23.0987L19.576 23.0945C19.393 22.9568 19.1965 22.8379 18.9895 22.7396C18.3659 22.453 17.6868 22.3071 17.0005 22.3125C16.1207 22.3125 15.4514 22.5314 15.0136 22.7396C14.8059 22.8377 14.6087 22.9566 14.425 23.0945L14.4207 23.0987C13.4216 24.0687 12.1995 24.7784 10.8618 25.1653C9.52406 25.5522 8.11179 25.6046 6.74913 25.3177C5.38646 25.0309 4.11513 24.4136 3.04694 23.5203C1.97874 22.6269 1.14638 21.4848 0.623064 20.1943C0.0997433 18.9039 -0.0985149 17.5046 0.0457211 16.1196C0.189957 14.7345 0.67227 13.4062 1.45025 12.2512C2.22823 11.0963 3.27805 10.1502 4.5074 9.49606C5.73675 8.84196 7.10797 8.49992 8.5005 8.5H25.5005C27.7548 8.5 29.9168 9.39553 31.5109 10.9896C33.105 12.5837 34.0005 14.7457 34.0005 17C34.0005 19.2543 33.105 21.4163 31.5109 23.0104C29.9168 24.6045 27.7548 25.5 25.5005 25.5Z" fill="white"/>
</g>
<defs>
<clipPath id="clip0_529_3119">
<rect width="34" height="34" fill="white"/>
</clipPath>
</defs>
</svg>
