<svg width="30" height="22" viewBox="0 0 30 22" fill="none" xmlns="http://www.w3.org/2000/svg">
<path d="M25.5 9.5L19.5 8.75L17.25 8H16.125L10.648 1.0625H12.5C13.0469 1.0625 13.5 0.939453 13.5 0.78125C13.5 0.623047 13.0469 0.5 12.5 0.5H7.125V1.0625H7.875V8.75H5.625L2.49998 5H0.875016L0.375 5.50002V8.75H0.75V9.5H3V9.62497L0 9.99997V12L3 12.375V12.5H0.75V13.25H0.375V16.5L0.875016 17H2.50003L5.625 13.25H7.875V20.9375H7.125V21.5H12.5C13.0469 21.5 13.5 21.377 13.5 21.2188C13.5 21.0605 13.0469 20.9375 12.5 20.9375H10.648L16.125 14H17.25L19.5 13.25L25.5 12.5C30 11.5 30 11.2539 30 11C30 10.7461 30 10.5 25.5 9.5Z" fill="url(#paint0_linear_1622_3549)"/>
<defs>
<linearGradient id="paint0_linear_1622_3549" x1="15" y1="0.5" x2="15" y2="21.5" gradientUnits="userSpaceOnUse">
<stop stop-color="#FF3A89"/>
<stop offset="1" stop-color="#992352"/>
</linearGradient>
</defs>
</svg>
