<svg width="31" height="31" viewBox="0 0 31 31" fill="none" xmlns="http://www.w3.org/2000/svg">
<path d="M15.5 21.6667V21.6821M15.5 1.625C26.6 1.625 29.375 4.4 29.375 15.5C29.375 26.6 26.6 29.375 15.5 29.375C4.4 29.375 1.625 26.6 1.625 15.5C1.625 4.4 4.4 1.625 15.5 1.625Z" stroke="white" stroke-width="2" stroke-linecap="round" stroke-linejoin="round"/>
<g clip-path="url(#clip0_339_3550)">
<path d="M10.5 13C9.96957 13 9.46086 13.2107 9.08579 13.5858C8.71071 13.9609 8.5 14.4696 8.5 15V17C8.5 17.5304 8.71071 18.0391 9.08579 18.4142C9.46086 18.7893 9.96957 19 10.5 19H11C11.1326 19 11.2598 18.9473 11.3536 18.8536C11.4473 18.7598 11.5 18.6326 11.5 18.5V13.5C11.5 13.3674 11.4473 13.2402 11.3536 13.1464C11.2598 13.0527 11.1326 13 11 13H10.5ZM10.5 13C10.5 11.5413 11.0795 10.1424 12.1109 9.11091C13.1424 8.07946 14.5413 7.5 16 7.5C17.4587 7.5 18.8576 8.07946 19.8891 9.11091C20.9205 10.1424 21.5 11.5413 21.5 13M21.5 19H21C20.8674 19 20.7402 18.9473 20.6464 18.8536C20.5527 18.7598 20.5 18.6326 20.5 18.5V13.5C20.5 13.3674 20.5527 13.2402 20.6464 13.1464C20.7402 13.0527 20.8674 13 21 13H21.5M21.5 19C22.0304 19 22.5391 18.7893 22.9142 18.4142C23.2893 18.0391 23.5 17.5304 23.5 17V15C23.5 14.4696 23.2893 13.9609 22.9142 13.5858C22.5391 13.2107 22.0304 13 21.5 13M21.5 19V19.5C21.5 20.0304 21.2893 20.5391 20.9142 20.9142C20.5391 21.2893 20.0304 21.5 19.5 21.5H18" stroke="white" stroke-width="1.5" stroke-linecap="round" stroke-linejoin="round"/>
</g>
<defs>
<clipPath id="clip0_339_3550">
<rect width="16" height="16" fill="white" transform="translate(8 7)"/>
</clipPath>
</defs>
</svg>
