<svg width="30" height="30" viewBox="0 0 30 30" fill="none" xmlns="http://www.w3.org/2000/svg">
<g clip-path="url(#clip0_4_390)">
<path d="M15.6218 7.97258C15.8074 7.62354 15.7507 7.19923 15.5809 6.84129C15.3163 6.27721 15.2852 5.6767 15.5535 5.17211C16.0881 4.16672 17.6107 3.92998 18.9499 4.64208C20.2892 5.35417 20.9443 6.74882 20.4097 7.7542C20.1414 8.25879 19.6262 8.56882 19.0106 8.66489C18.6189 8.72428 18.2355 8.91458 18.0499 9.26362C17.7917 9.74925 17.9764 10.3536 18.4621 10.6118L20.617 11.7576C21.6224 12.2922 22.0044 13.5416 21.4698 14.547L20.324 16.7019C20.0658 17.1876 20.2506 17.7919 20.7362 18.0501C21.0852 18.2357 21.5095 18.1791 21.8675 18.0093C22.4315 17.7447 23.0321 17.7136 23.5366 17.9819C24.542 18.5164 24.7788 20.039 24.0667 21.3783C23.3546 22.7175 21.9599 23.3727 20.9545 22.8381C20.45 22.5698 20.1399 22.0546 20.0439 21.439C19.9845 21.0473 19.7942 20.6638 19.4451 20.4782C18.9595 20.22 18.3551 20.4048 18.0969 20.8904L15.6601 25.4735C15.1255 26.4788 13.8761 26.8608 12.8707 26.3263L10.7158 25.1805C10.2302 24.9222 10.0454 24.3179 10.3036 23.8323C10.4892 23.4832 10.8726 23.2929 11.2643 23.2335C11.8799 23.1375 12.3952 22.8274 12.6634 22.3228C13.198 21.3175 12.5429 19.9228 11.2036 19.2107C9.86438 18.4986 8.34181 18.7354 7.80724 19.7407C7.53894 20.2453 7.57003 20.8458 7.83462 21.4099C8.00442 21.7679 8.06107 22.1922 7.87549 22.5412C7.61728 23.0268 7.01291 23.2116 6.52729 22.9534L1.94424 20.5165C0.938855 19.982 0.556875 18.7326 1.09145 17.7272L3.5283 13.1441C3.78651 12.6585 4.39087 12.4737 4.87649 12.7319C5.22553 12.9175 5.41584 13.301 5.47523 13.6927C5.5713 14.3083 5.88132 14.8235 6.38591 15.0918C7.3913 15.6264 8.78595 14.9712 9.49804 13.632C10.2101 12.2927 9.97339 10.7702 8.96801 10.2356C8.46342 9.9673 7.8629 9.99839 7.29883 10.263C6.94089 10.4328 6.51658 10.4894 6.16754 10.3038C5.68192 10.0456 5.49715 9.44127 5.75536 8.95565L6.90116 6.8007C7.43573 5.79532 8.68514 5.41334 9.69052 5.94791L14.2736 8.38476C14.7592 8.64297 15.3636 8.4582 15.6218 7.97258Z" fill="url(#paint0_linear_4_390)"/>
</g>
<defs>
<linearGradient id="paint0_linear_4_390" x1="20.164" y1="5.2876" x2="9.83559" y2="24.7124" gradientUnits="userSpaceOnUse">
<stop stop-color="#E56B86"/>
<stop offset="1" stop-color="#A80025"/>
</linearGradient>
<clipPath id="clip0_4_390">
<rect width="22" height="22" fill="white" transform="translate(10.4515 0.123413) rotate(28)"/>
</clipPath>
</defs>
</svg>
