<svg width="14" height="14" viewBox="0 0 14 14" fill="none" xmlns="http://www.w3.org/2000/svg">
<g id="clarity:no-wifi-solid" clip-path="url(#clip0_4_235)">
<path id="Vector" d="M6.99998 12.6544C7.64431 12.6544 8.16665 12.1321 8.16665 11.4878C8.16665 10.8434 7.64431 10.3211 6.99998 10.3211C6.35565 10.3211 5.83331 10.8434 5.83331 11.4878C5.83331 12.1321 6.35565 12.6544 6.99998 12.6544Z" fill="white"/>
<path id="Vector_2" d="M11.3478 6.88721L11.3906 6.8211C11.4328 6.75566 11.4616 6.68247 11.4752 6.6058C11.4889 6.52913 11.4872 6.4505 11.4702 6.3745C11.4532 6.2985 11.4212 6.22664 11.3762 6.16311C11.3311 6.09958 11.2739 6.04564 11.2078 6.00444C9.94333 5.22331 8.48627 4.80989 7 4.81055C6.78223 4.81055 6.56834 4.81055 6.35834 4.83777L7.60667 6.0861C8.65464 6.17857 9.66662 6.51412 10.5622 7.0661C10.6908 7.14401 10.8446 7.1689 10.9912 7.13553C11.1378 7.10215 11.2656 7.01311 11.3478 6.88721Z" fill="white"/>
<path id="Vector_3" d="M12.74 3.64778C11.4439 2.83944 9.99176 2.31386 8.47856 2.10544C6.96536 1.89702 5.4252 2.01046 3.95886 2.43834L4.98164 3.46112C7.42517 2.93654 9.97696 3.38579 12.0944 4.71334C12.2223 4.78888 12.3743 4.81243 12.519 4.77914C12.6637 4.74585 12.7902 4.65826 12.8722 4.53445L12.915 4.46834C12.9582 4.40322 12.9879 4.33014 13.0025 4.25337C13.0171 4.17661 13.0162 4.09771 12.9999 4.02129C12.9836 3.94487 12.9522 3.87247 12.9076 3.80833C12.863 3.7442 12.806 3.68962 12.74 3.64778Z" fill="white"/>
<path id="Vector_4" d="M1.16664 1.84722L2.3722 3.05278C1.98153 3.23284 1.6023 3.43675 1.23664 3.66333C1.1697 3.70422 1.11163 3.7581 1.06586 3.8218C1.02008 3.8855 0.987534 3.95773 0.970135 4.03422C0.952735 4.1107 0.950835 4.1899 0.964548 4.26713C0.978261 4.34437 1.00731 4.41807 1.04998 4.48389L1.09275 4.55C1.17477 4.67381 1.3012 4.7614 1.44594 4.79469C1.59067 4.82798 1.74266 4.80443 1.87053 4.72889C2.3248 4.44316 2.80221 4.196 3.29775 3.99L4.51887 5.21111C3.90088 5.40967 3.30932 5.68259 2.7572 6.02389C2.69142 6.0654 2.63455 6.11957 2.58989 6.18325C2.54522 6.24693 2.51365 6.31884 2.497 6.39482C2.48036 6.4708 2.47898 6.54933 2.49294 6.62585C2.50689 6.70236 2.53591 6.77535 2.57831 6.84056L2.62109 6.90667C2.70311 7.03048 2.82953 7.11807 2.97427 7.15136C3.119 7.18465 3.271 7.16109 3.39886 7.08556C4.0587 6.67777 4.7834 6.38578 5.54164 6.22222L6.94164 7.62222C6.0102 7.63191 5.09837 7.89109 4.30109 8.37278C4.23544 8.41392 4.17865 8.46774 4.13403 8.53107C4.08941 8.5944 4.05785 8.66599 4.0412 8.74165C4.02455 8.81732 4.02313 8.89554 4.03704 8.97175C4.05095 9.04797 4.0799 9.12065 4.1222 9.18556L4.16109 9.24778C4.24666 9.37426 4.37786 9.46271 4.5272 9.49461C4.67653 9.5265 4.83242 9.49937 4.9622 9.41889C5.48559 9.10798 6.07351 8.92172 6.68044 8.87451C7.28738 8.8273 7.89703 8.92043 8.4622 9.14667L11.2778 11.9583L11.8261 11.41L1.71498 1.29889L1.16664 1.84722Z" fill="white"/>
</g>
<defs>
<clipPath id="clip0_4_235">
<rect width="14" height="14" fill="white"/>
</clipPath>
</defs>
</svg>
