<svg width="17" height="17" viewBox="0 0 17 17" fill="none" xmlns="http://www.w3.org/2000/svg">
<path d="M1.96999 4.4823C1.96578 4.40444 1.94627 4.32816 1.91258 4.25783C1.87889 4.1875 1.83168 4.12449 1.77364 4.07241C1.7156 4.02033 1.64787 3.98018 1.57432 3.95427C1.50077 3.92837 1.42283 3.9172 1.34497 3.92141C1.2671 3.92562 1.19082 3.94512 1.12049 3.97881C1.05016 4.0125 0.987155 4.05971 0.935071 4.11775C0.882987 4.17579 0.842845 4.24352 0.816936 4.31707C0.791027 4.39062 0.779859 4.46856 0.784069 4.54643L1.96999 4.4823ZM2.73474 1.44785C2.63076 1.56275 2.57583 1.71374 2.58167 1.8686C2.5875 2.02345 2.65365 2.16988 2.76598 2.27663C2.87831 2.38338 3.02792 2.44198 3.18287 2.43993C3.33781 2.43787 3.48582 2.37532 3.59528 2.26564L2.73474 1.44785ZM7.44199 14.6845C7.50801 14.7271 7.58182 14.7561 7.65914 14.7699C7.73646 14.7837 7.81575 14.7821 7.89243 14.765C7.9691 14.748 8.04163 14.7159 8.10582 14.6706C8.17001 14.6254 8.22458 14.5678 8.26637 14.5013C8.30816 14.4348 8.33634 14.3607 8.34927 14.2832C8.36221 14.2057 8.35964 14.1265 8.34172 14.05C8.32381 13.9735 8.2909 13.9014 8.24489 13.8377C8.19889 13.774 8.14072 13.7201 8.07374 13.6791L7.44199 14.6845ZM10.9641 14.8793C10.8099 14.847 10.6492 14.8774 10.5174 14.9636C10.3855 15.0499 10.2933 15.185 10.2611 15.3392C10.2289 15.4934 10.2592 15.6541 10.3455 15.786C10.4318 15.9178 10.5669 16.01 10.7211 16.0422L10.9641 14.8793ZM11.3853 11.3057L11.7455 10.9257L10.8842 10.1079L10.5239 10.4879L11.3853 11.3057ZM12.9322 10.7658L14.4443 11.6366L15.0372 10.6074L13.5244 9.7366L12.9322 10.7658ZM14.7364 13.4416L13.6114 14.6251L14.4728 15.4437L15.5969 14.2594L14.7364 13.4416ZM5.61719 11.6342C2.54869 8.40343 2.03411 5.67772 1.96999 4.4823L0.784069 4.54643C0.863236 6.01101 1.4839 9.00668 4.75665 12.452L5.61719 11.6342ZM6.70653 6.37993L6.93294 6.14085L6.0724 5.32305L5.84519 5.56214L6.70653 6.37993ZM7.11186 3.16418L6.11357 1.75264L5.14378 2.43822L6.14128 3.84976L7.11186 3.16418ZM6.27507 5.97064C6.13259 5.83332 5.98877 5.69741 5.84361 5.56293L5.84203 5.56451L5.83965 5.56689L5.80007 5.6128C5.72255 5.71558 5.66115 5.82957 5.61799 5.95084C5.5404 6.16855 5.49924 6.45672 5.55149 6.81614C5.6544 7.5223 6.11753 8.47151 7.3264 9.7453L8.18774 8.92672C7.05724 7.73685 6.77857 7.00455 6.72632 6.64355C6.70099 6.46939 6.72632 6.37835 6.73661 6.34905L6.74294 6.33401L6.72078 6.3633L6.70653 6.37993L6.27507 5.97064ZM7.3264 9.74451C8.53211 11.0143 9.44253 11.5131 10.1368 11.6263C10.4939 11.6841 10.7828 11.6374 11.0013 11.5511C11.1228 11.5039 11.2357 11.437 11.3354 11.3532L11.3631 11.3263L11.3742 11.3152L11.3797 11.3104L11.3821 11.3081L11.3829 11.3065C11.3829 11.3065 11.3845 11.3057 10.9538 10.8964C10.5232 10.4879 10.5239 10.4871 10.5239 10.4863L10.5255 10.4855L10.5271 10.4831L10.5319 10.4792L10.5691 10.4459C10.5765 10.4417 10.5751 10.442 10.5651 10.4467C10.5493 10.4531 10.478 10.4784 10.3276 10.4538C10.0094 10.4016 9.32219 10.1213 8.18774 8.92672L7.3264 9.74451ZM6.11357 1.75264C5.31082 0.617387 3.70532 0.425012 2.73474 1.44785L3.59528 2.26564C4.00932 1.83022 4.73844 1.86426 5.14378 2.43822L6.11357 1.75264ZM13.6114 14.6251C13.3906 14.8579 13.1602 14.983 12.9354 15.0051L13.0517 16.1863C13.6431 16.1285 14.1221 15.8134 14.4728 15.4437L13.6114 14.6251ZM6.93294 6.14085C7.69928 5.33414 7.75311 4.07222 7.11186 3.16418L6.14207 3.84976C6.47615 4.32239 6.42469 4.95255 6.0724 5.32305L6.93294 6.14085ZM14.4443 11.6366C15.0942 12.0111 15.2217 12.931 14.7364 13.4416L15.5969 14.2594C16.6301 13.1716 16.3292 11.3516 15.0372 10.6074L14.4443 11.6366ZM11.7455 10.9257C12.0503 10.6043 12.5261 10.5322 12.9322 10.7658L13.5244 9.7366C12.6543 9.23626 11.5769 9.37955 10.8842 10.1079L11.7455 10.9257ZM8.07374 13.6791C7.29553 13.1898 6.46665 12.528 5.61719 11.6342L4.75665 12.452C5.67024 13.4139 6.57511 14.1398 7.44199 14.6845L8.07374 13.6791ZM12.9346 15.0051C12.2752 15.0627 11.6108 15.0202 10.9641 14.8793L10.7211 16.0422C11.4862 16.2076 12.272 16.2561 13.0517 16.1863L12.9346 15.0051Z" fill="#999C9F"/>
</svg>
