<svg width="15" height="16" viewBox="0 0 15 16" fill="none" xmlns="http://www.w3.org/2000/svg">
<g clip-path="url(#clip0_135_942)">
<path opacity="0.2" fill-rule="evenodd" clip-rule="evenodd" d="M7.78771 15.5002C11.7708 15.5002 14.9992 12.2718 14.9992 8.28869C14.9992 4.30561 11.7708 1.07715 7.78771 1.07715C3.80463 1.07715 0.576172 4.30561 0.576172 8.28869C0.576172 12.2718 3.80463 15.5002 7.78771 15.5002ZM7.78771 14.3464C11.1333 14.3464 13.8454 11.6343 13.8454 8.28869C13.8454 4.94311 11.1333 2.23099 7.78771 2.23099C4.44213 2.23099 1.73002 4.94311 1.73002 8.28869C1.73002 11.6343 4.44213 14.3464 7.78771 14.3464Z" fill="white"/>
<g opacity="0.2">
<path fill-rule="evenodd" clip-rule="evenodd" d="M8.65122 5.03019C8.5883 4.98793 8.51768 4.95848 8.44338 4.94353C8.36908 4.92857 8.29257 4.9284 8.2182 4.94303C8.14384 4.95765 8.07309 4.98679 8.00998 5.02877C7.94688 5.07075 7.89267 5.12475 7.85045 5.18769L6.40295 7.34307L5.44526 6.6998L6.89276 4.54442C7.14867 4.16335 7.54547 3.89955 7.99588 3.81105C8.4463 3.72254 8.91342 3.81659 9.29449 4.07249L11.2099 5.35903C11.3986 5.4857 11.5605 5.64831 11.6864 5.83756C11.8123 6.02681 11.8997 6.23901 11.9436 6.46203C11.9874 6.68506 11.987 6.91454 11.9421 7.13738C11.8973 7.36021 11.8091 7.57204 11.6824 7.76076L10.2343 9.91557L9.2766 9.27288L10.7235 7.11749C10.7658 7.05458 10.7952 6.98396 10.8102 6.90966C10.8251 6.83536 10.8253 6.75884 10.8107 6.68448C10.7961 6.61011 10.7669 6.53936 10.7249 6.47626C10.683 6.41316 10.629 6.35895 10.566 6.31672L8.65122 5.03019ZM3.36141 7.73307C3.40363 7.67013 3.45785 7.61613 3.52095 7.57415C3.58405 7.53217 3.6548 7.50304 3.72916 7.48841C3.80353 7.47379 3.88004 7.47396 3.95434 7.48891C4.02864 7.50387 4.09927 7.53331 4.16218 7.57557L9.91006 11.4352C9.97437 11.4768 10.0297 11.5308 10.073 11.594C10.1162 11.6573 10.1464 11.7285 10.1618 11.8035C10.1772 11.8785 10.1775 11.9559 10.1627 12.031C10.1479 12.1062 10.1183 12.1776 10.0756 12.2412C10.0328 12.3048 9.97791 12.3593 9.91394 12.4014C9.84997 12.4435 9.77825 12.4725 9.70296 12.4866C9.62768 12.5007 9.55034 12.4997 9.47546 12.4836C9.40057 12.4675 9.32964 12.4367 9.2668 12.3929L3.51891 8.53326C3.39197 8.44799 3.30407 8.31581 3.27453 8.16577C3.245 8.01572 3.27625 7.86009 3.36141 7.73307Z" fill="white"/>
<path fill-rule="evenodd" clip-rule="evenodd" d="M5.5576 7.63094C5.32106 7.66151 5.10414 7.71171 4.98356 7.77228C4.86645 7.83171 4.70087 7.9719 4.53933 8.13748C4.45841 8.22086 4.38066 8.30726 4.30625 8.39651L4.29414 8.41151L4.29183 8.4144C4.19643 8.53405 4.0574 8.61091 3.90534 8.62806C3.75327 8.6452 3.60062 8.60124 3.48097 8.50584C3.36131 8.41044 3.28446 8.27141 3.26731 8.11935C3.25016 7.96728 3.29412 7.81463 3.38952 7.69498L3.39068 7.69382L3.39241 7.69151L3.39818 7.68459L3.41664 7.66151L3.48356 7.58248C3.55753 7.49633 3.6343 7.41263 3.71375 7.33151C3.88914 7.15151 4.16548 6.89305 4.4626 6.74305C4.76837 6.58728 5.15202 6.51978 5.40933 6.48632C5.56047 6.46685 5.71232 6.45338 5.86452 6.44594L5.8951 6.44536H5.90433L5.90722 6.44478H5.90837L5.92337 6.99401L5.90895 6.44478C6.06196 6.44073 6.21031 6.49762 6.32137 6.60295C6.43243 6.70828 6.4971 6.85341 6.50116 7.00642C6.50521 7.15943 6.44832 7.30778 6.34299 7.41884C6.23766 7.5299 6.09253 7.59457 5.93952 7.59863H5.91529L5.83452 7.60382C5.74196 7.61007 5.64961 7.61912 5.5576 7.63094ZM9.33298 10.1654C9.39356 10.3961 9.42991 10.6159 9.41895 10.7504C9.40856 10.8813 9.34106 11.0873 9.24875 11.3002C9.20234 11.4066 9.15192 11.5113 9.0976 11.614L9.08837 11.6307L9.08664 11.6336C9.01197 11.7672 8.99342 11.925 9.03508 12.0722C9.07673 12.2195 9.17518 12.3442 9.30875 12.4188C9.44233 12.4935 9.6001 12.512 9.74735 12.4704C9.8946 12.4287 10.0193 12.3303 10.0939 12.1967L10.0945 12.1956L10.0963 12.1927L10.1003 12.1852L10.1147 12.1586C10.1846 12.0284 10.2489 11.8952 10.3074 11.7594C10.4078 11.5286 10.5422 11.175 10.5693 10.8427C10.5964 10.5011 10.5145 10.1204 10.4482 9.86997C10.4088 9.72266 10.3635 9.57697 10.3126 9.43324L10.3022 9.4044L10.2993 9.39574L10.2982 9.39286L10.2976 9.39171C10.2412 9.25179 10.1322 9.13954 9.99398 9.07902C9.85578 9.01851 9.69937 9.01453 9.55828 9.06795C9.41718 9.12137 9.30263 9.22793 9.23916 9.3648C9.1757 9.50167 9.16837 9.65796 9.21875 9.80017L9.75818 9.59594C9.21875 9.80017 9.21818 9.79959 9.21818 9.79959L9.21991 9.80363L9.22625 9.82209C9.23279 9.83978 9.24164 9.86536 9.25279 9.89882C9.27529 9.96574 9.30472 10.0592 9.33298 10.1654ZM6.71433 9.98421C6.77727 10.0264 6.83127 10.0806 6.87325 10.1437C6.91523 10.2068 6.94436 10.2776 6.95899 10.352C6.97361 10.4263 6.97345 10.5028 6.95849 10.5771C6.94354 10.6514 6.91409 10.7221 6.87183 10.785L5.90664 12.2215C5.82014 12.3456 5.68834 12.4308 5.53963 12.4587C5.39093 12.4866 5.23722 12.4549 5.11162 12.3706C4.98603 12.2862 4.8986 12.1559 4.86817 12.0077C4.83774 11.8595 4.86675 11.7053 4.94895 11.5782L5.91356 10.1417C5.95579 10.0788 6.01 10.0248 6.0731 9.98279C6.1362 9.94081 6.20695 9.91168 6.28131 9.89705C6.35568 9.88242 6.4322 9.88259 6.50649 9.89755C6.58079 9.9125 6.65142 9.94195 6.71433 9.98421Z" fill="white"/>
<path fill-rule="evenodd" clip-rule="evenodd" d="M11.5245 6.96004L7.69261 4.38696L5.7628 7.26177L5.28395 6.93985L4.31934 8.37639L4.79818 8.69831L8.63011 11.2714L9.10895 11.5927L10.0736 10.1562L9.59472 9.83427L11.5245 6.96004Z" fill="white"/>
</g>
<path fill-rule="evenodd" clip-rule="evenodd" d="M7.94399 3.92252C7.8496 3.85915 7.74365 3.81499 7.63219 3.79258C7.52073 3.77017 7.40595 3.76994 7.2944 3.79191C7.18285 3.81388 7.07673 3.85761 6.98209 3.9206C6.88745 3.9836 6.80615 4.06463 6.74283 4.15906L5.29591 6.31329L4.81706 5.99194L6.26399 3.83656C6.36957 3.67924 6.50511 3.54426 6.66287 3.43934C6.82064 3.33442 6.99752 3.26161 7.18343 3.22507C7.36934 3.18853 7.56063 3.18898 7.74636 3.22639C7.9321 3.2638 8.10864 3.33744 8.26591 3.4431L10.1813 4.72963C10.3386 4.83522 10.4736 4.97076 10.5785 5.12852C10.6834 5.28628 10.7562 5.46317 10.7928 5.64908C10.8293 5.83499 10.8289 6.02627 10.7915 6.21201C10.7541 6.39774 10.6804 6.57429 10.5748 6.73156L9.12783 8.88637L8.64899 8.56502L10.0959 6.40963C10.1593 6.31525 10.2034 6.20929 10.2258 6.09784C10.2483 5.98638 10.2485 5.87159 10.2265 5.76005C10.2046 5.6485 10.1608 5.54237 10.0978 5.44773C10.0348 5.35309 9.9538 5.27179 9.85937 5.20848L7.94399 3.92252ZM2.73322 7.02521C2.75435 6.99377 2.78147 6.96679 2.81303 6.94583C2.84459 6.92487 2.87998 6.91033 2.91716 6.90304C2.95434 6.89576 2.99259 6.89587 3.02973 6.90337C3.06686 6.91086 3.10216 6.92561 3.1336 6.94675L8.88149 10.8064C8.94499 10.8491 8.98893 10.9152 9.00364 10.9903C9.01835 11.0654 9.00264 11.1433 8.95995 11.2068C8.91726 11.2702 8.85109 11.3142 8.77601 11.3289C8.70092 11.3436 8.62306 11.3279 8.55956 11.2852L2.81226 7.4256C2.74882 7.38301 2.70487 7.31699 2.69005 7.24204C2.67523 7.16708 2.69076 7.08873 2.73322 7.02521Z" fill="white"/>
<path fill-rule="evenodd" clip-rule="evenodd" d="M4.65265 6.47639C4.41034 6.50754 4.15188 6.56235 3.98515 6.64658C3.82303 6.72851 3.62976 6.89812 3.46476 7.06774C3.37799 7.15665 3.29485 7.24903 3.21553 7.34466L3.20169 7.36139L3.19822 7.36543V7.36601L2.97207 7.18601M2.97207 7.18601L2.74707 7.00658V7.00543L2.7488 7.0037L2.75342 6.99793L2.77072 6.97658L2.83361 6.90274C2.88669 6.84101 2.96226 6.75677 3.05169 6.66504C3.22419 6.48793 3.47284 6.25947 3.72496 6.13197C3.98457 6.00043 4.32611 5.93697 4.57822 5.90408C4.72129 5.88541 4.86507 5.8727 5.00919 5.866L5.03688 5.86485H5.04726C5.04784 5.86485 5.04842 5.86485 5.05592 6.15331L5.04784 5.86485C5.08572 5.86383 5.12343 5.87028 5.15882 5.88383C5.19421 5.89738 5.22658 5.91777 5.25409 5.94383C5.2816 5.9699 5.30371 6.00112 5.31915 6.03573C5.33459 6.07033 5.34307 6.10764 5.34409 6.14552C5.34511 6.18341 5.33866 6.22112 5.32511 6.25651C5.31156 6.2919 5.29117 6.32427 5.26511 6.35178C5.23905 6.37929 5.20782 6.40139 5.17321 6.41684C5.13861 6.43228 5.1013 6.44075 5.06342 6.44177H5.05707L5.03399 6.44235L4.94745 6.44754C4.87245 6.45216 4.76861 6.46139 4.65265 6.47639M8.74361 9.22312C8.80592 9.45908 8.85322 9.71927 8.83822 9.90504C8.8238 10.0862 8.74015 10.3291 8.64553 10.5466C8.5962 10.6602 8.54231 10.7719 8.48399 10.8812L8.47303 10.9008L8.47072 10.9054V10.9066L8.72226 11.0474M8.72226 11.0474L8.9738 11.1875L8.97438 11.187L8.97553 11.1847L8.97899 11.1783L8.99226 11.1541L9.03726 11.0681C9.07419 10.9954 9.1238 10.8939 9.17457 10.7762C9.27265 10.5495 9.39092 10.2333 9.41342 9.9512C9.43649 9.66158 9.36611 9.3212 9.30092 9.07543C9.26398 8.93602 9.22125 8.79821 9.17284 8.66235L9.16361 8.63581L9.16072 8.62831L9.16015 8.62658V8.62601C9.16015 8.62601 9.15957 8.62543 8.88957 8.72754L9.16015 8.62601C9.13135 8.55697 9.07629 8.50182 9.00761 8.47219C8.93893 8.44255 8.86143 8.44076 8.79145 8.46718C8.72147 8.4936 8.66449 8.54617 8.63253 8.61379C8.60057 8.68142 8.59613 8.75882 8.62015 8.82966V8.83081L8.62246 8.83543L8.62996 8.85677L8.6588 8.93927C8.68188 9.01024 8.71419 9.11004 8.74361 9.22312M6.00669 8.87639C6.03818 8.89748 6.0652 8.92457 6.08622 8.95611C6.10724 8.98765 6.12183 9.02302 6.12918 9.0602C6.13652 9.09739 6.13646 9.13565 6.129 9.17281C6.12154 9.20997 6.10684 9.2453 6.08572 9.27677L4.79919 11.1922C4.75557 11.2532 4.68986 11.2949 4.61603 11.3083C4.54219 11.3217 4.46603 11.3058 4.40371 11.264C4.34139 11.2222 4.29783 11.1577 4.28226 11.0843C4.2667 11.0109 4.28036 10.9343 4.32034 10.8708L5.60688 8.95543C5.64946 8.89199 5.71548 8.84804 5.79044 8.83322C5.86539 8.8184 5.94316 8.83393 6.00669 8.87639Z" fill="white"/>
<path fill-rule="evenodd" clip-rule="evenodd" d="M7.49962 14.6347C11.1637 14.6347 14.1342 11.6642 14.1342 8.00011C14.1342 4.33607 11.1637 1.3655 7.49962 1.3655C3.83559 1.3655 0.865009 4.33607 0.865009 8.00011C0.865009 11.6642 3.83559 14.6347 7.49962 14.6347ZM7.49962 15.2117C11.4827 15.2117 14.7112 11.9832 14.7112 8.00011C14.7112 4.01704 11.4827 0.788574 7.49962 0.788574C3.51655 0.788574 0.288086 4.01704 0.288086 8.00011C0.288086 11.9832 3.51655 15.2117 7.49962 15.2117Z" fill="white"/>
</g>
<defs>
<clipPath id="clip0_135_942">
<rect width="15" height="15" fill="white" transform="translate(0 0.5)"/>
</clipPath>
</defs>
</svg>
