<svg width="20" height="21" viewBox="0 0 20 21" fill="none" xmlns="http://www.w3.org/2000/svg">
<path d="M18.8208 14.4217C18.4625 14.8742 17.585 15.1967 17.585 15.1967L11.0583 17.5442V15.8126L15.8617 14.0984C16.4067 13.9034 16.49 13.6267 16.0475 13.4817C15.605 13.3367 14.8042 13.3776 14.2583 13.5742L11.0583 14.7026V12.9067L11.2425 12.8434C11.2425 12.8434 12.1675 12.5159 13.4675 12.3717C14.7683 12.2284 16.3608 12.3917 17.6108 12.8659C19.0192 13.3117 19.1775 13.9692 18.8208 14.4217ZM11.6792 11.4734V7.04757C11.6792 6.52757 11.5833 6.04923 11.0958 5.91423C10.7233 5.79423 10.4917 6.1409 10.4917 6.66007V17.7459L7.50584 16.7967V3.57923C8.77501 3.81507 10.625 4.3734 11.6192 4.7084C14.1483 5.57757 15.0058 6.66007 15.0058 9.09757C15.0058 11.4734 13.5408 12.3742 11.6792 11.4742M2.02667 15.6326C0.580005 15.2242 0.339171 14.3742 0.998338 13.8851C1.6075 13.4334 2.64417 13.0934 2.64417 13.0934L6.92584 11.5684V13.3067L3.84417 14.4109C3.3 14.6059 3.21667 14.8826 3.65834 15.0276C4.10167 15.1734 4.9025 15.1317 5.4475 14.9359L6.92584 14.3992V15.9534L6.63084 16.0034C5.1525 16.2451 3.57834 16.1442 2.02667 15.6326Z" fill="#335FD6"/>
</svg>
