<svg width="51" height="28" viewBox="0 0 51 28" fill="none" xmlns="http://www.w3.org/2000/svg">
<g clip-path="url(#clip0_4_248)">
<path d="M27.563 10.9108H19.0521V13.218C19.0521 13.218 19.0267 14.1087 20.1282 14.1087H25.3299C25.5337 14.1083 25.7354 14.1493 25.9229 14.2292C26.2136 14.3589 26.5403 14.623 26.5403 15.1546C26.5403 15.6318 26.3086 15.9028 26.0804 16.0546C25.8907 16.1771 25.6693 16.2416 25.4434 16.2399H19.0533V16.8874H26.18C26.18 16.8874 27.7981 16.8213 27.7981 15.1581C27.7981 14.3126 27.3036 13.8933 26.8599 13.6871C26.5727 13.5562 26.2606 13.4887 25.9449 13.489H20.7884C20.7022 13.4905 20.6171 13.4706 20.5405 13.4311C20.4666 13.3916 20.4056 13.3318 20.3646 13.2587C20.3236 13.1857 20.3042 13.1024 20.3089 13.0188V11.5501H27.563V10.9108ZM8.33944 16.2376V16.885H11.952C12.3837 16.889 12.8023 16.7372 13.1311 16.4577C13.3005 16.3137 13.4355 16.1338 13.5265 15.931C13.6174 15.7282 13.662 15.5077 13.657 15.2855V12.5323C13.6553 12.3817 13.6878 12.2327 13.752 12.0965C13.8162 11.9603 13.9104 11.8404 14.0276 11.7459C14.1938 11.6158 14.3993 11.5464 14.6102 11.549H17.7607V10.9108H14.0091C14.0091 10.9108 12.391 10.9362 12.391 12.6481V15.2195C12.3937 15.4299 12.3367 15.6367 12.2265 15.816C12.1471 15.9489 12.0336 16.0582 11.8978 16.1325C11.762 16.2068 11.6088 16.2435 11.454 16.2387L8.33944 16.2376ZM0 10.9108V11.5501H6.43874C6.61778 11.5485 6.79497 11.5865 6.95764 11.6613C7.21246 11.7806 7.4997 12.0273 7.4997 12.5277C7.506 12.7073 7.45753 12.8846 7.36071 13.036C7.2639 13.1875 7.12332 13.3059 6.95764 13.3755C6.79208 13.4505 6.61239 13.4892 6.43063 13.489H1.65515C1.37238 13.4877 1.09306 13.5511 0.838577 13.6744C0.441295 13.8736 0 14.3427 0 15.1176V16.8804H1.23933V15.1245C1.23887 15.0109 1.25929 14.8983 1.29956 14.7921C1.40149 14.5292 1.66094 14.1087 2.26555 14.1087H7.08042C7.24206 14.1098 7.40306 14.0884 7.55878 14.045C8.00123 13.9176 8.73904 13.5551 8.73904 12.5277C8.73904 10.9293 7.14875 10.9108 7.14875 10.9108H0Z" fill="white"/>
</g>
<path d="M35.3534 17.1C34.9268 17.1 34.6068 17.0833 34.3934 17.05C34.1801 17.0233 33.9668 16.96 33.7534 16.86C33.5334 16.76 33.3734 16.6 33.2734 16.38C33.1734 16.1533 33.1234 15.85 33.1234 15.47V13.79C33.1234 13.49 33.1601 13.2267 33.2334 13C33.3068 12.7733 33.4034 12.5967 33.5234 12.47C33.6234 12.3567 33.7734 12.27 33.9734 12.21C34.1801 12.1433 34.3901 12.1 34.6034 12.08C34.8434 12.0667 35.0934 12.06 35.3534 12.06C35.7001 12.06 35.9601 12.07 36.1334 12.09C36.3134 12.1033 36.5034 12.1367 36.7034 12.19C36.9101 12.25 37.0701 12.34 37.1834 12.46C37.2968 12.58 37.3934 12.7533 37.4734 12.98C37.5468 13.2133 37.5834 13.4833 37.5834 13.79V15.47C37.5834 16.0367 37.4534 16.45 37.1934 16.71C37.0868 16.8167 36.9334 16.9 36.7334 16.96C36.5334 17.02 36.3268 17.06 36.1134 17.08C35.8601 17.0933 35.6068 17.1 35.3534 17.1ZM35.3534 16.51C35.6334 16.51 35.8368 16.5033 35.9634 16.49C36.0901 16.4767 36.2134 16.44 36.3334 16.38C36.4534 16.3267 36.5368 16.24 36.5834 16.12C36.6368 15.9933 36.6634 15.82 36.6634 15.6V13.64C36.6634 13.34 36.6268 13.1233 36.5534 12.99C36.4801 12.85 36.3534 12.76 36.1734 12.72C36.0001 12.6733 35.7268 12.65 35.3534 12.65C34.9801 12.65 34.7034 12.6733 34.5234 12.72C34.3501 12.76 34.2268 12.85 34.1534 12.99C34.0801 13.1233 34.0434 13.34 34.0434 13.64V15.6C34.0434 15.82 34.0668 15.9933 34.1134 16.12C34.1668 16.24 34.2534 16.3267 34.3734 16.38C34.4934 16.44 34.6168 16.4767 34.7434 16.49C34.8701 16.5033 35.0734 16.51 35.3534 16.51ZM38.987 12.16H39.887V12.75C39.9804 12.29 40.5104 12.06 41.477 12.06C42.097 12.06 42.5304 12.1733 42.777 12.4C43.0304 12.62 43.157 12.97 43.157 13.45V17H42.257V13.5C42.257 13.3733 42.247 13.27 42.227 13.19C42.207 13.11 42.167 13.03 42.107 12.95C41.9737 12.7833 41.677 12.7 41.217 12.7C40.8637 12.7 40.5904 12.7267 40.397 12.78C40.2104 12.8267 40.077 12.9067 39.997 13.02C39.9237 13.1333 39.887 13.2933 39.887 13.5V17H38.987V12.16ZM44.7195 10H45.6195V17H44.7195V10ZM48.3304 17.07L46.4604 12.16H47.4404L48.7904 16.11H48.8104L50.0304 12.16H50.9404L48.5104 19.08H47.5704L48.3304 17.07Z" fill="white"/>
<defs>
<clipPath id="clip0_4_248">
<rect width="27.7981" height="27.7981" fill="white"/>
</clipPath>
</defs>
</svg>
