<svg width="20" height="22" viewBox="0 0 20 22" fill="none" xmlns="http://www.w3.org/2000/svg">
<path d="M0.375 0.5V21.5H2.125V14.5H19.625V0.5H0.375ZM2.125 2.25H4.75V4.875H7.375V2.25H10V4.875H12.625V2.25H15.25V4.875H17.875V7.5H15.25V10.125H17.875V12.75H15.25V10.125H12.625V12.75H10V10.125H7.375V12.75H4.75V10.125H2.125V7.5H4.75V4.875H2.125V2.25ZM4.75 7.5V10.125H7.375V7.5H4.75ZM7.375 7.5H10V4.875H7.375V7.5ZM10 7.5V10.125H12.625V7.5H10ZM12.625 7.5H15.25V4.875H12.625V7.5Z" fill="url(#paint0_linear_1620_3531)"/>
<defs>
<linearGradient id="paint0_linear_1620_3531" x1="10" y1="0.5" x2="10" y2="21.5" gradientUnits="userSpaceOnUse">
<stop stop-color="#98C32D"/>
<stop offset="1" stop-color="#495D16"/>
</linearGradient>
</defs>
</svg>
