<svg width="20" height="20" viewBox="0 0 20 20" fill="none" xmlns="http://www.w3.org/2000/svg">
<path fill-rule="evenodd" clip-rule="evenodd" d="M10.0004 1.94688C8.94283 1.94688 7.89565 2.15518 6.91862 2.55988C5.94158 2.96458 5.05383 3.55776 4.30604 4.30555C3.55825 5.05334 2.96507 5.94109 2.56037 6.91813C2.15566 7.89516 1.94737 8.94234 1.94737 9.99988C1.94737 11.0574 2.15566 12.1046 2.56037 13.0816C2.96507 14.0587 3.55825 14.9464 4.30604 15.6942C5.05383 16.442 5.94158 17.0352 6.91862 17.4399C7.89565 17.8446 8.94283 18.0529 10.0004 18.0529C12.1362 18.0529 14.1845 17.2044 15.6947 15.6942C17.2049 14.184 18.0534 12.1357 18.0534 9.99988C18.0534 7.86409 17.2049 5.81578 15.6947 4.30555C14.1845 2.79532 12.1362 1.94688 10.0004 1.94688ZM0.526367 9.99988C0.526367 7.48722 1.52452 5.07747 3.30124 3.30075C5.07796 1.52403 7.48771 0.525879 10.0004 0.525879C12.513 0.525879 14.9228 1.52403 16.6995 3.30075C18.4762 5.07747 19.4744 7.48722 19.4744 9.99988C19.4744 12.5125 18.4762 14.9223 16.6995 16.699C14.9228 18.4757 12.513 19.4739 10.0004 19.4739C7.48771 19.4739 5.07796 18.4757 3.30124 16.699C1.52452 14.9223 0.526367 12.5125 0.526367 9.99988Z" fill="white"/>
<path opacity="0.5" fill-rule="evenodd" clip-rule="evenodd" d="M6.98389 2.53079C7.94206 2.14312 8.96627 1.94479 9.99989 1.94679C11.0335 1.94479 12.0577 2.14312 13.0159 2.53079C13.3649 2.91079 13.6819 3.35279 13.9609 3.83679C14.4829 4.74279 14.8909 5.82679 15.1549 7.02779C15.5709 7.13179 15.9596 7.24779 16.3209 7.37579C16.8869 7.57579 17.3949 7.80779 17.8199 8.07079C17.9326 8.52679 18.0046 8.99613 18.0359 9.47879C17.9448 9.36307 17.8411 9.25776 17.7269 9.16479C17.3449 8.84579 16.7649 8.53779 16.0049 8.26979C15.7949 8.19513 15.5739 8.12479 15.3419 8.05879C15.5238 9.33949 15.5446 10.6379 15.4039 11.9238C15.6139 11.8625 15.8142 11.7978 16.0049 11.7298C16.7649 11.4618 17.3449 11.1538 17.7269 10.8348C17.8562 10.7255 17.9592 10.6208 18.0359 10.5208C18.0046 11.0035 17.9326 11.4728 17.8199 11.9288C17.3452 12.2116 16.8425 12.4445 16.3199 12.6238C15.9696 12.7463 15.6143 12.8537 15.2549 12.9458C15.0009 14.3458 14.5539 15.6058 13.9609 16.6358C13.8496 16.8301 13.7301 17.0196 13.6029 17.2038C13.0029 17.5038 12.3609 17.7318 11.6879 17.8748C12.2159 17.4848 12.7099 16.9098 13.1399 16.1628C13.6189 15.3328 13.9999 14.3148 14.2449 13.1728C13.1069 13.3908 11.8269 13.5228 10.4739 13.5478V18.0378C10.1582 18.0565 9.84161 18.0565 9.52589 18.0378V13.5478C8.26053 13.5292 6.99901 13.4034 5.75489 13.1718C5.99889 14.3148 6.38089 15.3318 6.85989 16.1628C7.28989 16.9098 7.78389 17.4848 8.31189 17.8748C7.64766 17.7333 7.00416 17.5078 6.39689 17.2038C6.26966 17.0196 6.15022 16.8301 6.03889 16.6358C5.44589 15.6058 4.99889 14.3458 4.74489 12.9458C4.38512 12.8537 4.02946 12.7463 3.67889 12.6238C3.15623 12.4445 2.65355 12.2116 2.17889 11.9288C2.0655 11.4668 1.99355 10.9956 1.96389 10.5208C2.03989 10.6208 2.14289 10.7255 2.27289 10.8348C2.65489 11.1538 3.23489 11.4618 3.99489 11.7298C4.18556 11.7978 4.38589 11.8621 4.59589 11.9228C4.45528 10.6372 4.47611 9.33916 4.65789 8.05879C4.42589 8.12479 4.20489 8.19479 3.99489 8.26879C3.23489 8.53779 2.65489 8.84579 2.27289 9.16479C2.14289 9.27413 2.03956 9.37879 1.96289 9.47879C1.99556 8.99613 2.06789 8.52679 2.17989 8.07079C2.65455 7.78795 3.15723 7.55504 3.67989 7.37579C4.04056 7.24846 4.42889 7.13246 4.84489 7.02779C5.10889 5.82779 5.51689 4.74279 6.03889 3.83779C6.30533 3.369 6.62221 2.93073 6.98389 2.53079ZM13.1399 4.31079C13.5479 5.01879 13.8859 5.86379 14.1279 6.80579C12.9216 6.58846 11.6995 6.47006 10.4739 6.45179V2.03979C11.4519 2.23079 12.3919 3.01279 13.1399 4.31079ZM14.3439 7.81279C13.0695 7.55495 11.774 7.41602 10.4739 7.39779V12.5998C11.9209 12.5718 13.2659 12.4168 14.4189 12.1698C14.5036 11.5485 14.5462 10.9038 14.5469 10.2358C14.5469 9.39079 14.4759 8.57679 14.3439 7.81279ZM9.52589 2.03979V6.44979C8.29992 6.46834 7.07752 6.58707 5.87089 6.80479C6.11389 5.86279 6.45089 5.01779 6.85989 4.30879C7.60689 3.01179 8.54789 2.23179 9.52589 2.03979ZM9.52589 7.39679C8.22582 7.41502 6.93026 7.55395 5.65589 7.81179C5.51956 8.61223 5.45164 9.42283 5.45289 10.2348C5.45289 10.9018 5.49689 11.5488 5.58089 12.1678C6.73389 12.4158 8.07789 12.5708 9.52589 12.5978V7.39679Z" fill="white"/>
</svg>
