<svg width="18" height="17" viewBox="0 0 18 17" fill="none" xmlns="http://www.w3.org/2000/svg">
<path fill-rule="evenodd" clip-rule="evenodd" d="M8.2775 0.0307865C9.74451 -0.0944067 11.2189 0.163606 12.5562 0.779549C13.8935 1.39549 15.0479 2.34824 15.9062 3.54447V1.85935C15.9062 1.648 15.9902 1.44532 16.1396 1.29587C16.2891 1.14643 16.4918 1.06247 16.7031 1.06247C16.9145 1.06247 17.1172 1.14643 17.2666 1.29587C17.416 1.44532 17.5 1.648 17.5 1.85935V6.37497H12.9844C12.773 6.37497 12.5703 6.29102 12.4209 6.14157C12.2715 5.99213 12.1875 5.78944 12.1875 5.5781C12.1875 5.36675 12.2715 5.16407 12.4209 5.01462C12.5703 4.86518 12.773 4.78122 12.9844 4.78122H14.8193C14.0927 3.64425 13.0489 2.74504 11.8169 2.19466C10.5849 1.64429 9.21871 1.46687 7.88701 1.68432C6.55532 1.90176 5.31649 2.50455 4.32356 3.41822C3.33063 4.3319 2.6271 5.51642 2.29988 6.82547C2.27574 6.9283 2.2314 7.02531 2.16944 7.11085C2.10747 7.19639 2.02912 7.26876 1.93894 7.32375C1.84875 7.37874 1.74854 7.41525 1.64412 7.43116C1.5397 7.44707 1.43316 7.44206 1.33069 7.41643C1.22822 7.39079 1.13187 7.34505 1.04724 7.28184C0.962616 7.21864 0.891398 7.13924 0.837731 7.04826C0.784064 6.95728 0.749019 6.85655 0.734634 6.75191C0.720249 6.64726 0.726811 6.54081 0.753937 6.43872C1.18377 4.72005 2.13986 3.17863 3.48859 2.02993C4.83732 0.881227 6.51126 0.18265 8.27644 0.031849L8.2775 0.0307865ZM4.665 15.811C5.80399 16.4861 7.08493 16.8858 8.40572 16.9782C9.72652 17.0706 11.0506 16.8532 12.2725 16.3433C13.4944 15.8334 14.5803 15.0451 15.4436 14.0412C16.3069 13.0373 16.9238 11.8457 17.245 10.5612C17.2928 10.3574 17.2586 10.143 17.1496 9.96428C17.0406 9.78555 16.8657 9.65688 16.6626 9.60608C16.4595 9.55527 16.2446 9.58642 16.0643 9.69278C15.884 9.79913 15.7528 9.97216 15.6991 10.1745C15.3717 11.4833 14.6681 12.6675 13.6753 13.5809C12.6824 14.4943 11.4438 15.097 10.1123 15.3144C8.78084 15.5319 7.41484 15.3545 6.183 14.8044C4.95116 14.2543 3.90743 13.3554 3.18069 12.2187H5.01562C5.22697 12.2187 5.42966 12.1348 5.5791 11.9853C5.72854 11.8359 5.8125 11.6332 5.8125 11.4218C5.8125 11.2105 5.72854 11.0078 5.5791 10.8584C5.42966 10.7089 5.22697 10.625 5.01562 10.625H0.5V15.1406C0.5 15.3519 0.583956 15.5546 0.733399 15.7041C0.882842 15.8535 1.08553 15.9375 1.29688 15.9375C1.50822 15.9375 1.71091 15.8535 1.86035 15.7041C2.00979 15.5546 2.09375 15.3519 2.09375 15.1406V13.4555C2.77883 14.4099 3.65434 15.212 4.665 15.811Z" fill="white"/>
</svg>
