<svg width="12" height="15" viewBox="0 0 12 15" fill="none" xmlns="http://www.w3.org/2000/svg">
<path d="M6.00033 0.833344C4.15933 0.833344 2.66699 2.32568 2.66699 4.16668C2.66699 6.00768 4.15933 7.50001 6.00033 7.50001C7.84133 7.50001 9.33366 6.00768 9.33366 4.16668C9.33366 2.32568 7.84133 0.833344 6.00033 0.833344ZM3.50033 4.16668C3.50033 3.50364 3.76372 2.86775 4.23256 2.39891C4.7014 1.93007 5.33728 1.66668 6.00033 1.66668C6.66337 1.66668 7.29925 1.93007 7.76809 2.39891C8.23693 2.86775 8.50033 3.50364 8.50033 4.16668C8.50033 4.82972 8.23693 5.4656 7.76809 5.93444C7.29925 6.40328 6.66337 6.66668 6.00033 6.66668C5.33728 6.66668 4.7014 6.40328 4.23256 5.93444C3.76372 5.4656 3.50033 4.82972 3.50033 4.16668ZM2.08366 8.83334C1.70799 8.83334 1.34771 8.98255 1.08204 9.24816C0.816375 9.51376 0.667081 9.87401 0.666992 10.2497V10.5C0.666992 11.7517 1.31433 12.689 2.30699 13.2933C3.28366 13.8877 4.59566 14.1667 6.00033 14.1667C7.40499 14.1667 8.71699 13.8877 9.69366 13.2933C10.6863 12.689 11.3337 11.7517 11.3337 10.5V10.2497C11.3336 9.87401 11.1843 9.51376 10.9186 9.24816C10.6529 8.98255 10.2927 8.83334 9.91699 8.83334H2.08366ZM1.50033 10.2497C1.50041 10.095 1.56191 9.94674 1.6713 9.83741C1.78068 9.72809 1.92901 9.66668 2.08366 9.66668H9.91699C10.2393 9.66668 10.5003 9.92768 10.5003 10.2497V10.5C10.5003 11.4147 10.047 12.1027 9.26033 12.5817C8.45699 13.0707 7.31099 13.3333 6.00033 13.3333C4.68966 13.3333 3.54366 13.0707 2.74033 12.5817C1.95366 12.1027 1.50033 11.415 1.50033 10.5V10.2497Z" fill="#7490B7"/>
</svg>
