<svg width="14" height="15" viewBox="0 0 14 15" fill="none" xmlns="http://www.w3.org/2000/svg">
<path d="M3.72624 1.33334C3.01899 1.33334 2.34072 1.6143 1.84062 2.11439C1.34052 2.61449 1.05957 3.29277 1.05957 4.00001V8.13868C1.05957 8.84592 1.34052 9.5242 1.84062 10.0243C2.34072 10.5244 3.01899 10.8053 3.72624 10.8053H3.78824V13.3333C3.78818 13.3982 3.80701 13.4616 3.84243 13.5158C3.87785 13.5701 3.92833 13.6129 3.98768 13.6389C4.04703 13.6649 4.11268 13.6731 4.1766 13.6624C4.24052 13.6517 4.29993 13.6226 4.34757 13.5787L7.3609 10.8053H10.2736C10.9808 10.8053 11.6591 10.5244 12.1592 10.0243C12.6593 9.5242 12.9402 8.84592 12.9402 8.13868V4.00001C12.9402 3.29277 12.6593 2.61449 12.1592 2.11439C11.6591 1.6143 10.9808 1.33334 10.2736 1.33334H3.72624Z" stroke="#7490B7" stroke-linecap="round" stroke-linejoin="round"/>
</svg>
