<svg width="14" height="13" viewBox="0 0 14 13" fill="none" xmlns="http://www.w3.org/2000/svg">
<path d="M10 1.83333V0.5M4 1.83333V0.5M1.16667 3.83333H12.8333M1 5.196C1 3.786 1 3.08067 1.29067 2.542C1.5535 2.06154 1.96133 1.67634 2.456 1.44133C3.02667 1.16667 3.77333 1.16667 5.26667 1.16667H8.73333C10.2267 1.16667 10.9733 1.16667 11.544 1.44133C12.046 1.68267 12.4533 2.068 12.7093 2.54133C13 3.08133 13 3.78667 13 5.19667V8.47133C13 9.88133 13 10.5867 12.7093 11.1253C12.4465 11.6058 12.0387 11.991 11.544 12.226C10.9733 12.5 10.2267 12.5 8.73333 12.5H5.26667C3.77333 12.5 3.02667 12.5 2.456 12.2253C1.96143 11.9905 1.55361 11.6055 1.29067 11.1253C1 10.5853 1 9.88 1 8.47V5.196Z" stroke="#7490B7" stroke-linecap="round" stroke-linejoin="round"/>
</svg>
