<svg width="14" height="15" viewBox="0 0 14 15" fill="none" xmlns="http://www.w3.org/2000/svg">
<path fill-rule="evenodd" clip-rule="evenodd" d="M7.39967 7.16868L9.99367 9.76268L9.42834 10.3287L6.59967 7.50001V3.50001H7.39967V7.16868ZM6.99967 14.1667C3.31767 14.1667 0.333008 11.182 0.333008 7.50001C0.333008 3.81801 3.31767 0.833344 6.99967 0.833344C10.6817 0.833344 13.6663 3.81801 13.6663 7.50001C13.6663 11.182 10.6817 14.1667 6.99967 14.1667ZM6.99967 13.3667C8.55561 13.3667 10.0478 12.7486 11.148 11.6484C12.2482 10.5482 12.8663 9.05595 12.8663 7.50001C12.8663 5.94407 12.2482 4.45186 11.148 3.35165C10.0478 2.25144 8.55561 1.63334 6.99967 1.63334C5.44374 1.63334 3.95153 2.25144 2.85131 3.35165C1.7511 4.45186 1.13301 5.94407 1.13301 7.50001C1.13301 9.05595 1.7511 10.5482 2.85131 11.6484C3.95153 12.7486 5.44374 13.3667 6.99967 13.3667Z" fill="#7490B7"/>
</svg>
