<svg width="30" height="30" viewBox="0 0 30 30" fill="none" xmlns="http://www.w3.org/2000/svg">
<path d="M0.75 15C0.75 8.283 0.75 4.923 2.8365 2.8365C4.923 0.75 8.2815 0.75 15 0.75C21.717 0.75 25.077 0.75 27.1635 2.8365C29.25 4.923 29.25 8.2815 29.25 15C29.25 21.717 29.25 25.077 27.1635 27.1635C25.077 29.25 21.7185 29.25 15 29.25C8.283 29.25 4.923 29.25 2.8365 27.1635C0.75 25.077 0.75 21.7185 0.75 15Z" stroke="white" stroke-width="1.5" stroke-linecap="round" stroke-linejoin="round"/>
<path d="M19.5 19.5L22.5 22.5M21 14.25C21 12.4598 20.2888 10.7429 19.023 9.47703C17.7571 8.21116 16.0402 7.5 14.25 7.5C12.4598 7.5 10.7429 8.21116 9.47703 9.47703C8.21116 10.7429 7.5 12.4598 7.5 14.25C7.5 16.0402 8.21116 17.7571 9.47703 19.023C10.7429 20.2888 12.4598 21 14.25 21C16.0402 21 17.7571 20.2888 19.023 19.023C20.2888 17.7571 21 16.0402 21 14.25Z" stroke="white" stroke-width="1.5" stroke-linecap="round" stroke-linejoin="round"/>
</svg>
