<svg width="30" height="18" viewBox="0 0 30 18" fill="none" xmlns="http://www.w3.org/2000/svg">
<path d="M15.0314 0C-5.71552 0 -1.72974 18 7.60354 18C9.47386 18 11.235 17.0302 12.3576 15.3816L13.5637 13.6102C14.2978 12.5325 15.7654 12.5325 16.4995 13.6102L17.7056 15.3816C18.8278 17.0302 20.5889 18 22.4592 18C31.3589 18 36.0825 0 15.0314 0ZM8.62495 11.4544C6.70026 11.4544 5.4487 10.2516 4.8712 9.53016C4.62604 9.22406 4.62604 8.77594 4.8712 8.46937C5.4487 7.7475 6.69979 6.54516 8.62495 6.54516C10.5501 6.54516 11.8012 7.74797 12.3787 8.46937C12.6239 8.77547 12.6239 9.22359 12.3787 9.53016C11.8012 10.252 10.5496 11.4544 8.62495 11.4544ZM21.375 11.4544C19.4503 11.4544 18.1987 10.2516 17.6212 9.53016C17.376 9.22406 17.376 8.77594 17.6212 8.46937C18.1987 7.7475 19.4498 6.54516 21.375 6.54516C23.3001 6.54516 24.5512 7.74797 25.1287 8.46937C25.3739 8.77547 25.3739 9.22359 25.1287 9.53016C24.5512 10.252 23.2996 11.4544 21.375 11.4544Z" fill="url(#paint0_linear_1622_3554)"/>
<defs>
<linearGradient id="paint0_linear_1622_3554" x1="15" y1="0" x2="15" y2="18" gradientUnits="userSpaceOnUse">
<stop stop-color="#D76B43"/>
<stop offset="1" stop-color="#884520"/>
</linearGradient>
</defs>
</svg>
