<svg width="13" height="15" viewBox="0 0 13 15" fill="none" xmlns="http://www.w3.org/2000/svg">
<path d="M8.27083 3.60417L4.72917 6.08333M8.27083 11.3958L4.72917 8.91667M4.72917 7.5C4.72917 7.96965 4.5426 8.42007 4.2105 8.75217C3.87841 9.08426 3.42799 9.27083 2.95833 9.27083C2.48868 9.27083 2.03826 9.08426 1.70617 8.75217C1.37407 8.42007 1.1875 7.96965 1.1875 7.5C1.1875 7.03035 1.37407 6.57993 1.70617 6.24783C2.03826 5.91574 2.48868 5.72917 2.95833 5.72917C3.42799 5.72917 3.87841 5.91574 4.2105 6.24783C4.5426 6.57993 4.72917 7.03035 4.72917 7.5ZM11.8125 12.1042C11.8125 12.5738 11.6259 13.0242 11.2938 13.3563C10.9617 13.6884 10.5113 13.875 10.0417 13.875C9.57201 13.875 9.12159 13.6884 8.7895 13.3563C8.4574 13.0242 8.27083 12.5738 8.27083 12.1042C8.27083 11.6345 8.4574 11.1841 8.7895 10.852C9.12159 10.5199 9.57201 10.3333 10.0417 10.3333C10.5113 10.3333 10.9617 10.5199 11.2938 10.852C11.6259 11.1841 11.8125 11.6345 11.8125 12.1042ZM11.8125 2.89583C11.8125 3.36549 11.6259 3.81591 11.2938 4.148C10.9617 4.4801 10.5113 4.66667 10.0417 4.66667C9.57201 4.66667 9.12159 4.4801 8.7895 4.148C8.4574 3.81591 8.27083 3.36549 8.27083 2.89583C8.27083 2.42618 8.4574 1.97576 8.7895 1.64367C9.12159 1.31157 9.57201 1.125 10.0417 1.125C10.5113 1.125 10.9617 1.31157 11.2938 1.64367C11.6259 1.97576 11.8125 2.42618 11.8125 2.89583Z" stroke="white" stroke-linecap="round" stroke-linejoin="round"/>
</svg>
