<svg width="24" height="24" viewBox="0 0 24 24" fill="none" xmlns="http://www.w3.org/2000/svg">
<path opacity="0.5" d="M3.378 5.082C3 5.62 3 7.22 3 10.417V11.991C3 17.629 7.239 20.366 9.899 21.527C10.62 21.842 10.981 22 12 22C13.02 22 13.38 21.842 14.101 21.527C16.761 20.365 21 17.63 21 11.991V10.417C21 7.219 21 5.62 20.622 5.082C20.245 4.545 18.742 4.03 15.735 3.001L15.162 2.805C13.595 2.268 12.812 2 12 2C11.188 2 10.405 2.268 8.838 2.805L8.265 3C5.258 4.03 3.755 4.545 3.378 5.082Z" fill="#68CC58"/>
<path d="M12.75 9C12.75 8.80109 12.671 8.61032 12.5303 8.46967C12.3897 8.32902 12.1989 8.25 12 8.25C11.8011 8.25 11.6103 8.32902 11.4697 8.46967C11.329 8.61032 11.25 8.80109 11.25 9V11.25H9C8.80109 11.25 8.61032 11.329 8.46967 11.4697C8.32902 11.6103 8.25 11.8011 8.25 12C8.25 12.1989 8.32902 12.3897 8.46967 12.5303C8.61032 12.671 8.80109 12.75 9 12.75H11.25V15C11.25 15.1989 11.329 15.3897 11.4697 15.5303C11.6103 15.671 11.8011 15.75 12 15.75C12.1989 15.75 12.3897 15.671 12.5303 15.5303C12.671 15.3897 12.75 15.1989 12.75 15V12.75H15C15.1989 12.75 15.3897 12.671 15.5303 12.5303C15.671 12.3897 15.75 12.1989 15.75 12C15.75 11.8011 15.671 11.6103 15.5303 11.4697C15.3897 11.329 15.1989 11.25 15 11.25H12.75V9Z" fill="#68CC58"/>
</svg>
