<svg width="24" height="17" viewBox="0 0 24 17" fill="none" xmlns="http://www.w3.org/2000/svg">
<path d="M7.29158 1.20829H23.9583V5.37496H22.9166V6.41663H16.6666C16.3903 6.41663 16.1254 6.52637 15.93 6.72172C15.7347 6.91707 15.6249 7.18203 15.6249 7.45829V8.49996C15.6249 9.05249 15.4054 9.5824 15.0147 9.9731C14.624 10.3638 14.0941 10.5833 13.5416 10.5833H10.0208C9.62492 10.5833 9.26033 10.8125 9.08325 11.1666L6.53117 16.2604C6.35408 16.6145 5.99992 16.8333 5.60408 16.8333H2.08325C2.08325 16.8333 -1.04175 16.8333 3.12492 10.5833C3.12492 10.5833 6.24992 6.41663 2.08325 6.41663V1.20829H3.12492L3.64575 0.166626H6.77075L7.29158 1.20829ZM14.5833 8.49996V7.45829C14.5833 7.18203 14.4735 6.91707 14.2782 6.72172C14.0828 6.52637 13.8179 6.41663 13.5416 6.41663H12.4999C12.4999 6.41663 11.4583 7.45829 12.4999 8.49996C11.9474 8.49996 11.4175 8.28047 11.0268 7.88977C10.6361 7.49906 10.4166 6.96916 10.4166 6.41663C10.1403 6.41663 9.87537 6.52637 9.68002 6.72172C9.48466 6.91707 9.37492 7.18203 9.37492 7.45829V8.49996C9.37492 8.77623 9.48466 9.04118 9.68002 9.23653C9.87537 9.43188 10.1403 9.54163 10.4166 9.54163H13.5416C13.8179 9.54163 14.0828 9.43188 14.2782 9.23653C14.4735 9.04118 14.5833 8.77623 14.5833 8.49996Z" fill="url(#paint0_linear_1622_3551)"/>
<defs>
<linearGradient id="paint0_linear_1622_3551" x1="12.4583" y1="0.166626" x2="12.4583" y2="16.8333" gradientUnits="userSpaceOnUse">
<stop stop-color="#E7DE2F"/>
<stop offset="1" stop-color="#817C1A"/>
</linearGradient>
</defs>
</svg>
