<svg width="23" height="20" viewBox="0 0 23 20" fill="none" xmlns="http://www.w3.org/2000/svg">
<path d="M12.7999 0.443449C11.9588 0.446543 11.1229 0.529418 10.3209 0.665918C6.25556 1.35779 3.96407 3.17218 2.72761 5.72017C4.19081 5.60607 5.63395 5.48467 7.03851 5.49339C8.16886 5.50042 9.27426 5.59168 10.3451 5.83886C11.0552 6.00292 11.5006 6.61918 11.6392 7.32643C11.7777 8.03368 11.6794 8.86956 11.4022 9.74298L11.3887 9.78536L11.3668 9.82407C11.003 10.4634 10.2295 10.9724 9.24361 11.5113C8.25773 12.0502 7.05478 12.575 5.85595 13.0314C4.65712 13.4877 3.46476 13.8742 2.50087 14.13C2.16084 14.2202 1.85165 14.2931 1.57579 14.3483C1.68243 15.8075 1.88339 17.3192 2.13867 18.8473C8.7067 17.0544 14.959 15.1026 21.0532 13.0698C22.2689 10.9859 22.456 9.01754 21.8485 7.12914C20.7989 3.8664 18.9938 2.11126 16.9166 1.21501C15.6183 0.654855 14.2019 0.438293 12.8 0.443449H12.7999ZM5.10248 6.40023C4.67779 6.42414 4.24631 6.45442 3.81192 6.48629L1.78026 13.44C1.93889 13.4029 2.10539 13.362 2.28436 13.3145C2.48285 13.2614 2.68068 13.2059 2.87779 13.1479C3.34757 11.6915 4.90748 6.98781 5.10248 6.40023ZM2.91342 6.55314C2.40398 6.59186 1.89042 6.63067 1.37086 6.66423C1.35586 6.68509 1.33739 6.70862 1.30907 6.7705C1.23501 6.93221 1.15087 7.21196 1.07882 7.55443C0.934684 8.23937 0.827106 9.18226 0.764528 10.1268C0.702043 11.0713 0.683434 12.0223 0.708606 12.7322C0.721169 13.0871 0.745637 13.384 0.7762 13.5741C0.77845 13.5884 0.779856 13.5887 0.782293 13.6017C0.803856 13.6013 0.830715 13.5997 0.854762 13.5987L2.91342 6.55314ZM9.50011 6.57812C8.76904 6.57812 8.15667 7.1679 8.15667 7.89775C8.15667 8.62759 8.76904 9.21751 9.50011 9.21751C10.2312 9.21751 10.8435 8.62764 10.8435 7.89775C10.8435 7.1679 10.2312 6.57812 9.50011 6.57812ZM9.50011 7.42187C9.78698 7.42187 9.99979 7.63595 9.99979 7.89775C9.99979 8.15959 9.78698 8.37376 9.50011 8.37376C9.21323 8.37376 9.00042 8.15954 9.00042 7.89775C9.00042 7.63595 9.21323 7.42187 9.50011 7.42187ZM20.2903 14.2124C14.4868 16.1337 8.52909 17.9795 2.28389 19.6825C2.30325 19.7911 2.32186 19.8995 2.34164 20.0082C9.26072 18.759 14.3404 16.7754 19.7491 14.8911C19.9363 14.6703 20.1168 14.444 20.2904 14.2124L20.2903 14.2124Z" fill="url(#paint0_linear_1622_3633)"/>
<defs>
<linearGradient id="paint0_linear_1622_3633" x1="11.4413" y1="0.443359" x2="11.4413" y2="20.0082" gradientUnits="userSpaceOnUse">
<stop stop-color="#FFBD42"/>
<stop offset="1" stop-color="#997128"/>
</linearGradient>
</defs>
</svg>
