<svg width="28" height="7" viewBox="0 0 28 7" fill="none" xmlns="http://www.w3.org/2000/svg">
<path d="M14.2526 5.26552V2.50048C14.2526 1.93496 14.5141 1.53188 15.0761 1.53188H18.5414C18.5587 1.53188 18.5822 1.51364 18.5822 1.49106V0.938568C18.5828 0.934514 18.5813 0.93017 18.5778 0.925537H14.3386C13.4204 1.04281 12.9722 1.68564 12.9722 2.49961V5.26465C12.9722 5.82062 12.7011 6.22803 12.1487 6.22803H8.49754C8.47409 6.22803 8.45671 6.24106 8.45671 6.26886V6.82048C8.45671 6.84393 8.46627 6.86218 8.47843 6.86565H12.6316C13.7132 6.83438 14.2474 6.14637 14.2474 5.26031L14.2526 5.26552ZM0.0269294 6.87086H1.24397C1.2537 6.86683 1.26198 6.85993 1.26772 6.85109C1.27346 6.84225 1.27638 6.83188 1.27611 6.82135V5.06225C1.27611 4.49673 1.59231 4.10755 2.05793 4.10755H7.06767C8.1935 4.10755 8.74164 3.41521 8.74164 2.50569C8.74164 1.68651 8.2934 1.04889 7.37519 0.931618H0.00955561C0.00955561 0.935093 0 0.939436 0 0.944649V1.49714C0 1.52436 0.0136095 1.53796 0.0408285 1.53796H6.64202C7.20406 1.53796 7.46554 1.94104 7.46554 2.50134C7.46554 3.06165 7.20406 3.46993 6.64202 3.46993H1.42205C0.611559 3.46993 0.000868692 4.15794 0.000868692 5.06225V6.82135C0.000868692 6.8448 0.0147678 6.86304 0.0321416 6.86652L0.0269294 6.87086ZM18.5587 6.23411H25.2103C25.2277 6.23411 25.2459 6.24714 25.2459 6.26104V6.82135C25.2459 6.84915 25.2633 6.86305 25.2815 6.86305H26.4803C26.5038 6.86305 26.5255 6.84915 26.5255 6.82135V6.26973C26.5255 6.24627 26.549 6.2289 26.5707 6.2289H27.7616C27.7886 6.2289 27.8025 6.20545 27.8025 6.18807V5.62603C27.8025 5.60431 27.7929 5.58086 27.7616 5.58086H26.5707C26.549 5.58086 26.5255 5.56348 26.5255 5.54524V1.53188C26.5255 1.20612 26.4082 0.997639 26.1997 0.926406H25.8557C25.7332 0.964227 25.6152 1.0155 25.5039 1.0793L18.3459 5.50007C18.0653 5.67641 17.9706 5.871 18.0375 6.0152C18.0922 6.13769 18.2556 6.22803 18.5622 6.22803L18.5587 6.23411ZM19.6003 5.49659L25.1469 2.06265C25.1825 2.03572 25.2511 2.04441 25.2511 2.12173V5.55132C25.2511 5.57304 25.2329 5.59215 25.2155 5.59215H19.6316C19.5864 5.59215 19.5647 5.57825 19.5595 5.56522C19.5502 5.538 19.5638 5.51513 19.6003 5.49659Z" fill="white"/>
</svg>
