<svg width="28" height="7" viewBox="0 0 28 7" fill="none" xmlns="http://www.w3.org/2000/svg">
<path d="M27.563 0.910767H19.0521V3.21801C19.0521 3.21801 19.0267 4.10871 20.1282 4.10871H25.3299C25.5337 4.10832 25.7354 4.1493 25.9229 4.22917C26.2136 4.35889 26.5403 4.62297 26.5403 5.15461C26.5403 5.63182 26.3086 5.90285 26.0804 6.05458C25.8907 6.17715 25.6693 6.24156 25.4434 6.2399H19.0533V6.88736H26.18C26.18 6.88736 27.7981 6.82134 27.7981 5.15809C27.7981 4.31256 27.3036 3.89327 26.8599 3.68711C26.5727 3.55622 26.2606 3.48867 25.9449 3.48904H20.7884C20.7022 3.49052 20.6171 3.47062 20.5405 3.43113C20.4666 3.39157 20.4056 3.33176 20.3646 3.25872C20.3236 3.18568 20.3042 3.10244 20.3089 3.01879V1.55012H27.563V0.910767ZM8.33944 6.23758V6.88505H11.952C12.3837 6.88896 12.8023 6.73723 13.1311 6.45765C13.3005 6.31368 13.4355 6.13375 13.5265 5.93098C13.6174 5.7282 13.662 5.50769 13.657 5.2855V2.53232C13.6553 2.38174 13.6878 2.23274 13.752 2.09652C13.8162 1.96031 13.9104 1.84041 14.0276 1.74587C14.1938 1.61582 14.3993 1.54636 14.6102 1.54896H17.7607V0.910767H14.0091C14.0091 0.910767 12.391 0.936248 12.391 2.64815V5.21948C12.3937 5.42987 12.3367 5.63671 12.2265 5.81598C12.1471 5.9489 12.0336 6.05819 11.8978 6.13252C11.762 6.20685 11.6088 6.24352 11.454 6.23874L8.33944 6.23758ZM0 0.910767V1.55012H6.43874C6.61778 1.54854 6.79497 1.58651 6.95764 1.66132C7.21246 1.78062 7.4997 2.02732 7.4997 2.52769C7.506 2.70731 7.45753 2.8846 7.36071 3.03603C7.2639 3.18746 7.12332 3.30587 6.95764 3.37553C6.79208 3.45053 6.61239 3.48923 6.43063 3.48904H1.65515C1.37238 3.48771 1.09306 3.5511 0.838577 3.67436C0.441295 3.87358 0 4.34268 0 5.11755V6.88042H1.23933V5.1245C1.23887 5.01094 1.25929 4.89826 1.29956 4.79208C1.40149 4.52916 1.66094 4.10871 2.26555 4.10871H7.08042C7.24206 4.10983 7.40306 4.08839 7.55877 4.04501C8.00123 3.9176 8.73904 3.55506 8.73904 2.52769C8.73904 0.929299 7.14875 0.910767 7.14875 0.910767H0Z" fill="white"/>
</svg>
