<svg width="20" height="20" viewBox="0 0 20 20" fill="none" xmlns="http://www.w3.org/2000/svg">
<path fill-rule="evenodd" clip-rule="evenodd" d="M9.99988 1.947C8.94234 1.947 7.89516 2.1553 6.91813 2.56C5.94109 2.9647 5.05334 3.55788 4.30555 4.30567C3.55776 5.05346 2.96458 5.94122 2.55988 6.91825C2.15518 7.89529 1.94688 8.94247 1.94688 10C1.94688 11.0575 2.15518 12.1047 2.55988 13.0818C2.96458 14.0588 3.55776 14.9465 4.30555 15.6943C5.05334 16.4421 5.94109 17.0353 6.91813 17.44C7.89516 17.8447 8.94234 18.053 9.99988 18.053C12.1357 18.053 14.184 17.2046 15.6942 15.6943C17.2044 14.1841 18.0529 12.1358 18.0529 10C18.0529 7.86421 17.2044 5.8159 15.6942 4.30567C14.184 2.79544 12.1357 1.947 9.99988 1.947ZM0.525879 10C0.525879 7.48734 1.52403 5.07759 3.30075 3.30087C5.07747 1.52415 7.48722 0.526001 9.99988 0.526001C12.5125 0.526001 14.9223 1.52415 16.699 3.30087C18.4757 5.07759 19.4739 7.48734 19.4739 10C19.4739 12.5127 18.4757 14.9224 16.699 16.6991C14.9223 18.4759 12.5125 19.474 9.99988 19.474C7.48722 19.474 5.07747 18.4759 3.30075 16.6991C1.52403 14.9224 0.525879 12.5127 0.525879 10Z" fill="white"/>
<path opacity="0.5" fill-rule="evenodd" clip-rule="evenodd" d="M6.98389 2.53101C7.94206 2.14333 8.96627 1.94501 9.99989 1.94701C11.0335 1.94501 12.0577 2.14333 13.0159 2.53101C13.3649 2.91101 13.6819 3.35301 13.9609 3.83701C14.4829 4.74301 14.8909 5.82701 15.1549 7.02801C15.5709 7.13201 15.9596 7.24801 16.3209 7.37601C16.8869 7.57601 17.3949 7.80801 17.8199 8.07101C17.9326 8.52701 18.0046 8.99634 18.0359 9.47901C17.9448 9.36328 17.8411 9.25797 17.7269 9.16501C17.3449 8.84601 16.7649 8.53801 16.0049 8.27001C15.7949 8.19534 15.5739 8.12501 15.3419 8.05901C15.5238 9.3397 15.5446 10.6381 15.4039 11.924C15.6139 11.8627 15.8142 11.798 16.0049 11.73C16.7649 11.462 17.3449 11.154 17.7269 10.835C17.8562 10.7257 17.9592 10.621 18.0359 10.521C18.0046 11.0037 17.9326 11.473 17.8199 11.929C17.3452 12.2119 16.8425 12.4448 16.3199 12.624C15.9696 12.7465 15.6143 12.8539 15.2549 12.946C15.0009 14.346 14.5539 15.606 13.9609 16.636C13.8496 16.8303 13.7301 17.0198 13.6029 17.204C13.0029 17.504 12.3609 17.732 11.6879 17.875C12.2159 17.485 12.7099 16.91 13.1399 16.163C13.6189 15.333 13.9999 14.315 14.2449 13.173C13.1069 13.391 11.8269 13.523 10.4739 13.548V18.038C10.1582 18.0567 9.84161 18.0567 9.52589 18.038V13.548C8.26053 13.5294 6.99901 13.4036 5.75489 13.172C5.99889 14.315 6.38089 15.332 6.85989 16.163C7.28989 16.91 7.78389 17.485 8.31189 17.875C7.64766 17.7335 7.00416 17.508 6.39689 17.204C6.26966 17.0198 6.15022 16.8303 6.03889 16.636C5.44589 15.606 4.99889 14.346 4.74489 12.946C4.38512 12.8539 4.02946 12.7465 3.67889 12.624C3.15623 12.4448 2.65355 12.2119 2.17889 11.929C2.0655 11.467 1.99355 10.9958 1.96389 10.521C2.03989 10.621 2.14289 10.7257 2.27289 10.835C2.65489 11.154 3.23489 11.462 3.99489 11.73C4.18556 11.798 4.38589 11.8623 4.59589 11.923C4.45528 10.6375 4.47611 9.33938 4.65789 8.05901C4.42589 8.12501 4.20489 8.19501 3.99489 8.26901C3.23489 8.53801 2.65489 8.84601 2.27289 9.16501C2.14289 9.27434 2.03956 9.37901 1.96289 9.47901C1.99556 8.99634 2.06789 8.52701 2.17989 8.07101C2.65455 7.78816 3.15723 7.55525 3.67989 7.37601C4.04056 7.24867 4.42889 7.13267 4.84489 7.02801C5.10889 5.82801 5.51689 4.74301 6.03889 3.83801C6.30533 3.36921 6.62221 2.93094 6.98389 2.53101ZM13.1399 4.31101C13.5479 5.01901 13.8859 5.86401 14.1279 6.80601C12.9216 6.58867 11.6995 6.47028 10.4739 6.45201V2.04001C11.4519 2.23101 12.3919 3.01301 13.1399 4.31101ZM14.3439 7.81301C13.0695 7.55517 11.774 7.41624 10.4739 7.39801V12.6C11.9209 12.572 13.2659 12.417 14.4189 12.17C14.5036 11.5487 14.5462 10.904 14.5469 10.236C14.5469 9.39101 14.4759 8.57701 14.3439 7.81301ZM9.52589 2.04001V6.45001C8.29992 6.46855 7.07752 6.58728 5.87089 6.80501C6.11389 5.86301 6.45089 5.01801 6.85989 4.30901C7.60689 3.01201 8.54789 2.23201 9.52589 2.04001ZM9.52589 7.39701C8.22582 7.41524 6.93026 7.55417 5.65589 7.81201C5.51956 8.61244 5.45164 9.42304 5.45289 10.235C5.45289 10.902 5.49689 11.549 5.58089 12.168C6.73389 12.416 8.07789 12.571 9.52589 12.598V7.39701Z" fill="white"/>
</svg>
