<svg width="24" height="25" viewBox="0 0 24 25" fill="none" xmlns="http://www.w3.org/2000/svg">
<path d="M13.0001 21.5H10.9321C8.18206 21.5 6.80606 21.5 5.85206 20.74C4.55106 19.694 4.46206 17.573 4.20106 16.088L3.60806 12.713C3.5516 12.4095 3.42314 12.1239 3.23348 11.8803C3.04382 11.6367 2.79848 11.4422 2.51806 11.313C2.4501 11.282 2.3903 11.2356 2.34342 11.1774C2.29655 11.1193 2.2639 11.051 2.24806 10.978C2.07806 10.171 1.62606 9.047 2.63806 8.601C2.86706 8.5 3.18006 8.5 3.80406 8.5H7.50006M11.5001 8.5H20.1961C20.8211 8.5 21.1331 8.5 21.3621 8.6C22.3741 9.047 21.9221 10.17 21.7521 10.978C21.7362 11.051 21.7036 11.1193 21.6567 11.1774C21.6098 11.2356 21.55 11.282 21.4821 11.313C21.158 11.466 20.881 11.7033 20.6801 12M15.0001 18H22.0001M18.5001 21.5V14.5M6.50006 11.5L10.0001 3.5M15.0001 3.5L17.5001 8.5" stroke="white" stroke-width="1.5" stroke-linecap="round" stroke-linejoin="round"/>
</svg>
