<svg width="28" height="7" viewBox="0 0 28 7" fill="none" xmlns="http://www.w3.org/2000/svg">
<path d="M27.563 0.910645H19.0521V3.21789C19.0521 3.21789 19.0267 4.10859 20.1282 4.10859H25.3299C25.5337 4.1082 25.7354 4.14918 25.9229 4.22905C26.2136 4.35877 26.5403 4.62285 26.5403 5.15449C26.5403 5.63169 26.3086 5.90273 26.0804 6.05446C25.8907 6.17703 25.6693 6.24144 25.4434 6.23978H19.0533V6.88724H26.18C26.18 6.88724 27.7981 6.82122 27.7981 5.15797C27.7981 4.31244 27.3036 3.89315 26.8599 3.68698C26.5727 3.5561 26.2606 3.48855 25.9449 3.48892H20.7884C20.7022 3.4904 20.6171 3.4705 20.5405 3.43101C20.4666 3.39145 20.4056 3.33164 20.3646 3.2586C20.3236 3.18556 20.3042 3.10232 20.3089 3.01867V1.55H27.563V0.910645ZM8.33944 6.23746V6.88493H11.952C12.3837 6.88884 12.8023 6.73711 13.1311 6.45753C13.3005 6.31356 13.4355 6.13363 13.5265 5.93085C13.6174 5.72808 13.662 5.50756 13.657 5.28537V2.5322C13.6553 2.38162 13.6878 2.23262 13.752 2.0964C13.8162 1.96018 13.9104 1.84029 14.0276 1.74575C14.1938 1.6157 14.3993 1.54624 14.6102 1.54884H17.7607V0.910645H14.0091C14.0091 0.910645 12.391 0.936126 12.391 2.64803V5.21936C12.3937 5.42975 12.3367 5.63659 12.2265 5.81586C12.1471 5.94878 12.0336 6.05806 11.8978 6.13239C11.762 6.20672 11.6088 6.2434 11.454 6.23862L8.33944 6.23746ZM0 0.910645V1.55H6.43874C6.61778 1.54842 6.79497 1.58638 6.95764 1.66119C7.21246 1.78049 7.4997 2.0272 7.4997 2.52757C7.506 2.70719 7.45753 2.88448 7.36071 3.03591C7.2639 3.18734 7.12332 3.30574 6.95764 3.37541C6.79208 3.45041 6.61239 3.48911 6.43063 3.48892H1.65515C1.37238 3.48759 1.09306 3.55098 0.838577 3.67424C0.441295 3.87346 0 4.34256 0 5.11743V6.88029H1.23933V5.12438C1.23887 5.01082 1.25929 4.89814 1.29956 4.79196C1.40149 4.52903 1.66094 4.10859 2.26555 4.10859H7.08042C7.24206 4.10971 7.40306 4.08827 7.55877 4.04488C8.00123 3.91748 8.73904 3.55494 8.73904 2.52757C8.73904 0.929177 7.14875 0.910645 7.14875 0.910645H0Z" fill="#7490B7"/>
</svg>
