<svg width="27" height="27" viewBox="0 0 27 27" fill="none" xmlns="http://www.w3.org/2000/svg">
<path d="M7.46498 3.1141C7.60156 2.95109 7.66878 2.74102 7.65222 2.529C7.63565 2.31698 7.53662 2.1199 7.37638 1.98008C7.21613 1.84026 7.00746 1.76884 6.79515 1.78115C6.58284 1.79346 6.38381 1.88852 6.24081 2.04593L4.84114 3.64927C4.04747 4.5588 3.59882 5.7184 3.57364 6.92527L3.51189 9.87085C3.50969 9.97755 3.52852 10.0836 3.56731 10.1831C3.60611 10.2825 3.66411 10.3733 3.73799 10.4503C3.81188 10.5273 3.90022 10.589 3.99795 10.6319C4.09568 10.6747 4.2009 10.6979 4.3076 10.7001C4.4143 10.7023 4.52039 10.6835 4.61981 10.6447C4.71923 10.6059 4.81004 10.5479 4.88704 10.474C4.96405 10.4001 5.02575 10.3118 5.06862 10.2141C5.11149 10.1164 5.13469 10.0111 5.13689 9.90443L5.19756 6.95993C5.21494 6.13414 5.5221 5.34074 6.06531 4.71852L7.46498 3.1141Z" fill="white"/>
<path fill-rule="evenodd" clip-rule="evenodd" d="M7.25661 8.84169C7.32937 7.68267 7.84109 6.59494 8.68761 5.79994C9.53414 5.00495 10.6518 4.56244 11.8131 4.56252H12.4165V3.75002C12.4165 3.4627 12.5307 3.18715 12.7338 2.98399C12.937 2.78082 13.2125 2.66669 13.4999 2.66669C13.7872 2.66669 14.0627 2.78082 14.2659 2.98399C14.4691 3.18715 14.5832 3.4627 14.5832 3.75002V4.56252H15.1866C16.3479 4.56244 17.4656 5.00495 18.3121 5.79994C19.1586 6.59494 19.6704 7.68267 19.7431 8.84169L19.9825 12.6702C20.0751 14.1297 20.5651 15.536 21.3995 16.737C21.5722 16.9852 21.6777 17.2738 21.7057 17.5748C21.7338 17.8758 21.6835 18.1789 21.5597 18.4547C21.436 18.7305 21.2429 18.9696 20.9994 19.1487C20.7558 19.3278 20.4701 19.4408 20.1699 19.4768L16.479 19.9188V21.0834C16.479 21.8735 16.1652 22.6312 15.6065 23.1899C15.0478 23.7486 14.29 24.0625 13.4999 24.0625C12.7097 24.0625 11.952 23.7486 11.3933 23.1899C10.8346 22.6312 10.5207 21.8735 10.5207 21.0834V19.9188L6.82978 19.4757C6.5298 19.4396 6.24425 19.3266 6.00086 19.1476C5.75748 18.9685 5.56454 18.7296 5.44079 18.4539C5.31704 18.1783 5.26668 17.8754 5.29461 17.5745C5.32254 17.2737 5.42782 16.9852 5.6002 16.737C6.43463 15.536 6.92464 14.1297 7.0172 12.6702L7.25661 8.84169ZM11.8131 6.18752C11.0652 6.18743 10.3453 6.47241 9.80004 6.98443C9.25481 7.49645 8.92522 8.19703 8.87836 8.94352L8.64003 12.772C8.52865 14.5278 7.93897 16.2197 6.93486 17.6644C6.92237 17.6823 6.91473 17.7032 6.91269 17.7249C6.91065 17.7467 6.91428 17.7686 6.92322 17.7886C6.93216 17.8086 6.94612 17.8259 6.96372 17.8388C6.98133 17.8518 7.00199 17.86 7.0237 17.8626L11.0721 18.349C12.6852 18.5419 14.3145 18.5419 15.9276 18.349L19.976 17.8626C19.9977 17.86 20.0184 17.8518 20.036 17.8388C20.0536 17.8259 20.0676 17.8086 20.0765 17.7886C20.0854 17.7686 20.0891 17.7467 20.087 17.7249C20.085 17.7032 20.0774 17.6823 20.0649 17.6644C19.0611 16.2196 18.4718 14.5277 18.3608 12.772L18.1214 8.94352C18.0745 8.19703 17.7449 7.49645 17.1997 6.98443C16.6545 6.47241 15.9346 6.18743 15.1866 6.18752L11.8131 6.18752ZM13.4999 22.4375C12.7524 22.4375 12.1457 21.8309 12.1457 21.0834V20.2709H14.854V21.0834C14.854 21.8309 14.2474 22.4375 13.4999 22.4375Z" fill="white"/>
<path d="M19.6141 1.96789C19.4518 2.10956 19.3524 2.30989 19.3378 2.52482C19.3232 2.73976 19.3945 2.9517 19.5361 3.11405L20.9358 4.71739C21.4788 5.34005 21.7856 6.13385 21.8025 6.95989L21.8642 9.90331C21.8687 10.1188 21.9585 10.3237 22.1141 10.4729C22.2696 10.6221 22.478 10.7035 22.6935 10.699C22.909 10.6946 23.1139 10.6047 23.2631 10.4492C23.4123 10.2936 23.4937 10.0852 23.4892 9.86972L23.4275 6.92522C23.4023 5.71836 22.9536 4.55875 22.16 3.64922L20.7603 2.04589C20.6186 1.88359 20.4183 1.7842 20.2034 1.76958C19.9884 1.75495 19.7765 1.82628 19.6141 1.96789Z" fill="white"/>
</svg>
