<svg width="28" height="6" viewBox="0 0 28 6" fill="none" xmlns="http://www.w3.org/2000/svg">
<path d="M-0.000130209 5.98897H1.22487C1.23427 5.98549 1.24229 5.97906 1.24776 5.97066C1.25322 5.96225 1.25583 5.95231 1.2552 5.94231V4.16897C1.2552 3.59964 1.57604 3.20764 2.0427 3.20764H7.0862C8.22254 3.20764 8.77437 2.50647 8.77437 1.58714C8.77437 0.764641 8.32287 0.120641 7.3977 0.00280762H-0.0222969C-0.025408 0.00669651 -0.0273524 0.0113633 -0.0281302 0.0168077V0.570975C-0.0281302 0.598975 -0.0141302 0.612975 0.0138698 0.612975H6.66037C7.22504 0.612975 7.48987 1.02014 7.48987 1.58714C7.48987 2.15531 7.22504 2.56247 6.66037 2.56247H1.39987C0.583203 2.56247 -0.0292969 3.25664 -0.0292969 4.16781V5.94114C-0.0292969 5.96525 -0.0199635 5.98081 -0.00129688 5.98781M14.3254 4.36964V1.58831C14.3254 1.02131 14.589 0.614141 15.1537 0.614141H18.642C18.6528 0.613107 18.6629 0.60835 18.6706 0.600686C18.6782 0.593022 18.683 0.58293 18.684 0.572141V0.0179749L18.6805 0.00397476H14.4164C13.4924 0.120641 13.0409 0.765808 13.0409 1.58831V4.37197C13.0409 4.94014 12.769 5.34731 12.2114 5.34731H8.5282C8.5072 5.34731 8.4862 5.36131 8.4862 5.38931V5.94347C8.4862 5.96681 8.5002 5.98314 8.5177 5.99014H12.6979C13.7875 5.96097 14.3242 5.26564 14.3242 4.37197M18.6619 5.34731H25.3585C25.3784 5.34731 25.3924 5.36131 25.3924 5.37531V5.94347C25.3924 5.97147 25.4134 5.98547 25.4344 5.98547H26.6407C26.6629 5.98547 26.6827 5.97147 26.6827 5.94347V5.38931C26.6827 5.36831 26.7037 5.34731 26.7247 5.34731H27.924C27.952 5.34731 27.966 5.32631 27.966 5.30531V4.74414C27.966 4.72314 27.952 4.70214 27.924 4.70214H26.7282C26.7174 4.70111 26.7073 4.69635 26.6997 4.68869C26.692 4.68102 26.6872 4.67093 26.6862 4.66014V0.612975C26.6862 0.282808 26.5637 0.0728076 26.3572 0.00280762H26.0072C25.8828 0.0375907 25.7639 0.0894154 25.6537 0.156808L18.4425 4.60997C18.1625 4.78497 18.0657 4.98097 18.1357 5.12797C18.1905 5.25514 18.3515 5.34614 18.6654 5.34614M19.7119 4.60297L25.2979 1.14614C25.3329 1.11814 25.4029 1.12514 25.4029 1.20214V4.65897C25.4018 4.66976 25.3971 4.67985 25.3894 4.68752C25.3817 4.69518 25.3717 4.69994 25.3609 4.70097H19.7457C19.6979 4.70097 19.6757 4.68697 19.6699 4.67297C19.6621 4.64653 19.6761 4.6232 19.7119 4.60297Z" fill="#7490B7"/>
</svg>
