<svg width="24" height="24" viewBox="0 0 24 24" fill="none" xmlns="http://www.w3.org/2000/svg">
<path d="M13.1232 3.17281C9.58441 4.17241 7.10401 6.06001 5.42401 8.34841C4.34161 9.82201 3.60481 11.448 3.12961 13.08L11.0448 20.9952C14.3352 20.1072 16.6992 18.3192 18.3444 16.0992C19.5288 14.5032 20.328 12.702 20.838 10.8852L13.1232 3.17281ZM14.2248 9.77521C14.2807 9.83095 14.325 9.89716 14.3553 9.97005C14.3855 10.0429 14.4011 10.1211 14.4011 10.2C14.4011 10.2789 14.3855 10.3571 14.3553 10.43C14.325 10.5029 14.2807 10.5691 14.2248 10.6248L10.6248 14.2248C10.569 14.2806 10.5028 14.3249 10.4299 14.355C10.357 14.3852 10.2789 14.4008 10.2 14.4008C10.1211 14.4008 10.043 14.3852 9.97011 14.355C9.89723 14.3249 9.831 14.2806 9.77521 14.2248C9.71943 14.169 9.67518 14.1028 9.64499 14.0299C9.61479 13.957 9.59926 13.8789 9.59926 13.8C9.59926 13.7211 9.61479 13.643 9.64499 13.5701C9.67518 13.4972 9.71943 13.431 9.77521 13.3752L13.3752 9.77521C13.4309 9.71934 13.4972 9.67501 13.5701 9.64476C13.6429 9.61451 13.7211 9.59894 13.8 9.59894C13.8789 9.59894 13.9571 9.61451 14.03 9.64476C14.1029 9.67501 14.1691 9.71934 14.2248 9.77521ZM21.1692 9.52081C21.486 7.97281 21.6108 6.45121 21.6036 5.07121C21.5964 3.54961 20.3316 2.38081 18.8436 2.40001C17.3818 2.4109 15.9242 2.55875 14.49 2.84161L21.1692 9.52081ZM9.65761 21.3048L2.79361 14.4408C2.48413 15.9441 2.35602 17.479 2.41201 19.0128C2.46361 20.4288 3.61321 21.5136 4.99561 21.5784C6.70681 21.6576 8.25601 21.5556 9.65761 21.3048Z" fill="url(#paint0_linear_4_404)"/>
<defs>
<linearGradient id="paint0_linear_4_404" x1="12.0016" y1="2.39978" x2="12.0016" y2="21.6049" gradientUnits="userSpaceOnUse">
<stop stop-color="#BE4CC6"/>
<stop offset="1" stop-color="#824087"/>
</linearGradient>
</defs>
</svg>
