<svg width="21" height="24" viewBox="0 0 21 24" fill="none" xmlns="http://www.w3.org/2000/svg">
<path d="M4.5 2.25L3.87656 2.87344C3.31406 3.43594 3 4.19531 3 4.99219V11.1984C3 11.7 3.24844 12.1687 3.66562 12.4453L4.1625 12.7734C4.83281 13.2234 5.69531 13.275 6.41719 12.9141L6.56719 12.8391C6.68906 12.7781 6.80156 12.7078 6.90937 12.6281L9.225 10.8937C9.53438 10.6594 9.96094 10.6594 10.2703 10.8937C10.7484 11.2547 10.7344 11.9766 10.2375 12.3141L4.2375 16.4062C3.46406 16.9359 3 17.8125 3 18.75H18L19.3547 11.2969C19.4531 10.7672 19.5 10.2281 19.5 9.68906V9C19.5 4.03125 15.4688 0 10.5 0H3.92813C3.41719 0 3 0.417187 3 0.928125C3 1.27969 3.19688 1.59844 3.51094 1.75781L4.5 2.25ZM5.625 5.4375C5.625 5.18886 5.72377 4.9504 5.89959 4.77459C6.0754 4.59877 6.31386 4.5 6.5625 4.5C6.81114 4.5 7.0496 4.59877 7.22541 4.77459C7.40123 4.9504 7.5 5.18886 7.5 5.4375C7.5 5.68614 7.40123 5.9246 7.22541 6.10041C7.0496 6.27623 6.81114 6.375 6.5625 6.375C6.31386 6.375 6.0754 6.27623 5.89959 6.10041C5.72377 5.9246 5.625 5.68614 5.625 5.4375ZM1.05938 22.1906C0.8625 22.3875 0.75 22.6594 0.75 22.9406C0.75 23.5266 1.22344 24 1.80937 24H19.1859C19.7719 24 20.2453 23.5266 20.2453 22.9406C20.2453 22.6594 20.1328 22.3875 19.9359 22.1906L18 20.25H3L1.05938 22.1906Z" fill="url(#paint0_linear_4_384)"/>
<defs>
<linearGradient id="paint0_linear_4_384" x1="10.4977" y1="0" x2="10.4977" y2="24" gradientUnits="userSpaceOnUse">
<stop stop-color="#0093B5"/>
<stop offset="1" stop-color="#036176"/>
</linearGradient>
</defs>
</svg>
