<svg width="105" height="105" viewBox="0 0 105 105" fill="none" xmlns="http://www.w3.org/2000/svg">
<path d="M52.5004 91.875C61.61 91.8749 70.4378 88.7162 77.4796 82.9371C84.5213 77.158 89.3414 69.116 91.1185 60.1814C92.8957 51.2468 91.5199 41.9724 87.2256 33.9385C82.9313 25.9046 75.9842 19.6082 67.568 16.1221C59.1517 12.6361 49.7872 12.1761 41.0698 14.8206C32.3525 17.465 24.8218 23.0503 19.7608 30.6247C14.6998 38.1991 12.4217 47.2939 13.3147 56.3597C14.2076 65.4254 18.2164 73.9011 24.6579 80.3425" stroke="#68CC58" stroke-width="5" stroke-linecap="round"/>
<path d="M70 43.75L54.2588 62.6412C51.3931 66.08 49.9581 67.8037 48.0287 67.8912C46.0994 67.9787 44.5156 66.3906 41.3481 63.2231L35 56.875" stroke="#68CC58" stroke-width="5" stroke-linecap="round"/>
<circle cx="53" cy="53" r="50" fill="#68CC58" fill-opacity="0.16"/>
</svg>
