<svg width="14" height="15" viewBox="0 0 14 15" fill="none" xmlns="http://www.w3.org/2000/svg">
<path fill-rule="evenodd" clip-rule="evenodd" d="M7.39967 7.16859L9.99367 9.76259L9.42834 10.3286L6.59967 7.49992V3.49992H7.39967V7.16859ZM6.99967 14.1666C3.31767 14.1666 0.333008 11.1819 0.333008 7.49992C0.333008 3.81792 3.31767 0.833252 6.99967 0.833252C10.6817 0.833252 13.6663 3.81792 13.6663 7.49992C13.6663 11.1819 10.6817 14.1666 6.99967 14.1666ZM6.99967 13.3666C8.55561 13.3666 10.0478 12.7485 11.148 11.6483C12.2482 10.5481 12.8663 9.05586 12.8663 7.49992C12.8663 5.94398 12.2482 4.45177 11.148 3.35156C10.0478 2.25135 8.55561 1.63325 6.99967 1.63325C5.44374 1.63325 3.95153 2.25135 2.85131 3.35156C1.7511 4.45177 1.13301 5.94398 1.13301 7.49992C1.13301 9.05586 1.7511 10.5481 2.85131 11.6483C3.95153 12.7485 5.44374 13.3666 6.99967 13.3666Z" fill="white"/>
</svg>
