<svg width="24" height="23" viewBox="0 0 24 23" fill="none" xmlns="http://www.w3.org/2000/svg">
<path d="M11.5 4.875C11.5 6.06847 11.0259 7.21307 10.182 8.05698C9.33807 8.90089 8.19347 9.375 7 9.375C5.80653 9.375 4.66193 8.90089 3.81802 8.05698C2.97411 7.21307 2.5 6.06847 2.5 4.875C2.5 3.68153 2.97411 2.53693 3.81802 1.69302C4.66193 0.849106 5.80653 0.375 7 0.375C8.19347 0.375 9.33807 0.849106 10.182 1.69302C11.0259 2.53693 11.5 3.68153 11.5 4.875ZM20.5 6C20.5 6.89511 20.1444 7.75355 19.5115 8.38649C18.8786 9.01942 18.0201 9.375 17.125 9.375C16.2299 9.375 15.3714 9.01942 14.7385 8.38649C14.1056 7.75355 13.75 6.89511 13.75 6C13.75 5.10489 14.1056 4.24645 14.7385 3.61351C15.3714 2.98058 16.2299 2.625 17.125 2.625C18.0201 2.625 18.8786 2.98058 19.5115 3.61351C20.1444 4.24645 20.5 5.10489 20.5 6ZM0.25 14.1562C0.25 13.4849 0.516685 12.8411 0.991386 12.3664C1.46609 11.8917 2.10992 11.625 2.78125 11.625H11.2188C11.5743 11.625 11.9129 11.6981 12.22 11.8309C11.0294 13.1682 10.3727 14.897 10.375 16.6875C10.3743 17.4067 10.4797 18.122 10.6877 18.8104C9.76525 19.23 8.56375 19.5 7 19.5C0.25 19.5 0.25 14.4375 0.25 14.4375V14.1562ZM11.5 16.6875C11.5 18.3285 12.1519 19.9023 13.3123 21.0627C14.4727 22.2231 16.0465 22.875 17.6875 22.875C19.3285 22.875 20.9023 22.2231 22.0627 21.0627C23.2231 19.9023 23.875 18.3285 23.875 16.6875C23.875 15.0465 23.2231 13.4727 22.0627 12.3123C20.9023 11.1519 19.3285 10.5 17.6875 10.5C16.0465 10.5 14.4727 11.1519 13.3123 12.3123C12.1519 13.4727 11.5 15.0465 11.5 16.6875Z" fill="url(#paint0_linear_1620_3533)"/>
<defs>
<linearGradient id="paint0_linear_1620_3533" x1="12.0625" y1="0.375" x2="12.0625" y2="22.875" gradientUnits="userSpaceOnUse">
<stop stop-color="#7293FF"/>
<stop offset="1" stop-color="#2299D5"/>
</linearGradient>
</defs>
</svg>
