<svg width="42" height="32" viewBox="0 0 42 32" fill="none" xmlns="http://www.w3.org/2000/svg">
<path fill-rule="evenodd" clip-rule="evenodd" d="M5.49967 0.5C4.12939 0.5 2.81523 1.04434 1.84629 2.01328C0.877351 2.98222 0.333008 4.29638 0.333008 5.66667V13.4167C0.333008 14.787 0.877351 16.1011 1.84629 17.0701C2.81523 18.039 4.12939 18.5833 5.49967 18.5833H13.2497C13.2497 20.6388 12.4332 22.61 10.9798 24.0634C9.52635 25.5168 7.5551 26.3333 5.49967 26.3333H2.91634C2.2312 26.3333 1.57412 26.6055 1.08965 27.09C0.60518 27.5744 0.333008 28.2315 0.333008 28.9167C0.333008 29.6018 0.60518 30.2589 1.08965 30.7434C1.57412 31.2278 2.2312 31.5 2.91634 31.5H5.49967C8.92539 31.5 12.2108 30.1391 14.6331 27.7168C17.0555 25.2945 18.4163 22.009 18.4163 18.5833V5.66667C18.4163 4.29638 17.872 2.98222 16.9031 2.01328C15.9341 1.04434 14.62 0.5 13.2497 0.5H5.49967ZM28.7497 0.5C27.3794 0.5 26.0652 1.04434 25.0963 2.01328C24.1274 2.98222 23.583 4.29638 23.583 5.66667V13.4167C23.583 14.787 24.1274 16.1011 25.0963 17.0701C26.0652 18.039 27.3794 18.5833 28.7497 18.5833H36.4997C36.4997 20.6388 35.6832 22.61 34.2298 24.0634C32.7763 25.5168 30.8051 26.3333 28.7497 26.3333H26.1663C25.4812 26.3333 24.8241 26.6055 24.3396 27.09C23.8552 27.5744 23.583 28.2315 23.583 28.9167C23.583 29.6018 23.8552 30.2589 24.3396 30.7434C24.8241 31.2278 25.4812 31.5 26.1663 31.5H28.7497C32.1754 31.5 35.4608 30.1391 37.8831 27.7168C40.3055 25.2945 41.6663 22.009 41.6663 18.5833V5.66667C41.6663 4.29638 41.122 2.98222 40.1531 2.01328C39.1841 1.04434 37.87 0.5 36.4997 0.5H28.7497Z" fill="#2B76DE"/>
</svg>
