<svg width="37" height="29" viewBox="0 0 37 29" fill="none" xmlns="http://www.w3.org/2000/svg">
<path d="M32.375 2.9375C32.9883 2.9375 33.5765 3.18114 34.0102 3.61482C34.4439 4.04849 34.6875 4.63669 34.6875 5.25V23.75C34.6875 24.3633 34.4439 24.9515 34.0102 25.3852C33.5765 25.8189 32.9883 26.0625 32.375 26.0625H4.625C4.01169 26.0625 3.42349 25.8189 2.98982 25.3852C2.55614 24.9515 2.3125 24.3633 2.3125 23.75V5.25C2.3125 4.63669 2.55614 4.04849 2.98982 3.61482C3.42349 3.18114 4.01169 2.9375 4.625 2.9375H32.375ZM4.625 0.625C3.39837 0.625 2.22199 1.11228 1.35463 1.97963C0.487275 2.84699 0 4.02337 0 5.25L0 23.75C0 24.9766 0.487275 26.153 1.35463 27.0204C2.22199 27.8877 3.39837 28.375 4.625 28.375H32.375C33.6016 28.375 34.778 27.8877 35.6454 27.0204C36.5127 26.153 37 24.9766 37 23.75V5.25C37 4.02337 36.5127 2.84699 35.6454 1.97963C34.778 1.11228 33.6016 0.625 32.375 0.625H4.625Z" fill="#789CE4"/>
<path d="M10.4247 21.4375H13.7293L18.3312 7.56481H15.2856L12.2031 18.4498H12.0712L8.96094 7.56481H5.78125L10.4247 21.4375ZM25.1947 7.56481H19.6562V21.4375H22.3688V16.2644H24.8293L27.2574 21.4375H30.3261L27.5419 15.8482C28.8022 15.3626 30.0625 13.9889 30.0625 11.9563C30.0625 9.30381 28.2749 7.56481 25.1947 7.56481ZM22.3688 14.2017V9.72006H24.7969C26.2538 9.72006 27.2251 10.5225 27.2251 12.0071C27.2251 13.4709 26.2816 14.204 24.7576 14.204L22.3688 14.2017Z" fill="#789CE4"/>
</svg>
