<svg width="22" height="23" viewBox="0 0 22 23" fill="none" xmlns="http://www.w3.org/2000/svg">
<path d="M2.75 5.77087C2.75 5.58854 2.82243 5.41367 2.95136 5.28474C3.0803 5.15581 3.25516 5.08337 3.4375 5.08337C5.87858 5.08337 8.25733 4.21896 10.5875 2.47087C10.7065 2.38162 10.8512 2.33337 11 2.33337C11.1488 2.33337 11.2935 2.38162 11.4125 2.47087C13.7427 4.21896 16.1214 5.08337 18.5625 5.08337C18.7448 5.08337 18.9197 5.15581 19.0486 5.28474C19.1776 5.41367 19.25 5.58854 19.25 5.77087V10.5834C19.25 10.749 19.2463 10.9137 19.239 11.0775C18.7917 10.6254 18.2202 10.3164 17.5969 10.1899C16.9737 10.0633 16.3269 10.1248 15.7387 10.3665C15.1505 10.6083 14.6474 11.0194 14.2933 11.5476C13.9392 12.0759 13.7501 12.6974 13.75 13.3334V13.3792C13.2324 13.4849 12.7672 13.7661 12.4331 14.1754C12.099 14.5846 11.9166 15.0967 11.9167 15.625V20.2084C11.9167 20.2542 11.9179 20.2988 11.9203 20.3422C11.7028 20.4369 11.4797 20.5292 11.2512 20.619C11.0894 20.6826 10.9096 20.6826 10.7479 20.619C5.4615 18.5364 2.75 15.1667 2.75 10.5834V5.77087ZM14.6667 14.25V13.3334C14.6667 12.7256 14.9081 12.1427 15.3379 11.7129C15.7677 11.2832 16.3505 11.0417 16.9583 11.0417C17.5661 11.0417 18.149 11.2832 18.5788 11.7129C19.0086 12.1427 19.25 12.7256 19.25 13.3334V14.25H19.7083C20.073 14.25 20.4227 14.3949 20.6806 14.6528C20.9385 14.9106 21.0833 15.2604 21.0833 15.625V20.2084C21.0833 20.573 20.9385 20.9228 20.6806 21.1806C20.4227 21.4385 20.073 21.5834 19.7083 21.5834H14.2083C13.8437 21.5834 13.4939 21.4385 13.2361 21.1806C12.9782 20.9228 12.8333 20.573 12.8333 20.2084V15.625C12.8333 15.2604 12.9782 14.9106 13.2361 14.6528C13.4939 14.3949 13.8437 14.25 14.2083 14.25H14.6667ZM16.0417 13.3334V14.25H17.875V13.3334C17.875 13.0903 17.7784 12.8571 17.6065 12.6852C17.4346 12.5133 17.2014 12.4167 16.9583 12.4167C16.7152 12.4167 16.4821 12.5133 16.3102 12.6852C16.1382 12.8571 16.0417 13.0903 16.0417 13.3334ZM17.875 17.9167C17.875 17.6736 17.7784 17.4404 17.6065 17.2685C17.4346 17.0966 17.2014 17 16.9583 17C16.7152 17 16.4821 17.0966 16.3102 17.2685C16.1382 17.4404 16.0417 17.6736 16.0417 17.9167C16.0417 18.1598 16.1382 18.393 16.3102 18.5649C16.4821 18.7368 16.7152 18.8334 16.9583 18.8334C17.2014 18.8334 17.4346 18.7368 17.6065 18.5649C17.7784 18.393 17.875 18.1598 17.875 17.9167Z" fill="white"/>
</svg>
