<svg width="83" height="82" viewBox="0 0 83 82" fill="none" xmlns="http://www.w3.org/2000/svg">
<path d="M73.8002 36.9999C73.7996 29.6061 71.5717 22.384 67.4071 16.2748C63.2424 10.1656 57.334 5.45249 50.452 2.74981C43.5699 0.047129 36.0333 -0.519821 28.8244 1.12284C21.6154 2.76551 15.0685 6.54161 10.0367 11.959C5.0049 17.3765 1.72167 24.184 0.614873 31.4944C-0.491925 38.8048 0.629035 46.2791 3.83167 52.9432C7.0343 59.6074 12.1701 65.1522 18.5697 68.8552C24.9693 72.5582 32.336 74.2476 39.7096 73.7033C38.9791 72.2574 38.3891 70.7447 37.9478 69.1861L37.0002 69.1999C30.5913 69.1998 24.3282 67.2873 19.0125 63.7071C13.6969 60.1269 9.57048 55.0419 7.16154 49.1029C4.75261 43.164 4.17073 36.6413 5.49036 30.3697C6.81 24.0981 9.97112 18.363 14.5691 13.8984C19.1671 9.43378 24.9928 6.44283 31.3005 5.30836C37.6082 4.17389 44.111 4.9475 49.9765 7.53019C55.8419 10.1129 60.8033 14.3871 64.2255 19.8059C67.6477 25.2246 69.375 31.5413 69.1864 37.9475C70.7627 38.3952 72.2684 38.9825 73.7036 39.7093C73.768 38.8138 73.8002 37.9107 73.8002 36.9999ZM40.027 50.2939C39.7143 49.722 39.246 49.2503 38.6764 48.9336C38.1067 48.6169 37.459 48.468 36.8082 48.5043C36.1574 48.5405 35.5302 48.7603 34.9992 49.1383C34.4682 49.5163 34.0551 50.037 33.8078 50.6401C33.5606 51.2432 33.4892 51.904 33.602 52.5459C33.7148 53.1879 34.0071 53.7848 34.4451 54.2674C34.8832 54.7501 35.449 55.0988 36.077 55.2732C36.7051 55.4476 37.3697 55.4404 37.9938 55.2527C38.4998 53.5108 39.1776 51.8579 40.027 50.2939ZM39.2634 20.4859C39.161 19.9203 38.8506 19.4136 38.3933 19.0655C37.9359 18.7174 37.3648 18.5531 36.7924 18.605C36.22 18.657 35.6878 18.9213 35.3006 19.3461C34.9133 19.7708 34.6992 20.3251 34.7002 20.8999V41.5999L34.737 42.0139C34.8394 42.5794 35.1499 43.0861 35.6072 43.4343C36.0645 43.7824 36.6356 43.9466 37.208 43.8947C37.7805 43.8428 38.3127 43.5784 38.6999 43.1537C39.0871 42.7289 39.3013 42.1746 39.3002 41.5999V20.8999L39.2634 20.4859ZM44.5212 59.6319C45.7091 59.328 46.8242 58.7898 47.8011 58.0489C48.778 57.3079 49.5969 56.3792 50.2098 55.3172C50.8226 54.2552 51.217 53.0815 51.3697 51.8649C51.5225 50.6484 51.4305 49.4136 51.0992 48.2331L50.3862 45.6709C51.5577 44.7723 52.8166 44.0103 54.1628 43.3847L55.7176 45.0315C56.5774 45.9437 57.6144 46.6706 58.7652 47.1676C59.916 47.6646 61.1561 47.9211 62.4096 47.9216C63.6631 47.922 64.9035 47.6663 66.0546 47.1701C67.2057 46.6739 68.2433 45.9477 69.1036 45.0361L70.594 43.4583C71.9679 44.1053 73.2482 44.8996 74.435 45.8411L73.8554 47.7823C73.4966 48.983 73.3868 50.2444 73.5329 51.4891C73.679 52.7338 74.0779 53.9355 74.705 55.0205C75.3322 56.1055 76.1744 57.051 77.18 57.7989C78.1856 58.5467 79.3334 59.0813 80.553 59.3697L82.1584 59.7469C82.3429 61.3 82.3584 62.8686 82.2044 64.4251L80.0884 64.9679C78.9002 65.2712 77.7845 65.8091 76.8071 66.5498C75.8297 67.2905 75.0103 68.2192 74.397 69.2812C73.7837 70.3432 73.3889 71.5172 73.2359 72.734C73.0828 73.9507 73.1746 75.1859 73.5058 76.3667L74.2234 78.9243C73.0489 79.8289 71.7885 80.5925 70.4422 81.2151L68.892 79.5683C68.0326 78.6558 66.9958 77.9285 65.8452 77.4311C64.6946 76.9337 63.4545 76.6767 62.201 76.6759C60.9475 76.675 59.7071 76.9303 58.5558 77.4261C57.4045 77.9219 56.3667 78.6477 55.506 79.5591L54.011 81.1461C52.6439 80.5012 51.3551 79.7017 50.17 78.7633L50.7542 76.8175C51.1131 75.6167 51.2228 74.3553 51.0767 73.1106C50.9306 71.8659 50.5318 70.6642 49.9046 69.5792C49.2775 68.4942 48.4353 67.5488 47.4296 66.8009C46.424 66.053 45.2762 65.5185 44.0566 65.2301L42.4466 64.8483C42.2625 63.2966 42.247 61.7296 42.4006 60.1747L44.5212 59.6319ZM66.9002 62.2999C66.9002 61.0799 66.4156 59.9098 65.5529 59.0472C64.6903 58.1845 63.5202 57.6999 62.3002 57.6999C61.0802 57.6999 59.9102 58.1845 59.0475 59.0472C58.1849 59.9098 57.7002 61.0799 57.7002 62.2999C57.7002 63.5199 58.1849 64.6899 59.0475 65.5526C59.9102 66.4152 61.0802 66.8999 62.3002 66.8999C63.5202 66.8999 64.6903 66.4152 65.5529 65.5526C66.4156 64.6899 66.9002 63.5199 66.9002 62.2999Z" fill="#FFBB00"/>
</svg>
