<svg width="14" height="14" viewBox="0 0 14 14" fill="none" xmlns="http://www.w3.org/2000/svg">
<g id="basil:sand-watch-outline">
<path id="Vector" d="M6.69084 4.97584C6.77287 5.05777 6.88406 5.10379 7 5.10379C7.11594 5.10379 7.22714 5.05777 7.30917 4.97584L7.8925 4.39251C7.95361 4.33133 7.99522 4.25341 8.01207 4.16859C8.02891 4.08377 8.02025 3.99587 7.98717 3.91597C7.95409 3.83608 7.89807 3.76778 7.8262 3.7197C7.75432 3.67162 7.66981 3.64592 7.58334 3.64584H6.41667C6.3302 3.64592 6.24568 3.67162 6.17381 3.7197C6.10193 3.76778 6.04592 3.83608 6.01283 3.91597C5.97975 3.99587 5.97109 4.08377 5.98794 4.16859C6.00479 4.25341 6.04639 4.33133 6.1075 4.39251L6.69084 4.97584ZM6.69084 9.02418C6.77287 8.94225 6.88406 8.89623 7 8.89623C7.11594 8.89623 7.22714 8.94225 7.30917 9.02418L7.8925 9.60751C7.95361 9.66869 7.99522 9.74662 8.01207 9.83143C8.02891 9.91625 8.02025 10.0042 7.98717 10.084C7.95409 10.1639 7.89807 10.2322 7.8262 10.2803C7.75432 10.3284 7.66981 10.3541 7.58334 10.3542H6.41667C6.3302 10.3541 6.24568 10.3284 6.17381 10.2803C6.10193 10.2322 6.04592 10.1639 6.01283 10.084C5.97975 10.0042 5.97109 9.91625 5.98794 9.83143C6.00479 9.74662 6.04639 9.66869 6.1075 9.60751L6.69084 9.02418Z" fill="white"/>
<path id="Vector_2" fill-rule="evenodd" clip-rule="evenodd" d="M7.67028 7.00001L7.77936 6.90609C8.93147 5.91305 9.88954 4.71506 10.605 3.37284C10.6697 3.25138 10.7034 3.11578 10.7029 2.97816C10.7024 2.84053 10.6678 2.70518 10.6022 2.58418C10.5366 2.46319 10.4421 2.36033 10.327 2.2848C10.212 2.20926 10.08 2.16341 9.94294 2.15134L9.25811 2.09184C7.75558 1.96064 6.24447 1.96064 4.74194 2.09184L4.05711 2.15134C3.92002 2.16341 3.78805 2.20926 3.673 2.2848C3.55796 2.36033 3.46342 2.46319 3.39784 2.58418C3.33226 2.70518 3.29768 2.84053 3.29719 2.97816C3.29669 3.11578 3.33031 3.25138 3.39503 3.37284C4.11051 4.71506 5.06858 5.91305 6.22069 6.90609L6.32978 7.00001L6.22069 7.09392C5.06847 8.08731 4.11039 9.2857 3.39503 10.6283C3.33044 10.7498 3.29693 10.8853 3.29748 11.0229C3.29804 11.1604 3.33265 11.2957 3.39822 11.4166C3.46378 11.5375 3.55827 11.6403 3.67325 11.7158C3.78822 11.7913 3.9201 11.8371 4.05711 11.8493L4.74194 11.9088C6.24461 12.0406 7.75544 12.0406 9.25811 11.9088L9.94294 11.8493C10.08 11.8371 10.2118 11.7913 10.3268 11.7158C10.4418 11.6403 10.5363 11.5375 10.6018 11.4166C10.6674 11.2957 10.702 11.1604 10.7026 11.0229C10.7031 10.8853 10.6696 10.7498 10.605 10.6283C9.8896 9.2859 8.93153 8.08772 7.77936 7.09451L7.67028 7.00001ZM7.00236 6.42017L7.00353 6.41901L7.20828 6.24284C8.26199 5.33453 9.14108 4.24154 9.80236 3.01759L9.18169 2.96334C7.73001 2.8366 6.27004 2.8366 4.81836 2.96334L4.19711 3.01759C4.8585 4.24179 5.7378 5.33499 6.79178 6.24342L6.99594 6.41959L6.99769 6.42017H7.00236ZM7.00353 7.58101L7.00236 7.57984H6.99769L6.99594 7.58101L6.79178 7.75717C5.7378 8.66561 4.8585 9.7588 4.19711 10.983L4.81778 11.0367C6.27028 11.1638 7.73036 11.1638 9.18169 11.0367L9.80236 10.9824C9.14114 9.75826 8.26204 8.66507 7.20828 7.75659L7.00353 7.58101Z" fill="white"/>
</g>
</svg>
