<svg width="16" height="18" viewBox="0 0 16 18" fill="none" xmlns="http://www.w3.org/2000/svg">
<path d="M6.9001 1.00002C7.23426 0.806109 7.61375 0.703979 8.0001 0.703979C8.38645 0.703979 8.76593 0.806109 9.1001 1.00002L9.10093 1.00085L14.6101 4.16752C14.9446 4.36201 15.2221 4.64098 15.4149 4.97648C15.6077 5.31199 15.7089 5.69225 15.7084 6.07918V12.415C15.7076 12.8014 15.6058 13.1808 15.4132 13.5157C15.2205 13.8506 14.9437 14.1293 14.6101 14.3242L14.6076 14.3259L9.10093 17.4917H9.09926C8.7652 17.6854 8.38587 17.7875 7.99968 17.7875C7.61349 17.7875 7.23416 17.6854 6.9001 17.4917H6.89926L1.3926 14.325H1.3901C1.0549 14.1311 0.776824 13.8521 0.583971 13.5163C0.391118 13.1805 0.29032 12.7998 0.291763 12.4125V6.07752C0.292586 5.69117 0.39437 5.31175 0.587027 4.97687C0.779684 4.64198 1.05652 4.36327 1.3901 4.16835L1.3926 4.16669L6.9001 1.00002ZM6.0001 5.53752C5.95085 5.47186 5.88915 5.41654 5.81853 5.37472C5.74791 5.3329 5.66974 5.30541 5.58848 5.2938C5.50723 5.28219 5.42449 5.2867 5.34498 5.30707C5.26548 5.32744 5.19076 5.36327 5.1251 5.41252C5.05944 5.46176 5.00412 5.52346 4.9623 5.59408C4.92048 5.66471 4.89299 5.74288 4.88138 5.82413C4.86977 5.90538 4.87428 5.98812 4.89465 6.06763C4.91502 6.14714 4.95085 6.22186 5.0001 6.28752L7.21843 9.24585L5.0001 12.2042C4.90064 12.3368 4.85794 12.5035 4.88138 12.6676C4.90482 12.8317 4.99249 12.9797 5.1251 13.0792C5.2577 13.1786 5.42439 13.2213 5.58848 13.1979C5.75258 13.1745 5.90064 13.0868 6.0001 12.9542L8.0001 10.2875L10.0001 12.9542C10.0996 13.0868 10.2476 13.1745 10.4117 13.1979C10.5758 13.2213 10.7425 13.1786 10.8751 13.0792C11.0077 12.9797 11.0954 12.8317 11.1188 12.6676C11.1423 12.5035 11.0996 12.3368 11.0001 12.2042L8.78176 9.24585L11.0001 6.28752C11.0493 6.22186 11.0852 6.14714 11.1055 6.06763C11.1259 5.98812 11.1304 5.90538 11.1188 5.82413C11.1072 5.74288 11.0797 5.66471 11.0379 5.59408C10.9961 5.52346 10.9408 5.46176 10.8751 5.41252C10.8094 5.36327 10.7347 5.32744 10.6552 5.30707C10.5757 5.2867 10.493 5.28219 10.4117 5.2938C10.3305 5.30541 10.2523 5.3329 10.1817 5.37472C10.111 5.41654 10.0493 5.47186 10.0001 5.53752L8.0001 8.20418L6.0001 5.53752Z" fill="url(#paint0_linear_4_2012)"/>
<defs>
<linearGradient id="paint0_linear_4_2012" x1="8.00009" y1="0.703979" x2="8.00009" y2="17.7875" gradientUnits="userSpaceOnUse">
<stop stop-color="#B14763"/>
<stop offset="1" stop-color="#FF3E71"/>
</linearGradient>
</defs>
</svg>
